%TF.GenerationSoftware,KiCad,Pcbnew,7.0.10*%
%TF.CreationDate,2024-04-13T12:41:34+02:00*%
%TF.ProjectId,jeopardy_pcb,6a656f70-6172-4647-995f-7063622e6b69,rev?*%
%TF.SameCoordinates,Original*%
%TF.FileFunction,Soldermask,Bot*%
%TF.FilePolarity,Negative*%
%FSLAX46Y46*%
G04 Gerber Fmt 4.6, Leading zero omitted, Abs format (unit mm)*
G04 Created by KiCad (PCBNEW 7.0.10) date 2024-04-13 12:41:34*
%MOMM*%
%LPD*%
G01*
G04 APERTURE LIST*
%ADD10R,1.800000X1.800000*%
%ADD11C,1.800000*%
%ADD12R,2.800000X2.800000*%
%ADD13C,2.800000*%
%ADD14R,1.600000X1.600000*%
%ADD15O,1.600000X1.600000*%
G04 APERTURE END LIST*
D10*
%TO.C,D4*%
X106680000Y-83566000D03*
D11*
X109220000Y-83566000D03*
%TD*%
D12*
%TO.C,J1*%
X61214000Y-78613000D03*
D13*
X61214000Y-83693000D03*
X61214000Y-88773000D03*
X61214000Y-93853000D03*
X61214000Y-98933000D03*
X61214000Y-104013000D03*
X61214000Y-109093000D03*
X61214000Y-114173000D03*
%TD*%
D10*
%TO.C,D5*%
X96139000Y-83566000D03*
D11*
X98679000Y-83566000D03*
%TD*%
D10*
%TO.C,D1*%
X91694000Y-105283000D03*
D11*
X94234000Y-105283000D03*
%TD*%
D10*
%TO.C,D2*%
X75438000Y-109347000D03*
D11*
X77978000Y-109347000D03*
%TD*%
D10*
%TO.C,D3*%
X105156000Y-97028000D03*
D11*
X107696000Y-97028000D03*
%TD*%
D10*
%TO.C,D6*%
X76962000Y-85979000D03*
D11*
X79502000Y-85979000D03*
%TD*%
D14*
%TO.C,A1*%
X96647000Y-72390000D03*
D15*
X94107000Y-72390000D03*
X91567000Y-72390000D03*
X89027000Y-72390000D03*
X86487000Y-72390000D03*
X83947000Y-72390000D03*
X81407000Y-72390000D03*
X78867000Y-72390000D03*
X73787000Y-72390000D03*
X71247000Y-72390000D03*
X68707000Y-72390000D03*
X66167000Y-72390000D03*
X63627000Y-72390000D03*
X61087000Y-72390000D03*
X61087000Y-120650000D03*
X63627000Y-120650000D03*
X66167000Y-120650000D03*
X68707000Y-120650000D03*
X71247000Y-120650000D03*
X73787000Y-120650000D03*
X76327000Y-120650000D03*
X78867000Y-120650000D03*
X82927000Y-120650000D03*
X85467000Y-120650000D03*
X88007000Y-120650000D03*
X90547000Y-120650000D03*
X93087000Y-120650000D03*
X95627000Y-120650000D03*
X98167000Y-120650000D03*
X100707000Y-120650000D03*
X103247000Y-120650000D03*
X105787000Y-120650000D03*
%TD*%
M02*
