M48
; DRILL file {KiCad 7.0.10} date 
; FORMAT={-:-/ absolute / metric / decimal}
; #@! TF.CreationDate,2024-04-13T12:41:42+02:00
; #@! TF.GenerationSoftware,Kicad,Pcbnew,7.0.10
; #@! TF.FileFunction,MixedPlating,1,2
FMAT,2
METRIC
; #@! TA.AperFunction,Plated,PTH,ViaDrill
T1C0.300
; #@! TA.AperFunction,Plated,PTH,ComponentDrill
T2C0.900
; #@! TA.AperFunction,Plated,PTH,ComponentDrill
T3C1.000
; #@! TA.AperFunction,Plated,PTH,ComponentDrill
T4C1.750
%
G90
G05
T1
X67.183Y-118.618
X68.326Y-117.602
X68.961Y-110.617
X69.977Y-109.474
X72.771Y-117.094
X75.057Y-122.301
X78.74Y-117.602
X79.248Y-98.044
X84.455Y-117.348
X90.297Y-113.919
X94.107Y-113.919
X95.758Y-112.014
X97.79Y-114.046
X99.187Y-112.014
X101.727Y-114.046
X104.135Y-117.461
X104.167Y-115.951
X104.648Y-118.872
T2
X75.438Y-109.347
X76.962Y-85.979
X77.978Y-109.347
X79.502Y-85.979
X91.694Y-105.283
X94.234Y-105.283
X96.139Y-83.566
X98.679Y-83.566
X105.156Y-97.028
X106.68Y-83.566
X107.696Y-97.028
X109.22Y-83.566
T3
X61.087Y-72.39
X61.087Y-120.65
X63.627Y-72.39
X63.627Y-120.65
X66.167Y-72.39
X66.167Y-120.65
X68.707Y-72.39
X68.707Y-120.65
X71.247Y-72.39
X71.247Y-120.65
X73.787Y-72.39
X73.787Y-120.65
X76.327Y-120.65
X78.867Y-72.39
X78.867Y-120.65
X81.407Y-72.39
X82.927Y-120.65
X83.947Y-72.39
X85.467Y-120.65
X86.487Y-72.39
X88.007Y-120.65
X89.027Y-72.39
X90.547Y-120.65
X91.567Y-72.39
X93.087Y-120.65
X94.107Y-72.39
X95.627Y-120.65
X96.647Y-72.39
X98.167Y-120.65
X100.707Y-120.65
X103.247Y-120.65
X105.787Y-120.65
T4
X61.214Y-78.613
X61.214Y-83.693
X61.214Y-88.773
X61.214Y-93.853
X61.214Y-98.933
X61.214Y-104.013
X61.214Y-109.093
X61.214Y-114.173
M30
