%TF.GenerationSoftware,KiCad,Pcbnew,7.0.10*%
%TF.CreationDate,2024-04-13T12:41:34+02:00*%
%TF.ProjectId,jeopardy_pcb,6a656f70-6172-4647-995f-7063622e6b69,rev?*%
%TF.SameCoordinates,Original*%
%TF.FileFunction,Copper,L2,Bot*%
%TF.FilePolarity,Positive*%
%FSLAX46Y46*%
G04 Gerber Fmt 4.6, Leading zero omitted, Abs format (unit mm)*
G04 Created by KiCad (PCBNEW 7.0.10) date 2024-04-13 12:41:34*
%MOMM*%
%LPD*%
G01*
G04 APERTURE LIST*
%TA.AperFunction,ComponentPad*%
%ADD10R,1.800000X1.800000*%
%TD*%
%TA.AperFunction,ComponentPad*%
%ADD11C,1.800000*%
%TD*%
%TA.AperFunction,ComponentPad*%
%ADD12R,2.800000X2.800000*%
%TD*%
%TA.AperFunction,ComponentPad*%
%ADD13C,2.800000*%
%TD*%
%TA.AperFunction,ComponentPad*%
%ADD14R,1.600000X1.600000*%
%TD*%
%TA.AperFunction,ComponentPad*%
%ADD15O,1.600000X1.600000*%
%TD*%
%TA.AperFunction,ViaPad*%
%ADD16C,1.000000*%
%TD*%
%TA.AperFunction,Conductor*%
%ADD17C,0.250000*%
%TD*%
G04 APERTURE END LIST*
D10*
%TO.P,D4,1,K*%
%TO.N,GND*%
X106680000Y-83566000D03*
D11*
%TO.P,D4,2,A*%
%TO.N,Net-(D4-A)*%
X109220000Y-83566000D03*
%TD*%
D12*
%TO.P,J1,1,Pin_1*%
%TO.N,D*%
X61214000Y-78613000D03*
D13*
%TO.P,J1,2,Pin_2*%
%TO.N,GND*%
X61214000Y-83693000D03*
%TO.P,J1,3,Pin_3*%
%TO.N,C*%
X61214000Y-88773000D03*
%TO.P,J1,4,Pin_4*%
%TO.N,GND*%
X61214000Y-93853000D03*
%TO.P,J1,5,Pin_5*%
%TO.N,B*%
X61214000Y-98933000D03*
%TO.P,J1,6,Pin_6*%
%TO.N,GND*%
X61214000Y-104013000D03*
%TO.P,J1,7,Pin_7*%
%TO.N,A*%
X61214000Y-109093000D03*
%TO.P,J1,8,Pin_8*%
%TO.N,GND*%
X61214000Y-114173000D03*
%TD*%
D10*
%TO.P,D5,1,K*%
%TO.N,GND*%
X96139000Y-83566000D03*
D11*
%TO.P,D5,2,A*%
%TO.N,Net-(D5-A)*%
X98679000Y-83566000D03*
%TD*%
D10*
%TO.P,D1,1,K*%
%TO.N,GND*%
X91694000Y-105283000D03*
D11*
%TO.P,D1,2,A*%
%TO.N,Net-(D1-A)*%
X94234000Y-105283000D03*
%TD*%
D10*
%TO.P,D2,1,K*%
%TO.N,GND*%
X75438000Y-109347000D03*
D11*
%TO.P,D2,2,A*%
%TO.N,Net-(D2-A)*%
X77978000Y-109347000D03*
%TD*%
D10*
%TO.P,D3,1,K*%
%TO.N,GND*%
X105156000Y-97028000D03*
D11*
%TO.P,D3,2,A*%
%TO.N,Net-(D3-A)*%
X107696000Y-97028000D03*
%TD*%
D10*
%TO.P,D6,1,K*%
%TO.N,GND*%
X76962000Y-85979000D03*
D11*
%TO.P,D6,2,A*%
%TO.N,Net-(D6-A)*%
X79502000Y-85979000D03*
%TD*%
D14*
%TO.P,A1,1,NC*%
%TO.N,unconnected-(A1-NC-Pad1)*%
X96647000Y-72390000D03*
D15*
%TO.P,A1,2,IOREF*%
%TO.N,unconnected-(A1-IOREF-Pad2)*%
X94107000Y-72390000D03*
%TO.P,A1,3,~{RESET}*%
%TO.N,unconnected-(A1-~{RESET}-Pad3)*%
X91567000Y-72390000D03*
%TO.P,A1,4,3V3*%
%TO.N,unconnected-(A1-3V3-Pad4)*%
X89027000Y-72390000D03*
%TO.P,A1,5,+5V*%
%TO.N,+5V*%
X86487000Y-72390000D03*
%TO.P,A1,6,GND*%
%TO.N,GND*%
X83947000Y-72390000D03*
%TO.P,A1,7,GND*%
X81407000Y-72390000D03*
%TO.P,A1,8,VIN*%
%TO.N,unconnected-(A1-VIN-Pad8)*%
X78867000Y-72390000D03*
%TO.P,A1,9,A0*%
%TO.N,unconnected-(A1-A0-Pad9)*%
X73787000Y-72390000D03*
%TO.P,A1,10,A1*%
%TO.N,unconnected-(A1-A1-Pad10)*%
X71247000Y-72390000D03*
%TO.P,A1,11,A2*%
%TO.N,unconnected-(A1-A2-Pad11)*%
X68707000Y-72390000D03*
%TO.P,A1,12,A3*%
%TO.N,unconnected-(A1-A3-Pad12)*%
X66167000Y-72390000D03*
%TO.P,A1,13,A4*%
%TO.N,unconnected-(A1-A4-Pad13)*%
X63627000Y-72390000D03*
%TO.P,A1,14,A5*%
%TO.N,unconnected-(A1-A5-Pad14)*%
X61087000Y-72390000D03*
%TO.P,A1,15,D0/RX*%
%TO.N,unconnected-(A1-D0{slash}RX-Pad15)*%
X61087000Y-120650000D03*
%TO.P,A1,16,D1/TX*%
%TO.N,unconnected-(A1-D1{slash}TX-Pad16)*%
X63627000Y-120650000D03*
%TO.P,A1,17,D2/SDA*%
%TO.N,unconnected-(A1-D2{slash}SDA-Pad17)*%
X66167000Y-120650000D03*
%TO.P,A1,18,D3/SCL*%
%TO.N,unconnected-(A1-D3{slash}SCL-Pad18)*%
X68707000Y-120650000D03*
%TO.P,A1,19,D4*%
%TO.N,LED_A*%
X71247000Y-120650000D03*
%TO.P,A1,20,D5*%
%TO.N,LED_B*%
X73787000Y-120650000D03*
%TO.P,A1,21,D6*%
%TO.N,LED_C*%
X76327000Y-120650000D03*
%TO.P,A1,22,D7*%
%TO.N,LED_D*%
X78867000Y-120650000D03*
%TO.P,A1,23,D8*%
%TO.N,LED_E*%
X82927000Y-120650000D03*
%TO.P,A1,24,D9*%
%TO.N,LED_F*%
X85467000Y-120650000D03*
%TO.P,A1,25,D10*%
%TO.N,A*%
X88007000Y-120650000D03*
%TO.P,A1,26,D11*%
%TO.N,B*%
X90547000Y-120650000D03*
%TO.P,A1,27,D12*%
%TO.N,C*%
X93087000Y-120650000D03*
%TO.P,A1,28,D13*%
%TO.N,D*%
X95627000Y-120650000D03*
%TO.P,A1,29,GND*%
%TO.N,GND*%
X98167000Y-120650000D03*
%TO.P,A1,30,AREF*%
%TO.N,unconnected-(A1-AREF-Pad30)*%
X100707000Y-120650000D03*
%TO.P,A1,31,SDA/D2*%
%TO.N,unconnected-(A1-SDA{slash}D2-Pad31)*%
X103247000Y-120650000D03*
%TO.P,A1,32,SCL/D3*%
%TO.N,unconnected-(A1-SCL{slash}D3-Pad32)*%
X105787000Y-120650000D03*
%TD*%
D16*
%TO.N,GND*%
X79248000Y-98044000D03*
X101727000Y-114046000D03*
X97790000Y-114046000D03*
X94107000Y-113919000D03*
X78740000Y-117602000D03*
X90297000Y-113919000D03*
%TO.N,LED_A*%
X104167000Y-115951000D03*
X72771000Y-117094000D03*
%TO.N,LED_B*%
X75057000Y-122301000D03*
X104648000Y-118872000D03*
%TO.N,LED_E*%
X104134763Y-117461036D03*
X84455000Y-117348000D03*
%TO.N,A*%
X67183000Y-118618000D03*
%TO.N,B*%
X68326000Y-117602000D03*
%TO.N,C*%
X68961000Y-110617000D03*
X95758000Y-112014000D03*
%TO.N,D*%
X69977000Y-109474000D03*
X99187000Y-112014000D03*
%TD*%
D17*
%TO.N,LED_A*%
X104167000Y-115951000D02*
X73914000Y-115951000D01*
X73914000Y-115951000D02*
X72771000Y-117094000D01*
%TO.N,LED_B*%
X104562000Y-118958000D02*
X104562000Y-121067412D01*
X104562000Y-121067412D02*
X103328412Y-122301000D01*
X104648000Y-118872000D02*
X104562000Y-118958000D01*
X103328412Y-122301000D02*
X75057000Y-122301000D01*
%TO.N,LED_E*%
X84455000Y-117348000D02*
X84582000Y-117221000D01*
X84582000Y-117221000D02*
X103894727Y-117221000D01*
X103894727Y-117221000D02*
X104134763Y-117461036D01*
%TO.N,A*%
X67627000Y-119062000D02*
X67183000Y-118618000D01*
X88007000Y-120650000D02*
X86419000Y-119062000D01*
X86419000Y-119062000D02*
X67627000Y-119062000D01*
%TO.N,B*%
X69236000Y-118512000D02*
X76521852Y-118512000D01*
X88409000Y-118512000D02*
X90547000Y-120650000D01*
X80958148Y-118512000D02*
X88409000Y-118512000D01*
X78356852Y-116677000D02*
X79123148Y-116677000D01*
X68326000Y-117602000D02*
X69236000Y-118512000D01*
X76521852Y-118512000D02*
X78356852Y-116677000D01*
X79123148Y-116677000D02*
X80958148Y-118512000D01*
%TO.N,C*%
X95758000Y-112014000D02*
X70358000Y-112014000D01*
X70358000Y-112014000D02*
X68961000Y-110617000D01*
%TO.N,D*%
X98262000Y-111089000D02*
X71592000Y-111089000D01*
X99187000Y-112014000D02*
X98262000Y-111089000D01*
X71592000Y-111089000D02*
X69977000Y-109474000D01*
%TD*%
%TA.AperFunction,Conductor*%
%TO.N,GND*%
G36*
X83487507Y-72180156D02*
G01*
X83447000Y-72318111D01*
X83447000Y-72461889D01*
X83487507Y-72599844D01*
X83513314Y-72640000D01*
X81840686Y-72640000D01*
X81866493Y-72599844D01*
X81907000Y-72461889D01*
X81907000Y-72318111D01*
X81866493Y-72180156D01*
X81840686Y-72140000D01*
X83513314Y-72140000D01*
X83487507Y-72180156D01*
G37*
%TD.AperFunction*%
%TA.AperFunction,Conductor*%
G36*
X124529539Y-69870185D02*
G01*
X124575294Y-69922989D01*
X124586500Y-69974500D01*
X124586500Y-123319500D01*
X124566815Y-123386539D01*
X124514011Y-123432294D01*
X124462500Y-123443500D01*
X75536985Y-123443500D01*
X75469946Y-123423815D01*
X75424191Y-123371011D01*
X75414247Y-123301853D01*
X75443272Y-123238297D01*
X75478532Y-123210142D01*
X75615532Y-123136913D01*
X75615538Y-123136910D01*
X75767883Y-123011883D01*
X75800750Y-122971835D01*
X75858495Y-122932501D01*
X75896603Y-122926500D01*
X103245669Y-122926500D01*
X103261289Y-122928224D01*
X103261316Y-122927939D01*
X103269072Y-122928671D01*
X103269079Y-122928673D01*
X103336285Y-122926561D01*
X103340180Y-122926500D01*
X103367758Y-122926500D01*
X103367762Y-122926500D01*
X103371736Y-122925997D01*
X103383375Y-122925080D01*
X103427039Y-122923709D01*
X103446281Y-122918117D01*
X103465324Y-122914174D01*
X103485204Y-122911664D01*
X103525813Y-122895585D01*
X103536856Y-122891803D01*
X103578802Y-122879618D01*
X103596041Y-122869422D01*
X103613515Y-122860862D01*
X103632139Y-122853488D01*
X103632139Y-122853487D01*
X103632144Y-122853486D01*
X103667495Y-122827800D01*
X103677226Y-122821408D01*
X103714832Y-122799170D01*
X103729001Y-122784999D01*
X103743791Y-122772368D01*
X103759999Y-122760594D01*
X103787850Y-122726926D01*
X103795691Y-122718309D01*
X104824939Y-121689062D01*
X104886260Y-121655579D01*
X104955952Y-121660563D01*
X104983739Y-121675169D01*
X105134266Y-121780568D01*
X105340504Y-121876739D01*
X105560308Y-121935635D01*
X105722230Y-121949801D01*
X105786998Y-121955468D01*
X105787000Y-121955468D01*
X105787002Y-121955468D01*
X105843673Y-121950509D01*
X106013692Y-121935635D01*
X106233496Y-121876739D01*
X106439734Y-121780568D01*
X106626139Y-121650047D01*
X106787047Y-121489139D01*
X106917568Y-121302734D01*
X107013739Y-121096496D01*
X107072635Y-120876692D01*
X107092468Y-120650000D01*
X107072635Y-120423308D01*
X107013739Y-120203504D01*
X106917568Y-119997266D01*
X106787047Y-119810861D01*
X106787045Y-119810858D01*
X106626141Y-119649954D01*
X106439734Y-119519432D01*
X106439732Y-119519431D01*
X106233497Y-119423261D01*
X106233488Y-119423258D01*
X106013697Y-119364366D01*
X106013693Y-119364365D01*
X106013692Y-119364365D01*
X106013691Y-119364364D01*
X106013686Y-119364364D01*
X105787002Y-119344532D01*
X105786998Y-119344532D01*
X105726429Y-119349831D01*
X105657929Y-119336064D01*
X105607746Y-119287449D01*
X105591813Y-119219420D01*
X105596962Y-119190307D01*
X105612981Y-119137500D01*
X105634024Y-119068132D01*
X105653341Y-118872000D01*
X105634024Y-118675868D01*
X105576814Y-118487273D01*
X105576811Y-118487269D01*
X105576811Y-118487266D01*
X105483913Y-118313467D01*
X105483909Y-118313460D01*
X105358883Y-118161116D01*
X105206539Y-118036090D01*
X105206532Y-118036086D01*
X105123591Y-117991753D01*
X105073747Y-117942791D01*
X105058286Y-117874653D01*
X105063384Y-117846399D01*
X105104177Y-117711923D01*
X105120787Y-117657168D01*
X105140104Y-117461036D01*
X105120787Y-117264904D01*
X105063577Y-117076309D01*
X105063574Y-117076305D01*
X105063574Y-117076302D01*
X104970676Y-116902503D01*
X104970672Y-116902496D01*
X104890103Y-116804323D01*
X104862790Y-116740013D01*
X104874581Y-116671145D01*
X104890103Y-116646993D01*
X104947955Y-116576500D01*
X105002910Y-116509538D01*
X105049362Y-116422632D01*
X105095811Y-116335733D01*
X105095811Y-116335732D01*
X105095814Y-116335727D01*
X105153024Y-116147132D01*
X105172341Y-115951000D01*
X105153024Y-115754868D01*
X105095814Y-115566273D01*
X105095811Y-115566269D01*
X105095811Y-115566266D01*
X105002913Y-115392467D01*
X105002909Y-115392460D01*
X104877883Y-115240116D01*
X104725539Y-115115090D01*
X104725532Y-115115086D01*
X104551733Y-115022188D01*
X104551727Y-115022186D01*
X104363132Y-114964976D01*
X104363129Y-114964975D01*
X104167000Y-114945659D01*
X103970870Y-114964975D01*
X103782266Y-115022188D01*
X103608467Y-115115086D01*
X103608460Y-115115090D01*
X103456116Y-115240116D01*
X103423250Y-115280165D01*
X103365505Y-115319499D01*
X103327397Y-115325500D01*
X73996738Y-115325500D01*
X73981121Y-115323776D01*
X73981094Y-115324062D01*
X73973332Y-115323327D01*
X73906145Y-115325439D01*
X73902251Y-115325500D01*
X73874650Y-115325500D01*
X73870962Y-115325965D01*
X73870649Y-115326005D01*
X73859031Y-115326918D01*
X73815373Y-115328290D01*
X73815372Y-115328290D01*
X73796129Y-115333881D01*
X73777079Y-115337825D01*
X73757211Y-115340334D01*
X73757210Y-115340334D01*
X73716599Y-115356413D01*
X73705554Y-115360194D01*
X73663614Y-115372379D01*
X73663610Y-115372381D01*
X73646366Y-115382579D01*
X73628905Y-115391133D01*
X73610274Y-115398510D01*
X73610262Y-115398517D01*
X73574933Y-115424185D01*
X73565173Y-115430596D01*
X73527580Y-115452829D01*
X73513414Y-115466995D01*
X73498624Y-115479627D01*
X73482414Y-115491404D01*
X73482411Y-115491407D01*
X73454573Y-115525058D01*
X73446711Y-115533697D01*
X72922394Y-116058014D01*
X72861071Y-116091499D01*
X72822562Y-116093736D01*
X72771003Y-116088659D01*
X72771000Y-116088659D01*
X72574870Y-116107975D01*
X72386266Y-116165188D01*
X72212467Y-116258086D01*
X72212460Y-116258090D01*
X72060116Y-116383116D01*
X71935090Y-116535460D01*
X71935086Y-116535467D01*
X71842188Y-116709266D01*
X71784975Y-116897870D01*
X71765659Y-117094000D01*
X71784975Y-117290129D01*
X71794699Y-117322185D01*
X71836819Y-117461036D01*
X71842188Y-117478733D01*
X71935086Y-117652532D01*
X71935090Y-117652538D01*
X71960775Y-117683836D01*
X71988087Y-117748146D01*
X71976296Y-117817013D01*
X71929143Y-117868573D01*
X71864921Y-117886500D01*
X69546453Y-117886500D01*
X69479414Y-117866815D01*
X69458772Y-117850181D01*
X69361984Y-117753393D01*
X69328499Y-117692070D01*
X69326262Y-117653561D01*
X69331341Y-117602000D01*
X69312024Y-117405868D01*
X69254814Y-117217273D01*
X69254811Y-117217269D01*
X69254811Y-117217266D01*
X69161913Y-117043467D01*
X69161909Y-117043460D01*
X69036883Y-116891116D01*
X68884539Y-116766090D01*
X68884532Y-116766086D01*
X68710733Y-116673188D01*
X68710727Y-116673186D01*
X68522132Y-116615976D01*
X68522129Y-116615975D01*
X68326000Y-116596659D01*
X68129870Y-116615975D01*
X67941266Y-116673188D01*
X67767467Y-116766086D01*
X67767460Y-116766090D01*
X67615116Y-116891116D01*
X67490090Y-117043460D01*
X67490086Y-117043467D01*
X67397188Y-117217266D01*
X67339975Y-117405870D01*
X67330450Y-117502582D01*
X67304289Y-117567369D01*
X67247254Y-117607727D01*
X67194896Y-117613830D01*
X67183004Y-117612659D01*
X67183000Y-117612659D01*
X66986870Y-117631975D01*
X66798266Y-117689188D01*
X66624467Y-117782086D01*
X66624460Y-117782090D01*
X66472116Y-117907116D01*
X66347090Y-118059460D01*
X66347086Y-118059467D01*
X66254188Y-118233266D01*
X66196975Y-118421870D01*
X66177659Y-118618000D01*
X66196975Y-118814129D01*
X66254188Y-119002733D01*
X66342185Y-119167364D01*
X66356427Y-119235767D01*
X66331427Y-119301011D01*
X66275122Y-119342381D01*
X66222021Y-119349345D01*
X66167003Y-119344532D01*
X66166998Y-119344532D01*
X65940313Y-119364364D01*
X65940302Y-119364366D01*
X65720511Y-119423258D01*
X65720502Y-119423261D01*
X65514267Y-119519431D01*
X65514265Y-119519432D01*
X65327858Y-119649954D01*
X65166954Y-119810858D01*
X65036432Y-119997265D01*
X65036431Y-119997267D01*
X65009382Y-120055275D01*
X64963209Y-120107714D01*
X64896016Y-120126866D01*
X64829135Y-120106650D01*
X64784618Y-120055275D01*
X64757686Y-119997520D01*
X64757568Y-119997266D01*
X64627047Y-119810861D01*
X64627045Y-119810858D01*
X64466141Y-119649954D01*
X64279734Y-119519432D01*
X64279732Y-119519431D01*
X64073497Y-119423261D01*
X64073488Y-119423258D01*
X63853697Y-119364366D01*
X63853693Y-119364365D01*
X63853692Y-119364365D01*
X63853691Y-119364364D01*
X63853686Y-119364364D01*
X63627002Y-119344532D01*
X63626998Y-119344532D01*
X63400313Y-119364364D01*
X63400302Y-119364366D01*
X63180511Y-119423258D01*
X63180502Y-119423261D01*
X62974267Y-119519431D01*
X62974265Y-119519432D01*
X62787858Y-119649954D01*
X62626954Y-119810858D01*
X62496432Y-119997265D01*
X62496431Y-119997267D01*
X62469382Y-120055275D01*
X62423209Y-120107714D01*
X62356016Y-120126866D01*
X62289135Y-120106650D01*
X62244618Y-120055275D01*
X62217686Y-119997520D01*
X62217568Y-119997266D01*
X62087047Y-119810861D01*
X62087045Y-119810858D01*
X61926141Y-119649954D01*
X61739734Y-119519432D01*
X61739732Y-119519431D01*
X61533497Y-119423261D01*
X61533488Y-119423258D01*
X61313697Y-119364366D01*
X61313693Y-119364365D01*
X61313692Y-119364365D01*
X61313691Y-119364364D01*
X61313686Y-119364364D01*
X61087002Y-119344532D01*
X61086998Y-119344532D01*
X60860313Y-119364364D01*
X60860302Y-119364366D01*
X60640511Y-119423258D01*
X60640502Y-119423261D01*
X60434267Y-119519431D01*
X60434265Y-119519432D01*
X60247858Y-119649954D01*
X60086954Y-119810858D01*
X59956432Y-119997265D01*
X59956431Y-119997267D01*
X59860261Y-120203502D01*
X59860258Y-120203511D01*
X59801366Y-120423302D01*
X59801364Y-120423313D01*
X59781532Y-120649998D01*
X59781532Y-120650001D01*
X59801364Y-120876686D01*
X59801366Y-120876697D01*
X59860258Y-121096488D01*
X59860261Y-121096497D01*
X59956431Y-121302732D01*
X59956432Y-121302734D01*
X60086954Y-121489141D01*
X60247858Y-121650045D01*
X60265165Y-121662163D01*
X60434266Y-121780568D01*
X60640504Y-121876739D01*
X60860308Y-121935635D01*
X61022230Y-121949801D01*
X61086998Y-121955468D01*
X61087000Y-121955468D01*
X61087002Y-121955468D01*
X61143673Y-121950509D01*
X61313692Y-121935635D01*
X61533496Y-121876739D01*
X61739734Y-121780568D01*
X61926139Y-121650047D01*
X62087047Y-121489139D01*
X62217568Y-121302734D01*
X62244618Y-121244724D01*
X62290790Y-121192285D01*
X62357983Y-121173133D01*
X62424865Y-121193348D01*
X62469382Y-121244725D01*
X62496429Y-121302728D01*
X62496432Y-121302734D01*
X62626954Y-121489141D01*
X62787858Y-121650045D01*
X62805165Y-121662163D01*
X62974266Y-121780568D01*
X63180504Y-121876739D01*
X63400308Y-121935635D01*
X63562230Y-121949801D01*
X63626998Y-121955468D01*
X63627000Y-121955468D01*
X63627002Y-121955468D01*
X63683673Y-121950509D01*
X63853692Y-121935635D01*
X64073496Y-121876739D01*
X64279734Y-121780568D01*
X64466139Y-121650047D01*
X64627047Y-121489139D01*
X64757568Y-121302734D01*
X64784618Y-121244724D01*
X64830790Y-121192285D01*
X64897983Y-121173133D01*
X64964865Y-121193348D01*
X65009382Y-121244725D01*
X65036429Y-121302728D01*
X65036432Y-121302734D01*
X65166954Y-121489141D01*
X65327858Y-121650045D01*
X65345165Y-121662163D01*
X65514266Y-121780568D01*
X65720504Y-121876739D01*
X65940308Y-121935635D01*
X66102230Y-121949801D01*
X66166998Y-121955468D01*
X66167000Y-121955468D01*
X66167002Y-121955468D01*
X66223673Y-121950509D01*
X66393692Y-121935635D01*
X66613496Y-121876739D01*
X66819734Y-121780568D01*
X67006139Y-121650047D01*
X67167047Y-121489139D01*
X67297568Y-121302734D01*
X67324618Y-121244724D01*
X67370790Y-121192285D01*
X67437983Y-121173133D01*
X67504865Y-121193348D01*
X67549382Y-121244725D01*
X67576429Y-121302728D01*
X67576432Y-121302734D01*
X67706954Y-121489141D01*
X67867858Y-121650045D01*
X67885165Y-121662163D01*
X68054266Y-121780568D01*
X68260504Y-121876739D01*
X68480308Y-121935635D01*
X68642230Y-121949801D01*
X68706998Y-121955468D01*
X68707000Y-121955468D01*
X68707002Y-121955468D01*
X68763673Y-121950509D01*
X68933692Y-121935635D01*
X69153496Y-121876739D01*
X69359734Y-121780568D01*
X69546139Y-121650047D01*
X69707047Y-121489139D01*
X69837568Y-121302734D01*
X69864618Y-121244724D01*
X69910790Y-121192285D01*
X69977983Y-121173133D01*
X70044865Y-121193348D01*
X70089382Y-121244725D01*
X70116429Y-121302728D01*
X70116432Y-121302734D01*
X70246954Y-121489141D01*
X70407858Y-121650045D01*
X70425165Y-121662163D01*
X70594266Y-121780568D01*
X70800504Y-121876739D01*
X71020308Y-121935635D01*
X71182230Y-121949801D01*
X71246998Y-121955468D01*
X71247000Y-121955468D01*
X71247002Y-121955468D01*
X71303673Y-121950509D01*
X71473692Y-121935635D01*
X71693496Y-121876739D01*
X71899734Y-121780568D01*
X72086139Y-121650047D01*
X72247047Y-121489139D01*
X72377568Y-121302734D01*
X72404618Y-121244724D01*
X72450790Y-121192285D01*
X72517983Y-121173133D01*
X72584865Y-121193348D01*
X72629382Y-121244725D01*
X72656429Y-121302728D01*
X72656432Y-121302734D01*
X72786954Y-121489141D01*
X72947858Y-121650045D01*
X72965165Y-121662163D01*
X73134266Y-121780568D01*
X73340504Y-121876739D01*
X73560308Y-121935635D01*
X73722230Y-121949801D01*
X73786998Y-121955468D01*
X73787000Y-121955468D01*
X73787001Y-121955468D01*
X73802125Y-121954144D01*
X73942567Y-121941857D01*
X74011065Y-121955623D01*
X74061248Y-122004238D01*
X74077182Y-122072267D01*
X74072035Y-122101377D01*
X74070975Y-122104868D01*
X74051659Y-122301000D01*
X74070975Y-122497129D01*
X74128188Y-122685733D01*
X74221086Y-122859532D01*
X74221090Y-122859539D01*
X74346116Y-123011883D01*
X74498460Y-123136909D01*
X74498467Y-123136913D01*
X74635468Y-123210142D01*
X74685312Y-123259104D01*
X74700773Y-123327242D01*
X74676941Y-123392921D01*
X74621384Y-123435290D01*
X74577015Y-123443500D01*
X55877500Y-123443500D01*
X55810461Y-123423815D01*
X55764706Y-123371011D01*
X55753500Y-123319500D01*
X55753500Y-114173001D01*
X59309147Y-114173001D01*
X59328536Y-114444090D01*
X59328537Y-114444097D01*
X59386305Y-114709654D01*
X59481285Y-114964306D01*
X59481287Y-114964310D01*
X59611532Y-115202835D01*
X59611537Y-115202843D01*
X59705321Y-115328123D01*
X59705322Y-115328124D01*
X60444274Y-114589172D01*
X60485501Y-114666934D01*
X60608714Y-114811992D01*
X60760230Y-114927171D01*
X60796568Y-114943983D01*
X60058874Y-115681676D01*
X60184163Y-115775466D01*
X60184164Y-115775467D01*
X60422689Y-115905712D01*
X60422693Y-115905714D01*
X60677345Y-116000694D01*
X60942902Y-116058462D01*
X60942909Y-116058463D01*
X61213999Y-116077853D01*
X61214001Y-116077853D01*
X61485090Y-116058463D01*
X61485097Y-116058462D01*
X61750654Y-116000694D01*
X62005306Y-115905714D01*
X62005310Y-115905712D01*
X62243844Y-115775462D01*
X62369123Y-115681677D01*
X62369124Y-115681676D01*
X61630826Y-114943378D01*
X61746650Y-114873689D01*
X61884825Y-114742804D01*
X61986861Y-114592309D01*
X62722676Y-115328124D01*
X62722677Y-115328123D01*
X62816462Y-115202844D01*
X62946712Y-114964310D01*
X62946714Y-114964306D01*
X63041694Y-114709654D01*
X63099462Y-114444097D01*
X63099463Y-114444090D01*
X63118853Y-114173001D01*
X63118853Y-114172998D01*
X63099463Y-113901909D01*
X63099462Y-113901902D01*
X63041694Y-113636345D01*
X62946714Y-113381693D01*
X62946712Y-113381689D01*
X62816467Y-113143164D01*
X62816466Y-113143163D01*
X62722676Y-113017874D01*
X61983724Y-113756826D01*
X61942499Y-113679066D01*
X61819286Y-113534008D01*
X61667770Y-113418829D01*
X61631430Y-113402016D01*
X62369124Y-112664322D01*
X62369123Y-112664321D01*
X62243843Y-112570537D01*
X62243835Y-112570532D01*
X62005310Y-112440287D01*
X62005306Y-112440285D01*
X61750654Y-112345305D01*
X61485097Y-112287537D01*
X61485090Y-112287536D01*
X61214001Y-112268147D01*
X61213999Y-112268147D01*
X60942909Y-112287536D01*
X60942902Y-112287537D01*
X60677345Y-112345305D01*
X60422693Y-112440285D01*
X60422689Y-112440287D01*
X60184164Y-112570532D01*
X60184156Y-112570537D01*
X60058875Y-112664321D01*
X60058874Y-112664322D01*
X60797173Y-113402621D01*
X60681350Y-113472311D01*
X60543175Y-113603196D01*
X60441138Y-113753690D01*
X59705322Y-113017874D01*
X59705321Y-113017875D01*
X59611537Y-113143156D01*
X59611532Y-113143164D01*
X59481287Y-113381689D01*
X59481285Y-113381693D01*
X59386305Y-113636345D01*
X59328537Y-113901902D01*
X59328536Y-113901909D01*
X59309147Y-114172998D01*
X59309147Y-114173001D01*
X55753500Y-114173001D01*
X55753500Y-109093001D01*
X59308645Y-109093001D01*
X59328039Y-109364160D01*
X59328040Y-109364167D01*
X59381878Y-109611659D01*
X59385825Y-109629801D01*
X59433274Y-109757016D01*
X59480830Y-109884519D01*
X59611109Y-110123107D01*
X59611110Y-110123108D01*
X59611113Y-110123113D01*
X59774029Y-110340742D01*
X59774033Y-110340746D01*
X59774038Y-110340752D01*
X59966247Y-110532961D01*
X59966253Y-110532966D01*
X59966258Y-110532971D01*
X60183887Y-110695887D01*
X60183891Y-110695889D01*
X60183892Y-110695890D01*
X60422481Y-110826169D01*
X60422480Y-110826169D01*
X60422484Y-110826170D01*
X60422487Y-110826172D01*
X60677199Y-110921175D01*
X60942840Y-110978961D01*
X61194605Y-110996967D01*
X61213999Y-110998355D01*
X61214000Y-110998355D01*
X61214001Y-110998355D01*
X61232100Y-110997060D01*
X61485160Y-110978961D01*
X61750801Y-110921175D01*
X62005513Y-110826172D01*
X62005517Y-110826169D01*
X62005519Y-110826169D01*
X62124813Y-110761029D01*
X62244113Y-110695887D01*
X62349493Y-110617000D01*
X67955659Y-110617000D01*
X67974975Y-110813129D01*
X67974976Y-110813132D01*
X68025279Y-110978959D01*
X68032188Y-111001733D01*
X68125086Y-111175532D01*
X68125090Y-111175539D01*
X68250116Y-111327883D01*
X68402460Y-111452909D01*
X68402467Y-111452913D01*
X68576266Y-111545811D01*
X68576269Y-111545811D01*
X68576273Y-111545814D01*
X68764868Y-111603024D01*
X68961000Y-111622341D01*
X69012560Y-111617262D01*
X69081203Y-111630280D01*
X69112393Y-111652983D01*
X69669538Y-112210129D01*
X69857197Y-112397788D01*
X69867022Y-112410051D01*
X69867243Y-112409869D01*
X69872211Y-112415874D01*
X69921222Y-112461899D01*
X69924021Y-112464612D01*
X69943522Y-112484114D01*
X69943526Y-112484117D01*
X69943529Y-112484120D01*
X69946702Y-112486581D01*
X69955574Y-112494159D01*
X69987418Y-112524062D01*
X70004976Y-112533714D01*
X70021235Y-112544395D01*
X70037064Y-112556673D01*
X70077155Y-112574021D01*
X70087626Y-112579151D01*
X70110180Y-112591550D01*
X70125902Y-112600194D01*
X70125904Y-112600195D01*
X70125908Y-112600197D01*
X70145316Y-112605180D01*
X70163719Y-112611481D01*
X70182101Y-112619436D01*
X70182102Y-112619436D01*
X70182104Y-112619437D01*
X70225250Y-112626270D01*
X70236672Y-112628636D01*
X70278981Y-112639500D01*
X70299016Y-112639500D01*
X70318414Y-112641026D01*
X70338194Y-112644159D01*
X70338195Y-112644160D01*
X70338195Y-112644159D01*
X70338196Y-112644160D01*
X70381675Y-112640050D01*
X70393344Y-112639500D01*
X94918397Y-112639500D01*
X94985436Y-112659185D01*
X95014250Y-112684835D01*
X95047116Y-112724883D01*
X95199460Y-112849909D01*
X95199467Y-112849913D01*
X95373266Y-112942811D01*
X95373269Y-112942811D01*
X95373273Y-112942814D01*
X95561868Y-113000024D01*
X95758000Y-113019341D01*
X95954132Y-113000024D01*
X96142727Y-112942814D01*
X96316538Y-112849910D01*
X96468883Y-112724883D01*
X96593910Y-112572538D01*
X96680761Y-112410051D01*
X96686811Y-112398733D01*
X96686811Y-112398732D01*
X96686814Y-112398727D01*
X96744024Y-112210132D01*
X96763341Y-112014000D01*
X96747253Y-111850653D01*
X96760272Y-111782008D01*
X96808337Y-111731298D01*
X96870656Y-111714500D01*
X97951548Y-111714500D01*
X98018587Y-111734185D01*
X98039229Y-111750819D01*
X98151015Y-111862605D01*
X98184500Y-111923928D01*
X98186737Y-111962439D01*
X98181659Y-112013999D01*
X98200975Y-112210129D01*
X98258188Y-112398733D01*
X98351086Y-112572532D01*
X98351090Y-112572539D01*
X98476116Y-112724883D01*
X98628460Y-112849909D01*
X98628467Y-112849913D01*
X98802266Y-112942811D01*
X98802269Y-112942811D01*
X98802273Y-112942814D01*
X98990868Y-113000024D01*
X99187000Y-113019341D01*
X99383132Y-113000024D01*
X99571727Y-112942814D01*
X99745538Y-112849910D01*
X99897883Y-112724883D01*
X100022910Y-112572538D01*
X100109761Y-112410051D01*
X100115811Y-112398733D01*
X100115811Y-112398732D01*
X100115814Y-112398727D01*
X100173024Y-112210132D01*
X100192341Y-112014000D01*
X100173024Y-111817868D01*
X100115814Y-111629273D01*
X100115811Y-111629269D01*
X100115811Y-111629266D01*
X100022913Y-111455467D01*
X100022909Y-111455460D01*
X99897883Y-111303116D01*
X99745539Y-111178090D01*
X99745532Y-111178086D01*
X99571733Y-111085188D01*
X99571727Y-111085186D01*
X99383132Y-111027976D01*
X99383129Y-111027975D01*
X99187000Y-111008659D01*
X99186997Y-111008659D01*
X99135437Y-111013736D01*
X99066791Y-111000716D01*
X99035605Y-110978014D01*
X98762803Y-110705212D01*
X98752980Y-110692950D01*
X98752759Y-110693134D01*
X98747786Y-110687122D01*
X98698776Y-110641099D01*
X98695977Y-110638386D01*
X98676477Y-110618885D01*
X98676471Y-110618880D01*
X98673286Y-110616409D01*
X98664434Y-110608848D01*
X98632582Y-110578938D01*
X98632580Y-110578936D01*
X98632577Y-110578935D01*
X98615029Y-110569288D01*
X98598763Y-110558604D01*
X98582932Y-110546324D01*
X98542849Y-110528978D01*
X98532363Y-110523841D01*
X98494094Y-110502803D01*
X98494092Y-110502802D01*
X98474693Y-110497822D01*
X98456281Y-110491518D01*
X98437898Y-110483562D01*
X98437892Y-110483560D01*
X98394760Y-110476729D01*
X98383322Y-110474361D01*
X98341020Y-110463500D01*
X98341019Y-110463500D01*
X98320984Y-110463500D01*
X98301586Y-110461973D01*
X98294162Y-110460797D01*
X98281805Y-110458840D01*
X98281804Y-110458840D01*
X98238325Y-110462950D01*
X98226656Y-110463500D01*
X79136448Y-110463500D01*
X79069409Y-110443815D01*
X79023654Y-110391011D01*
X79013710Y-110321853D01*
X79042735Y-110258297D01*
X79045218Y-110255518D01*
X79050421Y-110249865D01*
X79086979Y-110210153D01*
X79213924Y-110015849D01*
X79307157Y-109803300D01*
X79364134Y-109578305D01*
X79371791Y-109485896D01*
X79383300Y-109347006D01*
X79383300Y-109346993D01*
X79364135Y-109115702D01*
X79364133Y-109115691D01*
X79307157Y-108890699D01*
X79213924Y-108678151D01*
X79086983Y-108483852D01*
X79086980Y-108483849D01*
X79086979Y-108483847D01*
X78929784Y-108313087D01*
X78929779Y-108313083D01*
X78929777Y-108313081D01*
X78746634Y-108170535D01*
X78746628Y-108170531D01*
X78542504Y-108060064D01*
X78542495Y-108060061D01*
X78322984Y-107984702D01*
X78135404Y-107953401D01*
X78094049Y-107946500D01*
X77861951Y-107946500D01*
X77820596Y-107953401D01*
X77633015Y-107984702D01*
X77413504Y-108060061D01*
X77413495Y-108060064D01*
X77209371Y-108170531D01*
X77209365Y-108170535D01*
X77026222Y-108313081D01*
X77026215Y-108313087D01*
X77017484Y-108322572D01*
X76957595Y-108358561D01*
X76887757Y-108356458D01*
X76830143Y-108316932D01*
X76810075Y-108281918D01*
X76781355Y-108204915D01*
X76781350Y-108204906D01*
X76695190Y-108089812D01*
X76695187Y-108089809D01*
X76580093Y-108003649D01*
X76580086Y-108003645D01*
X76445379Y-107953403D01*
X76445372Y-107953401D01*
X76385844Y-107947000D01*
X75688000Y-107947000D01*
X75688000Y-108972810D01*
X75635453Y-108936984D01*
X75505827Y-108897000D01*
X75404276Y-108897000D01*
X75303862Y-108912135D01*
X75188000Y-108967931D01*
X75188000Y-107947000D01*
X74490155Y-107947000D01*
X74430627Y-107953401D01*
X74430620Y-107953403D01*
X74295913Y-108003645D01*
X74295906Y-108003649D01*
X74180812Y-108089809D01*
X74180809Y-108089812D01*
X74094649Y-108204906D01*
X74094645Y-108204913D01*
X74044403Y-108339620D01*
X74044401Y-108339627D01*
X74038000Y-108399155D01*
X74038000Y-109097000D01*
X75062722Y-109097000D01*
X75014375Y-109180740D01*
X74984190Y-109312992D01*
X74994327Y-109448265D01*
X75043887Y-109574541D01*
X75061797Y-109597000D01*
X74038000Y-109597000D01*
X74038000Y-110294844D01*
X74041377Y-110326244D01*
X74028972Y-110395004D01*
X73981362Y-110446141D01*
X73918088Y-110463500D01*
X71902452Y-110463500D01*
X71835413Y-110443815D01*
X71814771Y-110427181D01*
X71012984Y-109625393D01*
X70979499Y-109564070D01*
X70977262Y-109525561D01*
X70982341Y-109474000D01*
X70963024Y-109277868D01*
X70905814Y-109089273D01*
X70905811Y-109089269D01*
X70905811Y-109089266D01*
X70812913Y-108915467D01*
X70812909Y-108915460D01*
X70687883Y-108763116D01*
X70535539Y-108638090D01*
X70535532Y-108638086D01*
X70361733Y-108545188D01*
X70361727Y-108545186D01*
X70173132Y-108487976D01*
X70173129Y-108487975D01*
X69977000Y-108468659D01*
X69780870Y-108487975D01*
X69592266Y-108545188D01*
X69418467Y-108638086D01*
X69418460Y-108638090D01*
X69266116Y-108763116D01*
X69141090Y-108915460D01*
X69141086Y-108915467D01*
X69048188Y-109089266D01*
X68990975Y-109277870D01*
X68971659Y-109474000D01*
X68971659Y-109474003D01*
X68972830Y-109485896D01*
X68959810Y-109554541D01*
X68911744Y-109605251D01*
X68861582Y-109621450D01*
X68764870Y-109630975D01*
X68576266Y-109688188D01*
X68402467Y-109781086D01*
X68402460Y-109781090D01*
X68250116Y-109906116D01*
X68125090Y-110058460D01*
X68125086Y-110058467D01*
X68032188Y-110232266D01*
X67974975Y-110420870D01*
X67955659Y-110617000D01*
X62349493Y-110617000D01*
X62461742Y-110532971D01*
X62653971Y-110340742D01*
X62816887Y-110123113D01*
X62882029Y-110003813D01*
X62947169Y-109884519D01*
X62947169Y-109884517D01*
X62947172Y-109884513D01*
X63042175Y-109629801D01*
X63099961Y-109364160D01*
X63119355Y-109093000D01*
X63119088Y-109089273D01*
X63113662Y-109013401D01*
X63099961Y-108821840D01*
X63042175Y-108556199D01*
X62947172Y-108301487D01*
X62947170Y-108301484D01*
X62947169Y-108301480D01*
X62816890Y-108062892D01*
X62816889Y-108062891D01*
X62816887Y-108062887D01*
X62653971Y-107845258D01*
X62653966Y-107845253D01*
X62653961Y-107845247D01*
X62461752Y-107653038D01*
X62461746Y-107653033D01*
X62461742Y-107653029D01*
X62244113Y-107490113D01*
X62244108Y-107490110D01*
X62244107Y-107490109D01*
X62005518Y-107359830D01*
X62005519Y-107359830D01*
X61955920Y-107341330D01*
X61750801Y-107264825D01*
X61750794Y-107264823D01*
X61750793Y-107264823D01*
X61485167Y-107207040D01*
X61485160Y-107207039D01*
X61214001Y-107187645D01*
X61213999Y-107187645D01*
X60942839Y-107207039D01*
X60942832Y-107207040D01*
X60677206Y-107264823D01*
X60677202Y-107264824D01*
X60677199Y-107264825D01*
X60549843Y-107312326D01*
X60422480Y-107359830D01*
X60183892Y-107490109D01*
X60183891Y-107490110D01*
X59966259Y-107653028D01*
X59966247Y-107653038D01*
X59774038Y-107845247D01*
X59774028Y-107845259D01*
X59611110Y-108062891D01*
X59611109Y-108062892D01*
X59480830Y-108301480D01*
X59433326Y-108428843D01*
X59385825Y-108556199D01*
X59385824Y-108556202D01*
X59385823Y-108556206D01*
X59328040Y-108821832D01*
X59328039Y-108821839D01*
X59308645Y-109092998D01*
X59308645Y-109093001D01*
X55753500Y-109093001D01*
X55753500Y-106230844D01*
X90294000Y-106230844D01*
X90300401Y-106290372D01*
X90300403Y-106290379D01*
X90350645Y-106425086D01*
X90350649Y-106425093D01*
X90436809Y-106540187D01*
X90436812Y-106540190D01*
X90551906Y-106626350D01*
X90551913Y-106626354D01*
X90686620Y-106676596D01*
X90686627Y-106676598D01*
X90746155Y-106682999D01*
X90746172Y-106683000D01*
X91444000Y-106683000D01*
X91444000Y-105657189D01*
X91496547Y-105693016D01*
X91626173Y-105733000D01*
X91727724Y-105733000D01*
X91828138Y-105717865D01*
X91944000Y-105662068D01*
X91944000Y-106683000D01*
X92641828Y-106683000D01*
X92641844Y-106682999D01*
X92701372Y-106676598D01*
X92701379Y-106676596D01*
X92836086Y-106626354D01*
X92836093Y-106626350D01*
X92951187Y-106540190D01*
X92951190Y-106540187D01*
X93037350Y-106425093D01*
X93037355Y-106425084D01*
X93066075Y-106348081D01*
X93107945Y-106292147D01*
X93173409Y-106267729D01*
X93241682Y-106282580D01*
X93273484Y-106307428D01*
X93282216Y-106316913D01*
X93282219Y-106316915D01*
X93282222Y-106316918D01*
X93465365Y-106459464D01*
X93465371Y-106459468D01*
X93465374Y-106459470D01*
X93669497Y-106569936D01*
X93783487Y-106609068D01*
X93889015Y-106645297D01*
X93889017Y-106645297D01*
X93889019Y-106645298D01*
X94117951Y-106683500D01*
X94117952Y-106683500D01*
X94350048Y-106683500D01*
X94350049Y-106683500D01*
X94578981Y-106645298D01*
X94798503Y-106569936D01*
X95002626Y-106459470D01*
X95185784Y-106316913D01*
X95342979Y-106146153D01*
X95469924Y-105951849D01*
X95563157Y-105739300D01*
X95620134Y-105514305D01*
X95625524Y-105449260D01*
X95639300Y-105283006D01*
X95639300Y-105282993D01*
X95620135Y-105051702D01*
X95620133Y-105051691D01*
X95563157Y-104826699D01*
X95469924Y-104614151D01*
X95342983Y-104419852D01*
X95342980Y-104419849D01*
X95342979Y-104419847D01*
X95185784Y-104249087D01*
X95185779Y-104249083D01*
X95185777Y-104249081D01*
X95002634Y-104106535D01*
X95002628Y-104106531D01*
X94798504Y-103996064D01*
X94798495Y-103996061D01*
X94578984Y-103920702D01*
X94391404Y-103889401D01*
X94350049Y-103882500D01*
X94117951Y-103882500D01*
X94076596Y-103889401D01*
X93889015Y-103920702D01*
X93669504Y-103996061D01*
X93669495Y-103996064D01*
X93465371Y-104106531D01*
X93465365Y-104106535D01*
X93282222Y-104249081D01*
X93282215Y-104249087D01*
X93273484Y-104258572D01*
X93213595Y-104294561D01*
X93143757Y-104292458D01*
X93086143Y-104252932D01*
X93066075Y-104217918D01*
X93037355Y-104140915D01*
X93037350Y-104140906D01*
X92951190Y-104025812D01*
X92951187Y-104025809D01*
X92836093Y-103939649D01*
X92836086Y-103939645D01*
X92701379Y-103889403D01*
X92701372Y-103889401D01*
X92641844Y-103883000D01*
X91944000Y-103883000D01*
X91944000Y-104908810D01*
X91891453Y-104872984D01*
X91761827Y-104833000D01*
X91660276Y-104833000D01*
X91559862Y-104848135D01*
X91444000Y-104903931D01*
X91444000Y-103883000D01*
X90746155Y-103883000D01*
X90686627Y-103889401D01*
X90686620Y-103889403D01*
X90551913Y-103939645D01*
X90551906Y-103939649D01*
X90436812Y-104025809D01*
X90436809Y-104025812D01*
X90350649Y-104140906D01*
X90350645Y-104140913D01*
X90300403Y-104275620D01*
X90300401Y-104275627D01*
X90294000Y-104335155D01*
X90294000Y-105033000D01*
X91318722Y-105033000D01*
X91270375Y-105116740D01*
X91240190Y-105248992D01*
X91250327Y-105384265D01*
X91299887Y-105510541D01*
X91317797Y-105533000D01*
X90294000Y-105533000D01*
X90294000Y-106230844D01*
X55753500Y-106230844D01*
X55753500Y-104013001D01*
X59309147Y-104013001D01*
X59328536Y-104284090D01*
X59328537Y-104284097D01*
X59386305Y-104549654D01*
X59481285Y-104804306D01*
X59481287Y-104804310D01*
X59611532Y-105042835D01*
X59611537Y-105042843D01*
X59705321Y-105168123D01*
X59705322Y-105168124D01*
X60444274Y-104429172D01*
X60485501Y-104506934D01*
X60608714Y-104651992D01*
X60760230Y-104767171D01*
X60796568Y-104783983D01*
X60058874Y-105521676D01*
X60184163Y-105615466D01*
X60184164Y-105615467D01*
X60422689Y-105745712D01*
X60422693Y-105745714D01*
X60677345Y-105840694D01*
X60942902Y-105898462D01*
X60942909Y-105898463D01*
X61213999Y-105917853D01*
X61214001Y-105917853D01*
X61485090Y-105898463D01*
X61485097Y-105898462D01*
X61750654Y-105840694D01*
X62005306Y-105745714D01*
X62005310Y-105745712D01*
X62243844Y-105615462D01*
X62369123Y-105521677D01*
X62369124Y-105521676D01*
X61630826Y-104783378D01*
X61746650Y-104713689D01*
X61884825Y-104582804D01*
X61986861Y-104432309D01*
X62722676Y-105168124D01*
X62722677Y-105168123D01*
X62816462Y-105042844D01*
X62946712Y-104804310D01*
X62946714Y-104804306D01*
X63041694Y-104549654D01*
X63099462Y-104284097D01*
X63099463Y-104284090D01*
X63118853Y-104013001D01*
X63118853Y-104012998D01*
X63099463Y-103741909D01*
X63099462Y-103741902D01*
X63041694Y-103476345D01*
X62946714Y-103221693D01*
X62946712Y-103221689D01*
X62816467Y-102983164D01*
X62816466Y-102983163D01*
X62722676Y-102857874D01*
X61983724Y-103596826D01*
X61942499Y-103519066D01*
X61819286Y-103374008D01*
X61667770Y-103258829D01*
X61631430Y-103242016D01*
X62369124Y-102504322D01*
X62369123Y-102504321D01*
X62243843Y-102410537D01*
X62243835Y-102410532D01*
X62005310Y-102280287D01*
X62005306Y-102280285D01*
X61750654Y-102185305D01*
X61485097Y-102127537D01*
X61485090Y-102127536D01*
X61214001Y-102108147D01*
X61213999Y-102108147D01*
X60942909Y-102127536D01*
X60942902Y-102127537D01*
X60677345Y-102185305D01*
X60422693Y-102280285D01*
X60422689Y-102280287D01*
X60184164Y-102410532D01*
X60184156Y-102410537D01*
X60058875Y-102504321D01*
X60058874Y-102504322D01*
X60797173Y-103242621D01*
X60681350Y-103312311D01*
X60543175Y-103443196D01*
X60441138Y-103593690D01*
X59705322Y-102857874D01*
X59705321Y-102857875D01*
X59611537Y-102983156D01*
X59611532Y-102983164D01*
X59481287Y-103221689D01*
X59481285Y-103221693D01*
X59386305Y-103476345D01*
X59328537Y-103741902D01*
X59328536Y-103741909D01*
X59309147Y-104012998D01*
X59309147Y-104013001D01*
X55753500Y-104013001D01*
X55753500Y-98933001D01*
X59308645Y-98933001D01*
X59328039Y-99204160D01*
X59328040Y-99204167D01*
X59385823Y-99469793D01*
X59385825Y-99469801D01*
X59462330Y-99674920D01*
X59480830Y-99724519D01*
X59611109Y-99963107D01*
X59611110Y-99963108D01*
X59611113Y-99963113D01*
X59774029Y-100180742D01*
X59774033Y-100180746D01*
X59774038Y-100180752D01*
X59966247Y-100372961D01*
X59966253Y-100372966D01*
X59966258Y-100372971D01*
X60183887Y-100535887D01*
X60183891Y-100535889D01*
X60183892Y-100535890D01*
X60422481Y-100666169D01*
X60422480Y-100666169D01*
X60422484Y-100666170D01*
X60422487Y-100666172D01*
X60677199Y-100761175D01*
X60942840Y-100818961D01*
X61194605Y-100836967D01*
X61213999Y-100838355D01*
X61214000Y-100838355D01*
X61214001Y-100838355D01*
X61232100Y-100837060D01*
X61485160Y-100818961D01*
X61750801Y-100761175D01*
X62005513Y-100666172D01*
X62005517Y-100666169D01*
X62005519Y-100666169D01*
X62124813Y-100601029D01*
X62244113Y-100535887D01*
X62461742Y-100372971D01*
X62653971Y-100180742D01*
X62816887Y-99963113D01*
X62947172Y-99724513D01*
X63042175Y-99469801D01*
X63099961Y-99204160D01*
X63119355Y-98933000D01*
X63099961Y-98661840D01*
X63042175Y-98396199D01*
X62947172Y-98141487D01*
X62947170Y-98141484D01*
X62947169Y-98141480D01*
X62856725Y-97975844D01*
X103756000Y-97975844D01*
X103762401Y-98035372D01*
X103762403Y-98035379D01*
X103812645Y-98170086D01*
X103812649Y-98170093D01*
X103898809Y-98285187D01*
X103898812Y-98285190D01*
X104013906Y-98371350D01*
X104013913Y-98371354D01*
X104148620Y-98421596D01*
X104148627Y-98421598D01*
X104208155Y-98427999D01*
X104208172Y-98428000D01*
X104906000Y-98428000D01*
X104906000Y-97402189D01*
X104958547Y-97438016D01*
X105088173Y-97478000D01*
X105189724Y-97478000D01*
X105290138Y-97462865D01*
X105406000Y-97407068D01*
X105406000Y-98428000D01*
X106103828Y-98428000D01*
X106103844Y-98427999D01*
X106163372Y-98421598D01*
X106163379Y-98421596D01*
X106298086Y-98371354D01*
X106298093Y-98371350D01*
X106413187Y-98285190D01*
X106413190Y-98285187D01*
X106499350Y-98170093D01*
X106499355Y-98170084D01*
X106528075Y-98093081D01*
X106569945Y-98037147D01*
X106635409Y-98012729D01*
X106703682Y-98027580D01*
X106735484Y-98052428D01*
X106744216Y-98061913D01*
X106744219Y-98061915D01*
X106744222Y-98061918D01*
X106927365Y-98204464D01*
X106927371Y-98204468D01*
X106927374Y-98204470D01*
X107131497Y-98314936D01*
X107245487Y-98354068D01*
X107351015Y-98390297D01*
X107351017Y-98390297D01*
X107351019Y-98390298D01*
X107579951Y-98428500D01*
X107579952Y-98428500D01*
X107812048Y-98428500D01*
X107812049Y-98428500D01*
X108040981Y-98390298D01*
X108260503Y-98314936D01*
X108464626Y-98204470D01*
X108647784Y-98061913D01*
X108804979Y-97891153D01*
X108931924Y-97696849D01*
X109025157Y-97484300D01*
X109082134Y-97259305D01*
X109087062Y-97199830D01*
X109101300Y-97028006D01*
X109101300Y-97027993D01*
X109082135Y-96796702D01*
X109082133Y-96796691D01*
X109025157Y-96571699D01*
X108931924Y-96359151D01*
X108804983Y-96164852D01*
X108804980Y-96164849D01*
X108804979Y-96164847D01*
X108647784Y-95994087D01*
X108647779Y-95994083D01*
X108647777Y-95994081D01*
X108464634Y-95851535D01*
X108464628Y-95851531D01*
X108260504Y-95741064D01*
X108260495Y-95741061D01*
X108040984Y-95665702D01*
X107853404Y-95634401D01*
X107812049Y-95627500D01*
X107579951Y-95627500D01*
X107538596Y-95634401D01*
X107351015Y-95665702D01*
X107131504Y-95741061D01*
X107131495Y-95741064D01*
X106927371Y-95851531D01*
X106927365Y-95851535D01*
X106744222Y-95994081D01*
X106744215Y-95994087D01*
X106735484Y-96003572D01*
X106675595Y-96039561D01*
X106605757Y-96037458D01*
X106548143Y-95997932D01*
X106528075Y-95962918D01*
X106499355Y-95885915D01*
X106499350Y-95885906D01*
X106413190Y-95770812D01*
X106413187Y-95770809D01*
X106298093Y-95684649D01*
X106298086Y-95684645D01*
X106163379Y-95634403D01*
X106163372Y-95634401D01*
X106103844Y-95628000D01*
X105406000Y-95628000D01*
X105406000Y-96653810D01*
X105353453Y-96617984D01*
X105223827Y-96578000D01*
X105122276Y-96578000D01*
X105021862Y-96593135D01*
X104906000Y-96648931D01*
X104906000Y-95628000D01*
X104208155Y-95628000D01*
X104148627Y-95634401D01*
X104148620Y-95634403D01*
X104013913Y-95684645D01*
X104013906Y-95684649D01*
X103898812Y-95770809D01*
X103898809Y-95770812D01*
X103812649Y-95885906D01*
X103812645Y-95885913D01*
X103762403Y-96020620D01*
X103762401Y-96020627D01*
X103756000Y-96080155D01*
X103756000Y-96778000D01*
X104780722Y-96778000D01*
X104732375Y-96861740D01*
X104702190Y-96993992D01*
X104712327Y-97129265D01*
X104761887Y-97255541D01*
X104779797Y-97278000D01*
X103756000Y-97278000D01*
X103756000Y-97975844D01*
X62856725Y-97975844D01*
X62816890Y-97902892D01*
X62816889Y-97902891D01*
X62816887Y-97902887D01*
X62653971Y-97685258D01*
X62653966Y-97685253D01*
X62653961Y-97685247D01*
X62461752Y-97493038D01*
X62461746Y-97493033D01*
X62461742Y-97493029D01*
X62244113Y-97330113D01*
X62244108Y-97330110D01*
X62244107Y-97330109D01*
X62005518Y-97199830D01*
X62005519Y-97199830D01*
X61955920Y-97181330D01*
X61750801Y-97104825D01*
X61750794Y-97104823D01*
X61750793Y-97104823D01*
X61485167Y-97047040D01*
X61485160Y-97047039D01*
X61214001Y-97027645D01*
X61213999Y-97027645D01*
X60942839Y-97047039D01*
X60942832Y-97047040D01*
X60677206Y-97104823D01*
X60677202Y-97104824D01*
X60677199Y-97104825D01*
X60549843Y-97152326D01*
X60422480Y-97199830D01*
X60183892Y-97330109D01*
X60183891Y-97330110D01*
X59966259Y-97493028D01*
X59966247Y-97493038D01*
X59774038Y-97685247D01*
X59774028Y-97685259D01*
X59611110Y-97902891D01*
X59611109Y-97902892D01*
X59480830Y-98141480D01*
X59457337Y-98204468D01*
X59385825Y-98396199D01*
X59385824Y-98396202D01*
X59385823Y-98396206D01*
X59328040Y-98661832D01*
X59328039Y-98661839D01*
X59308645Y-98932998D01*
X59308645Y-98933001D01*
X55753500Y-98933001D01*
X55753500Y-93853001D01*
X59309147Y-93853001D01*
X59328536Y-94124090D01*
X59328537Y-94124097D01*
X59386305Y-94389654D01*
X59481285Y-94644306D01*
X59481287Y-94644310D01*
X59611532Y-94882835D01*
X59611537Y-94882843D01*
X59705321Y-95008123D01*
X59705322Y-95008124D01*
X60444274Y-94269172D01*
X60485501Y-94346934D01*
X60608714Y-94491992D01*
X60760230Y-94607171D01*
X60796568Y-94623983D01*
X60058874Y-95361676D01*
X60184163Y-95455466D01*
X60184164Y-95455467D01*
X60422689Y-95585712D01*
X60422693Y-95585714D01*
X60677345Y-95680694D01*
X60942902Y-95738462D01*
X60942909Y-95738463D01*
X61213999Y-95757853D01*
X61214001Y-95757853D01*
X61485090Y-95738463D01*
X61485097Y-95738462D01*
X61750654Y-95680694D01*
X62005306Y-95585714D01*
X62005310Y-95585712D01*
X62243844Y-95455462D01*
X62369123Y-95361677D01*
X62369124Y-95361676D01*
X61630826Y-94623378D01*
X61746650Y-94553689D01*
X61884825Y-94422804D01*
X61986861Y-94272309D01*
X62722676Y-95008124D01*
X62722677Y-95008123D01*
X62816462Y-94882844D01*
X62946712Y-94644310D01*
X62946714Y-94644306D01*
X63041694Y-94389654D01*
X63099462Y-94124097D01*
X63099463Y-94124090D01*
X63118853Y-93853001D01*
X63118853Y-93852998D01*
X63099463Y-93581909D01*
X63099462Y-93581902D01*
X63041694Y-93316345D01*
X62946714Y-93061693D01*
X62946712Y-93061689D01*
X62816467Y-92823164D01*
X62816466Y-92823163D01*
X62722676Y-92697874D01*
X61983724Y-93436826D01*
X61942499Y-93359066D01*
X61819286Y-93214008D01*
X61667770Y-93098829D01*
X61631430Y-93082016D01*
X62369124Y-92344322D01*
X62369123Y-92344321D01*
X62243843Y-92250537D01*
X62243835Y-92250532D01*
X62005310Y-92120287D01*
X62005306Y-92120285D01*
X61750654Y-92025305D01*
X61485097Y-91967537D01*
X61485090Y-91967536D01*
X61214001Y-91948147D01*
X61213999Y-91948147D01*
X60942909Y-91967536D01*
X60942902Y-91967537D01*
X60677345Y-92025305D01*
X60422693Y-92120285D01*
X60422689Y-92120287D01*
X60184164Y-92250532D01*
X60184156Y-92250537D01*
X60058875Y-92344321D01*
X60058874Y-92344322D01*
X60797173Y-93082621D01*
X60681350Y-93152311D01*
X60543175Y-93283196D01*
X60441138Y-93433690D01*
X59705322Y-92697874D01*
X59705321Y-92697875D01*
X59611537Y-92823156D01*
X59611532Y-92823164D01*
X59481287Y-93061689D01*
X59481285Y-93061693D01*
X59386305Y-93316345D01*
X59328537Y-93581902D01*
X59328536Y-93581909D01*
X59309147Y-93852998D01*
X59309147Y-93853001D01*
X55753500Y-93853001D01*
X55753500Y-88773001D01*
X59308645Y-88773001D01*
X59328039Y-89044160D01*
X59328040Y-89044167D01*
X59385823Y-89309793D01*
X59385825Y-89309801D01*
X59462330Y-89514920D01*
X59480830Y-89564519D01*
X59611109Y-89803107D01*
X59611110Y-89803108D01*
X59611113Y-89803113D01*
X59774029Y-90020742D01*
X59774033Y-90020746D01*
X59774038Y-90020752D01*
X59966247Y-90212961D01*
X59966253Y-90212966D01*
X59966258Y-90212971D01*
X60183887Y-90375887D01*
X60183891Y-90375889D01*
X60183892Y-90375890D01*
X60422481Y-90506169D01*
X60422480Y-90506169D01*
X60422484Y-90506170D01*
X60422487Y-90506172D01*
X60677199Y-90601175D01*
X60942840Y-90658961D01*
X61194605Y-90676967D01*
X61213999Y-90678355D01*
X61214000Y-90678355D01*
X61214001Y-90678355D01*
X61232100Y-90677060D01*
X61485160Y-90658961D01*
X61750801Y-90601175D01*
X62005513Y-90506172D01*
X62005517Y-90506169D01*
X62005519Y-90506169D01*
X62124813Y-90441029D01*
X62244113Y-90375887D01*
X62461742Y-90212971D01*
X62653971Y-90020742D01*
X62816887Y-89803113D01*
X62947172Y-89564513D01*
X63042175Y-89309801D01*
X63099961Y-89044160D01*
X63119355Y-88773000D01*
X63099961Y-88501840D01*
X63042175Y-88236199D01*
X62947172Y-87981487D01*
X62947170Y-87981484D01*
X62947169Y-87981480D01*
X62816890Y-87742892D01*
X62816889Y-87742891D01*
X62816887Y-87742887D01*
X62653971Y-87525258D01*
X62653966Y-87525253D01*
X62653961Y-87525247D01*
X62461752Y-87333038D01*
X62461746Y-87333033D01*
X62461742Y-87333029D01*
X62244113Y-87170113D01*
X62244108Y-87170110D01*
X62244107Y-87170109D01*
X62005518Y-87039830D01*
X62005519Y-87039830D01*
X61955920Y-87021330D01*
X61750801Y-86944825D01*
X61750794Y-86944823D01*
X61750793Y-86944823D01*
X61668144Y-86926844D01*
X75562000Y-86926844D01*
X75568401Y-86986372D01*
X75568403Y-86986379D01*
X75618645Y-87121086D01*
X75618649Y-87121093D01*
X75704809Y-87236187D01*
X75704812Y-87236190D01*
X75819906Y-87322350D01*
X75819913Y-87322354D01*
X75954620Y-87372596D01*
X75954627Y-87372598D01*
X76014155Y-87378999D01*
X76014172Y-87379000D01*
X76712000Y-87379000D01*
X76712000Y-86353189D01*
X76764547Y-86389016D01*
X76894173Y-86429000D01*
X76995724Y-86429000D01*
X77096138Y-86413865D01*
X77212000Y-86358068D01*
X77212000Y-87379000D01*
X77909828Y-87379000D01*
X77909844Y-87378999D01*
X77969372Y-87372598D01*
X77969379Y-87372596D01*
X78104086Y-87322354D01*
X78104093Y-87322350D01*
X78219187Y-87236190D01*
X78219190Y-87236187D01*
X78305350Y-87121093D01*
X78305355Y-87121084D01*
X78334075Y-87044081D01*
X78375945Y-86988147D01*
X78441409Y-86963729D01*
X78509682Y-86978580D01*
X78541484Y-87003428D01*
X78550216Y-87012913D01*
X78550219Y-87012915D01*
X78550222Y-87012918D01*
X78733365Y-87155464D01*
X78733371Y-87155468D01*
X78733374Y-87155470D01*
X78937497Y-87265936D01*
X79051487Y-87305068D01*
X79157015Y-87341297D01*
X79157017Y-87341297D01*
X79157019Y-87341298D01*
X79385951Y-87379500D01*
X79385952Y-87379500D01*
X79618048Y-87379500D01*
X79618049Y-87379500D01*
X79846981Y-87341298D01*
X80066503Y-87265936D01*
X80270626Y-87155470D01*
X80453784Y-87012913D01*
X80610979Y-86842153D01*
X80737924Y-86647849D01*
X80831157Y-86435300D01*
X80888134Y-86210305D01*
X80893524Y-86145260D01*
X80907300Y-85979006D01*
X80907300Y-85978993D01*
X80888135Y-85747702D01*
X80888133Y-85747691D01*
X80831157Y-85522699D01*
X80737924Y-85310151D01*
X80610983Y-85115852D01*
X80610980Y-85115849D01*
X80610979Y-85115847D01*
X80453784Y-84945087D01*
X80453779Y-84945083D01*
X80453777Y-84945081D01*
X80270634Y-84802535D01*
X80270628Y-84802531D01*
X80066504Y-84692064D01*
X80066495Y-84692061D01*
X79846984Y-84616702D01*
X79659404Y-84585401D01*
X79618049Y-84578500D01*
X79385951Y-84578500D01*
X79344596Y-84585401D01*
X79157015Y-84616702D01*
X78937504Y-84692061D01*
X78937495Y-84692064D01*
X78733371Y-84802531D01*
X78733365Y-84802535D01*
X78550222Y-84945081D01*
X78550215Y-84945087D01*
X78541484Y-84954572D01*
X78481595Y-84990561D01*
X78411757Y-84988458D01*
X78354143Y-84948932D01*
X78334075Y-84913918D01*
X78305355Y-84836915D01*
X78305350Y-84836906D01*
X78219190Y-84721812D01*
X78219187Y-84721809D01*
X78104093Y-84635649D01*
X78104086Y-84635645D01*
X77969379Y-84585403D01*
X77969372Y-84585401D01*
X77909844Y-84579000D01*
X77212000Y-84579000D01*
X77212000Y-85604810D01*
X77159453Y-85568984D01*
X77029827Y-85529000D01*
X76928276Y-85529000D01*
X76827862Y-85544135D01*
X76712000Y-85599931D01*
X76712000Y-84579000D01*
X76014155Y-84579000D01*
X75954627Y-84585401D01*
X75954620Y-84585403D01*
X75819913Y-84635645D01*
X75819906Y-84635649D01*
X75704812Y-84721809D01*
X75704809Y-84721812D01*
X75618649Y-84836906D01*
X75618645Y-84836913D01*
X75568403Y-84971620D01*
X75568401Y-84971627D01*
X75562000Y-85031155D01*
X75562000Y-85729000D01*
X76586722Y-85729000D01*
X76538375Y-85812740D01*
X76508190Y-85944992D01*
X76518327Y-86080265D01*
X76567887Y-86206541D01*
X76585797Y-86229000D01*
X75562000Y-86229000D01*
X75562000Y-86926844D01*
X61668144Y-86926844D01*
X61485167Y-86887040D01*
X61485160Y-86887039D01*
X61214001Y-86867645D01*
X61213999Y-86867645D01*
X60942839Y-86887039D01*
X60942832Y-86887040D01*
X60677206Y-86944823D01*
X60677202Y-86944824D01*
X60677199Y-86944825D01*
X60586699Y-86978580D01*
X60422480Y-87039830D01*
X60183892Y-87170109D01*
X60183891Y-87170110D01*
X59966259Y-87333028D01*
X59966247Y-87333038D01*
X59774038Y-87525247D01*
X59774028Y-87525259D01*
X59611110Y-87742891D01*
X59611109Y-87742892D01*
X59480830Y-87981480D01*
X59433326Y-88108843D01*
X59385825Y-88236199D01*
X59385824Y-88236202D01*
X59385823Y-88236206D01*
X59328040Y-88501832D01*
X59328039Y-88501839D01*
X59308645Y-88772998D01*
X59308645Y-88773001D01*
X55753500Y-88773001D01*
X55753500Y-83693001D01*
X59309147Y-83693001D01*
X59328536Y-83964090D01*
X59328537Y-83964097D01*
X59386305Y-84229654D01*
X59481285Y-84484306D01*
X59481287Y-84484310D01*
X59611532Y-84722835D01*
X59611537Y-84722843D01*
X59705321Y-84848123D01*
X59705322Y-84848124D01*
X60444274Y-84109172D01*
X60485501Y-84186934D01*
X60608714Y-84331992D01*
X60760230Y-84447171D01*
X60796568Y-84463983D01*
X60058874Y-85201676D01*
X60184163Y-85295466D01*
X60184164Y-85295467D01*
X60422689Y-85425712D01*
X60422693Y-85425714D01*
X60677345Y-85520694D01*
X60942902Y-85578462D01*
X60942909Y-85578463D01*
X61213999Y-85597853D01*
X61214001Y-85597853D01*
X61485090Y-85578463D01*
X61485097Y-85578462D01*
X61750654Y-85520694D01*
X62005306Y-85425714D01*
X62005310Y-85425712D01*
X62243844Y-85295462D01*
X62369123Y-85201677D01*
X62369124Y-85201676D01*
X61630826Y-84463378D01*
X61746650Y-84393689D01*
X61884825Y-84262804D01*
X61986861Y-84112309D01*
X62722676Y-84848124D01*
X62722677Y-84848123D01*
X62816462Y-84722844D01*
X62930585Y-84513844D01*
X94739000Y-84513844D01*
X94745401Y-84573372D01*
X94745403Y-84573379D01*
X94795645Y-84708086D01*
X94795649Y-84708093D01*
X94881809Y-84823187D01*
X94881812Y-84823190D01*
X94996906Y-84909350D01*
X94996913Y-84909354D01*
X95131620Y-84959596D01*
X95131627Y-84959598D01*
X95191155Y-84965999D01*
X95191172Y-84966000D01*
X95889000Y-84966000D01*
X95889000Y-83940189D01*
X95941547Y-83976016D01*
X96071173Y-84016000D01*
X96172724Y-84016000D01*
X96273138Y-84000865D01*
X96389000Y-83945068D01*
X96389000Y-84966000D01*
X97086828Y-84966000D01*
X97086844Y-84965999D01*
X97146372Y-84959598D01*
X97146379Y-84959596D01*
X97281086Y-84909354D01*
X97281093Y-84909350D01*
X97396187Y-84823190D01*
X97396190Y-84823187D01*
X97482350Y-84708093D01*
X97482355Y-84708084D01*
X97511075Y-84631081D01*
X97552945Y-84575147D01*
X97618409Y-84550729D01*
X97686682Y-84565580D01*
X97718484Y-84590428D01*
X97727216Y-84599913D01*
X97727219Y-84599915D01*
X97727222Y-84599918D01*
X97910365Y-84742464D01*
X97910371Y-84742468D01*
X97910374Y-84742470D01*
X98114497Y-84852936D01*
X98228487Y-84892068D01*
X98334015Y-84928297D01*
X98334017Y-84928297D01*
X98334019Y-84928298D01*
X98562951Y-84966500D01*
X98562952Y-84966500D01*
X98795048Y-84966500D01*
X98795049Y-84966500D01*
X99023981Y-84928298D01*
X99243503Y-84852936D01*
X99447626Y-84742470D01*
X99474172Y-84721809D01*
X99609213Y-84616702D01*
X99630784Y-84599913D01*
X99710016Y-84513844D01*
X105280000Y-84513844D01*
X105286401Y-84573372D01*
X105286403Y-84573379D01*
X105336645Y-84708086D01*
X105336649Y-84708093D01*
X105422809Y-84823187D01*
X105422812Y-84823190D01*
X105537906Y-84909350D01*
X105537913Y-84909354D01*
X105672620Y-84959596D01*
X105672627Y-84959598D01*
X105732155Y-84965999D01*
X105732172Y-84966000D01*
X106430000Y-84966000D01*
X106430000Y-83940189D01*
X106482547Y-83976016D01*
X106612173Y-84016000D01*
X106713724Y-84016000D01*
X106814138Y-84000865D01*
X106930000Y-83945068D01*
X106930000Y-84966000D01*
X107627828Y-84966000D01*
X107627844Y-84965999D01*
X107687372Y-84959598D01*
X107687379Y-84959596D01*
X107822086Y-84909354D01*
X107822093Y-84909350D01*
X107937187Y-84823190D01*
X107937190Y-84823187D01*
X108023350Y-84708093D01*
X108023355Y-84708084D01*
X108052075Y-84631081D01*
X108093945Y-84575147D01*
X108159409Y-84550729D01*
X108227682Y-84565580D01*
X108259484Y-84590428D01*
X108268216Y-84599913D01*
X108268219Y-84599915D01*
X108268222Y-84599918D01*
X108451365Y-84742464D01*
X108451371Y-84742468D01*
X108451374Y-84742470D01*
X108655497Y-84852936D01*
X108769487Y-84892068D01*
X108875015Y-84928297D01*
X108875017Y-84928297D01*
X108875019Y-84928298D01*
X109103951Y-84966500D01*
X109103952Y-84966500D01*
X109336048Y-84966500D01*
X109336049Y-84966500D01*
X109564981Y-84928298D01*
X109784503Y-84852936D01*
X109988626Y-84742470D01*
X110015172Y-84721809D01*
X110150213Y-84616702D01*
X110171784Y-84599913D01*
X110328979Y-84429153D01*
X110455924Y-84234849D01*
X110549157Y-84022300D01*
X110606134Y-83797305D01*
X110606446Y-83793541D01*
X110625300Y-83566006D01*
X110625300Y-83565993D01*
X110606135Y-83334702D01*
X110606133Y-83334691D01*
X110549157Y-83109699D01*
X110455924Y-82897151D01*
X110328983Y-82702852D01*
X110328980Y-82702849D01*
X110328979Y-82702847D01*
X110171784Y-82532087D01*
X110171779Y-82532083D01*
X110171777Y-82532081D01*
X109988634Y-82389535D01*
X109988628Y-82389531D01*
X109784504Y-82279064D01*
X109784495Y-82279061D01*
X109564984Y-82203702D01*
X109377404Y-82172401D01*
X109336049Y-82165500D01*
X109103951Y-82165500D01*
X109062596Y-82172401D01*
X108875015Y-82203702D01*
X108655504Y-82279061D01*
X108655495Y-82279064D01*
X108451371Y-82389531D01*
X108451365Y-82389535D01*
X108268222Y-82532081D01*
X108268215Y-82532087D01*
X108259484Y-82541572D01*
X108199595Y-82577561D01*
X108129757Y-82575458D01*
X108072143Y-82535932D01*
X108052075Y-82500918D01*
X108023355Y-82423915D01*
X108023350Y-82423906D01*
X107937190Y-82308812D01*
X107937187Y-82308809D01*
X107822093Y-82222649D01*
X107822086Y-82222645D01*
X107687379Y-82172403D01*
X107687372Y-82172401D01*
X107627844Y-82166000D01*
X106930000Y-82166000D01*
X106930000Y-83191810D01*
X106877453Y-83155984D01*
X106747827Y-83116000D01*
X106646276Y-83116000D01*
X106545862Y-83131135D01*
X106430000Y-83186931D01*
X106430000Y-82166000D01*
X105732155Y-82166000D01*
X105672627Y-82172401D01*
X105672620Y-82172403D01*
X105537913Y-82222645D01*
X105537906Y-82222649D01*
X105422812Y-82308809D01*
X105422809Y-82308812D01*
X105336649Y-82423906D01*
X105336645Y-82423913D01*
X105286403Y-82558620D01*
X105286401Y-82558627D01*
X105280000Y-82618155D01*
X105280000Y-83316000D01*
X106304722Y-83316000D01*
X106256375Y-83399740D01*
X106226190Y-83531992D01*
X106236327Y-83667265D01*
X106285887Y-83793541D01*
X106303797Y-83816000D01*
X105280000Y-83816000D01*
X105280000Y-84513844D01*
X99710016Y-84513844D01*
X99787979Y-84429153D01*
X99914924Y-84234849D01*
X100008157Y-84022300D01*
X100065134Y-83797305D01*
X100065446Y-83793541D01*
X100084300Y-83566006D01*
X100084300Y-83565993D01*
X100065135Y-83334702D01*
X100065133Y-83334691D01*
X100008157Y-83109699D01*
X99914924Y-82897151D01*
X99787983Y-82702852D01*
X99787980Y-82702849D01*
X99787979Y-82702847D01*
X99630784Y-82532087D01*
X99630779Y-82532083D01*
X99630777Y-82532081D01*
X99447634Y-82389535D01*
X99447628Y-82389531D01*
X99243504Y-82279064D01*
X99243495Y-82279061D01*
X99023984Y-82203702D01*
X98836404Y-82172401D01*
X98795049Y-82165500D01*
X98562951Y-82165500D01*
X98521596Y-82172401D01*
X98334015Y-82203702D01*
X98114504Y-82279061D01*
X98114495Y-82279064D01*
X97910371Y-82389531D01*
X97910365Y-82389535D01*
X97727222Y-82532081D01*
X97727215Y-82532087D01*
X97718484Y-82541572D01*
X97658595Y-82577561D01*
X97588757Y-82575458D01*
X97531143Y-82535932D01*
X97511075Y-82500918D01*
X97482355Y-82423915D01*
X97482350Y-82423906D01*
X97396190Y-82308812D01*
X97396187Y-82308809D01*
X97281093Y-82222649D01*
X97281086Y-82222645D01*
X97146379Y-82172403D01*
X97146372Y-82172401D01*
X97086844Y-82166000D01*
X96389000Y-82166000D01*
X96389000Y-83191810D01*
X96336453Y-83155984D01*
X96206827Y-83116000D01*
X96105276Y-83116000D01*
X96004862Y-83131135D01*
X95889000Y-83186931D01*
X95889000Y-82166000D01*
X95191155Y-82166000D01*
X95131627Y-82172401D01*
X95131620Y-82172403D01*
X94996913Y-82222645D01*
X94996906Y-82222649D01*
X94881812Y-82308809D01*
X94881809Y-82308812D01*
X94795649Y-82423906D01*
X94795645Y-82423913D01*
X94745403Y-82558620D01*
X94745401Y-82558627D01*
X94739000Y-82618155D01*
X94739000Y-83316000D01*
X95763722Y-83316000D01*
X95715375Y-83399740D01*
X95685190Y-83531992D01*
X95695327Y-83667265D01*
X95744887Y-83793541D01*
X95762797Y-83816000D01*
X94739000Y-83816000D01*
X94739000Y-84513844D01*
X62930585Y-84513844D01*
X62946712Y-84484310D01*
X62946714Y-84484306D01*
X63041694Y-84229654D01*
X63099462Y-83964097D01*
X63099463Y-83964090D01*
X63118853Y-83693001D01*
X63118853Y-83692998D01*
X63099463Y-83421909D01*
X63099462Y-83421902D01*
X63041694Y-83156345D01*
X62946714Y-82901693D01*
X62946712Y-82901689D01*
X62816467Y-82663164D01*
X62816466Y-82663163D01*
X62722676Y-82537874D01*
X61983724Y-83276826D01*
X61942499Y-83199066D01*
X61819286Y-83054008D01*
X61667770Y-82938829D01*
X61631430Y-82922016D01*
X62369124Y-82184322D01*
X62369123Y-82184321D01*
X62243843Y-82090537D01*
X62243835Y-82090532D01*
X62005310Y-81960287D01*
X62005306Y-81960285D01*
X61750654Y-81865305D01*
X61485097Y-81807537D01*
X61485090Y-81807536D01*
X61214001Y-81788147D01*
X61213999Y-81788147D01*
X60942909Y-81807536D01*
X60942902Y-81807537D01*
X60677345Y-81865305D01*
X60422693Y-81960285D01*
X60422689Y-81960287D01*
X60184164Y-82090532D01*
X60184156Y-82090537D01*
X60058875Y-82184321D01*
X60058874Y-82184322D01*
X60797173Y-82922621D01*
X60681350Y-82992311D01*
X60543175Y-83123196D01*
X60441138Y-83273690D01*
X59705322Y-82537874D01*
X59705321Y-82537875D01*
X59611537Y-82663156D01*
X59611532Y-82663164D01*
X59481287Y-82901689D01*
X59481285Y-82901693D01*
X59386305Y-83156345D01*
X59328537Y-83421902D01*
X59328536Y-83421909D01*
X59309147Y-83692998D01*
X59309147Y-83693001D01*
X55753500Y-83693001D01*
X55753500Y-80060870D01*
X59313500Y-80060870D01*
X59313501Y-80060876D01*
X59319908Y-80120483D01*
X59370202Y-80255328D01*
X59370206Y-80255335D01*
X59456452Y-80370544D01*
X59456455Y-80370547D01*
X59571664Y-80456793D01*
X59571671Y-80456797D01*
X59706517Y-80507091D01*
X59706516Y-80507091D01*
X59713444Y-80507835D01*
X59766127Y-80513500D01*
X62661872Y-80513499D01*
X62721483Y-80507091D01*
X62856331Y-80456796D01*
X62971546Y-80370546D01*
X63057796Y-80255331D01*
X63108091Y-80120483D01*
X63114500Y-80060873D01*
X63114499Y-77165128D01*
X63108091Y-77105517D01*
X63057796Y-76970669D01*
X63057795Y-76970668D01*
X63057793Y-76970664D01*
X62971547Y-76855455D01*
X62971544Y-76855452D01*
X62856335Y-76769206D01*
X62856328Y-76769202D01*
X62721482Y-76718908D01*
X62721483Y-76718908D01*
X62661883Y-76712501D01*
X62661881Y-76712500D01*
X62661873Y-76712500D01*
X62661864Y-76712500D01*
X59766129Y-76712500D01*
X59766123Y-76712501D01*
X59706516Y-76718908D01*
X59571671Y-76769202D01*
X59571664Y-76769206D01*
X59456455Y-76855452D01*
X59456452Y-76855455D01*
X59370206Y-76970664D01*
X59370202Y-76970671D01*
X59319908Y-77105517D01*
X59313501Y-77165116D01*
X59313501Y-77165123D01*
X59313500Y-77165135D01*
X59313500Y-80060870D01*
X55753500Y-80060870D01*
X55753500Y-72390001D01*
X59781532Y-72390001D01*
X59801364Y-72616686D01*
X59801366Y-72616697D01*
X59860258Y-72836488D01*
X59860261Y-72836497D01*
X59956431Y-73042732D01*
X59956432Y-73042734D01*
X60086954Y-73229141D01*
X60247858Y-73390045D01*
X60247861Y-73390047D01*
X60434266Y-73520568D01*
X60640504Y-73616739D01*
X60860308Y-73675635D01*
X61022230Y-73689801D01*
X61086998Y-73695468D01*
X61087000Y-73695468D01*
X61087002Y-73695468D01*
X61143807Y-73690498D01*
X61313692Y-73675635D01*
X61533496Y-73616739D01*
X61739734Y-73520568D01*
X61926139Y-73390047D01*
X62087047Y-73229139D01*
X62217568Y-73042734D01*
X62244618Y-72984724D01*
X62290790Y-72932285D01*
X62357983Y-72913133D01*
X62424865Y-72933348D01*
X62469382Y-72984725D01*
X62496429Y-73042728D01*
X62496432Y-73042734D01*
X62626954Y-73229141D01*
X62787858Y-73390045D01*
X62787861Y-73390047D01*
X62974266Y-73520568D01*
X63180504Y-73616739D01*
X63400308Y-73675635D01*
X63562230Y-73689801D01*
X63626998Y-73695468D01*
X63627000Y-73695468D01*
X63627002Y-73695468D01*
X63683807Y-73690498D01*
X63853692Y-73675635D01*
X64073496Y-73616739D01*
X64279734Y-73520568D01*
X64466139Y-73390047D01*
X64627047Y-73229139D01*
X64757568Y-73042734D01*
X64784618Y-72984724D01*
X64830790Y-72932285D01*
X64897983Y-72913133D01*
X64964865Y-72933348D01*
X65009382Y-72984725D01*
X65036429Y-73042728D01*
X65036432Y-73042734D01*
X65166954Y-73229141D01*
X65327858Y-73390045D01*
X65327861Y-73390047D01*
X65514266Y-73520568D01*
X65720504Y-73616739D01*
X65940308Y-73675635D01*
X66102230Y-73689801D01*
X66166998Y-73695468D01*
X66167000Y-73695468D01*
X66167002Y-73695468D01*
X66223807Y-73690498D01*
X66393692Y-73675635D01*
X66613496Y-73616739D01*
X66819734Y-73520568D01*
X67006139Y-73390047D01*
X67167047Y-73229139D01*
X67297568Y-73042734D01*
X67324618Y-72984724D01*
X67370790Y-72932285D01*
X67437983Y-72913133D01*
X67504865Y-72933348D01*
X67549382Y-72984725D01*
X67576429Y-73042728D01*
X67576432Y-73042734D01*
X67706954Y-73229141D01*
X67867858Y-73390045D01*
X67867861Y-73390047D01*
X68054266Y-73520568D01*
X68260504Y-73616739D01*
X68480308Y-73675635D01*
X68642230Y-73689801D01*
X68706998Y-73695468D01*
X68707000Y-73695468D01*
X68707002Y-73695468D01*
X68763807Y-73690498D01*
X68933692Y-73675635D01*
X69153496Y-73616739D01*
X69359734Y-73520568D01*
X69546139Y-73390047D01*
X69707047Y-73229139D01*
X69837568Y-73042734D01*
X69864618Y-72984724D01*
X69910790Y-72932285D01*
X69977983Y-72913133D01*
X70044865Y-72933348D01*
X70089382Y-72984725D01*
X70116429Y-73042728D01*
X70116432Y-73042734D01*
X70246954Y-73229141D01*
X70407858Y-73390045D01*
X70407861Y-73390047D01*
X70594266Y-73520568D01*
X70800504Y-73616739D01*
X71020308Y-73675635D01*
X71182230Y-73689801D01*
X71246998Y-73695468D01*
X71247000Y-73695468D01*
X71247002Y-73695468D01*
X71303807Y-73690498D01*
X71473692Y-73675635D01*
X71693496Y-73616739D01*
X71899734Y-73520568D01*
X72086139Y-73390047D01*
X72247047Y-73229139D01*
X72377568Y-73042734D01*
X72404618Y-72984724D01*
X72450790Y-72932285D01*
X72517983Y-72913133D01*
X72584865Y-72933348D01*
X72629382Y-72984725D01*
X72656429Y-73042728D01*
X72656432Y-73042734D01*
X72786954Y-73229141D01*
X72947858Y-73390045D01*
X72947861Y-73390047D01*
X73134266Y-73520568D01*
X73340504Y-73616739D01*
X73560308Y-73675635D01*
X73722230Y-73689801D01*
X73786998Y-73695468D01*
X73787000Y-73695468D01*
X73787002Y-73695468D01*
X73843807Y-73690498D01*
X74013692Y-73675635D01*
X74233496Y-73616739D01*
X74439734Y-73520568D01*
X74626139Y-73390047D01*
X74787047Y-73229139D01*
X74917568Y-73042734D01*
X75013739Y-72836496D01*
X75072635Y-72616692D01*
X75092468Y-72390001D01*
X77561532Y-72390001D01*
X77581364Y-72616686D01*
X77581366Y-72616697D01*
X77640258Y-72836488D01*
X77640261Y-72836497D01*
X77736431Y-73042732D01*
X77736432Y-73042734D01*
X77866954Y-73229141D01*
X78027858Y-73390045D01*
X78027861Y-73390047D01*
X78214266Y-73520568D01*
X78420504Y-73616739D01*
X78640308Y-73675635D01*
X78802230Y-73689801D01*
X78866998Y-73695468D01*
X78867000Y-73695468D01*
X78867002Y-73695468D01*
X78923807Y-73690498D01*
X79093692Y-73675635D01*
X79313496Y-73616739D01*
X79519734Y-73520568D01*
X79706139Y-73390047D01*
X79867047Y-73229139D01*
X79997568Y-73042734D01*
X80024895Y-72984129D01*
X80071064Y-72931695D01*
X80138257Y-72912542D01*
X80205139Y-72932757D01*
X80249657Y-72984133D01*
X80276865Y-73042482D01*
X80407342Y-73228820D01*
X80568179Y-73389657D01*
X80754517Y-73520134D01*
X80960673Y-73616265D01*
X80960682Y-73616269D01*
X81156999Y-73668872D01*
X81157000Y-73668871D01*
X81157000Y-72825501D01*
X81264685Y-72874680D01*
X81371237Y-72890000D01*
X81442763Y-72890000D01*
X81549315Y-72874680D01*
X81657000Y-72825501D01*
X81657000Y-73668872D01*
X81853317Y-73616269D01*
X81853326Y-73616265D01*
X82059482Y-73520134D01*
X82245820Y-73389657D01*
X82406657Y-73228820D01*
X82537134Y-73042481D01*
X82537135Y-73042479D01*
X82564618Y-72983543D01*
X82610790Y-72931103D01*
X82677983Y-72911951D01*
X82744864Y-72932166D01*
X82789382Y-72983543D01*
X82816864Y-73042479D01*
X82816865Y-73042481D01*
X82947342Y-73228820D01*
X83108179Y-73389657D01*
X83294517Y-73520134D01*
X83500673Y-73616265D01*
X83500682Y-73616269D01*
X83696999Y-73668872D01*
X83697000Y-73668871D01*
X83697000Y-72825501D01*
X83804685Y-72874680D01*
X83911237Y-72890000D01*
X83982763Y-72890000D01*
X84089315Y-72874680D01*
X84197000Y-72825501D01*
X84197000Y-73668872D01*
X84393317Y-73616269D01*
X84393326Y-73616265D01*
X84599482Y-73520134D01*
X84785820Y-73389657D01*
X84946657Y-73228820D01*
X85077132Y-73042484D01*
X85104341Y-72984134D01*
X85150513Y-72931695D01*
X85217707Y-72912542D01*
X85284588Y-72932757D01*
X85329106Y-72984133D01*
X85356431Y-73042732D01*
X85356432Y-73042734D01*
X85486954Y-73229141D01*
X85647858Y-73390045D01*
X85647861Y-73390047D01*
X85834266Y-73520568D01*
X86040504Y-73616739D01*
X86260308Y-73675635D01*
X86422230Y-73689801D01*
X86486998Y-73695468D01*
X86487000Y-73695468D01*
X86487002Y-73695468D01*
X86543807Y-73690498D01*
X86713692Y-73675635D01*
X86933496Y-73616739D01*
X87139734Y-73520568D01*
X87326139Y-73390047D01*
X87487047Y-73229139D01*
X87617568Y-73042734D01*
X87644618Y-72984724D01*
X87690790Y-72932285D01*
X87757983Y-72913133D01*
X87824865Y-72933348D01*
X87869382Y-72984725D01*
X87896429Y-73042728D01*
X87896432Y-73042734D01*
X88026954Y-73229141D01*
X88187858Y-73390045D01*
X88187861Y-73390047D01*
X88374266Y-73520568D01*
X88580504Y-73616739D01*
X88800308Y-73675635D01*
X88962230Y-73689801D01*
X89026998Y-73695468D01*
X89027000Y-73695468D01*
X89027002Y-73695468D01*
X89083807Y-73690498D01*
X89253692Y-73675635D01*
X89473496Y-73616739D01*
X89679734Y-73520568D01*
X89866139Y-73390047D01*
X90027047Y-73229139D01*
X90157568Y-73042734D01*
X90184618Y-72984724D01*
X90230790Y-72932285D01*
X90297983Y-72913133D01*
X90364865Y-72933348D01*
X90409382Y-72984725D01*
X90436429Y-73042728D01*
X90436432Y-73042734D01*
X90566954Y-73229141D01*
X90727858Y-73390045D01*
X90727861Y-73390047D01*
X90914266Y-73520568D01*
X91120504Y-73616739D01*
X91340308Y-73675635D01*
X91502230Y-73689801D01*
X91566998Y-73695468D01*
X91567000Y-73695468D01*
X91567002Y-73695468D01*
X91623807Y-73690498D01*
X91793692Y-73675635D01*
X92013496Y-73616739D01*
X92219734Y-73520568D01*
X92406139Y-73390047D01*
X92567047Y-73229139D01*
X92697568Y-73042734D01*
X92724618Y-72984724D01*
X92770790Y-72932285D01*
X92837983Y-72913133D01*
X92904865Y-72933348D01*
X92949382Y-72984725D01*
X92976429Y-73042728D01*
X92976432Y-73042734D01*
X93106954Y-73229141D01*
X93267858Y-73390045D01*
X93267861Y-73390047D01*
X93454266Y-73520568D01*
X93660504Y-73616739D01*
X93880308Y-73675635D01*
X94042230Y-73689801D01*
X94106998Y-73695468D01*
X94107000Y-73695468D01*
X94107002Y-73695468D01*
X94163807Y-73690498D01*
X94333692Y-73675635D01*
X94553496Y-73616739D01*
X94759734Y-73520568D01*
X94946139Y-73390047D01*
X95107047Y-73229139D01*
X95124272Y-73204539D01*
X95178848Y-73160913D01*
X95248346Y-73153718D01*
X95310701Y-73185239D01*
X95346116Y-73245468D01*
X95349138Y-73262406D01*
X95352908Y-73297483D01*
X95403202Y-73432328D01*
X95403206Y-73432335D01*
X95489452Y-73547544D01*
X95489455Y-73547547D01*
X95604664Y-73633793D01*
X95604671Y-73633797D01*
X95739517Y-73684091D01*
X95739516Y-73684091D01*
X95746444Y-73684835D01*
X95799127Y-73690500D01*
X97494872Y-73690499D01*
X97554483Y-73684091D01*
X97689331Y-73633796D01*
X97804546Y-73547546D01*
X97890796Y-73432331D01*
X97941091Y-73297483D01*
X97947500Y-73237873D01*
X97947499Y-71542128D01*
X97941091Y-71482517D01*
X97906567Y-71389954D01*
X97890797Y-71347671D01*
X97890793Y-71347664D01*
X97804547Y-71232455D01*
X97804544Y-71232452D01*
X97689335Y-71146206D01*
X97689328Y-71146202D01*
X97554482Y-71095908D01*
X97554483Y-71095908D01*
X97494883Y-71089501D01*
X97494881Y-71089500D01*
X97494873Y-71089500D01*
X97494864Y-71089500D01*
X95799129Y-71089500D01*
X95799123Y-71089501D01*
X95739516Y-71095908D01*
X95604671Y-71146202D01*
X95604664Y-71146206D01*
X95489455Y-71232452D01*
X95489452Y-71232455D01*
X95403206Y-71347664D01*
X95403202Y-71347671D01*
X95352908Y-71482516D01*
X95349137Y-71517596D01*
X95322398Y-71582146D01*
X95265006Y-71621994D01*
X95195180Y-71624487D01*
X95135092Y-71588834D01*
X95124273Y-71575462D01*
X95107045Y-71550858D01*
X94946141Y-71389954D01*
X94759734Y-71259432D01*
X94759732Y-71259431D01*
X94553497Y-71163261D01*
X94553488Y-71163258D01*
X94333697Y-71104366D01*
X94333693Y-71104365D01*
X94333692Y-71104365D01*
X94333691Y-71104364D01*
X94333686Y-71104364D01*
X94107002Y-71084532D01*
X94106998Y-71084532D01*
X93880313Y-71104364D01*
X93880302Y-71104366D01*
X93660511Y-71163258D01*
X93660502Y-71163261D01*
X93454267Y-71259431D01*
X93454265Y-71259432D01*
X93267858Y-71389954D01*
X93106954Y-71550858D01*
X92976432Y-71737265D01*
X92976431Y-71737267D01*
X92949382Y-71795275D01*
X92903209Y-71847714D01*
X92836016Y-71866866D01*
X92769135Y-71846650D01*
X92724618Y-71795275D01*
X92697686Y-71737520D01*
X92697568Y-71737266D01*
X92567047Y-71550861D01*
X92567045Y-71550858D01*
X92406141Y-71389954D01*
X92219734Y-71259432D01*
X92219732Y-71259431D01*
X92013497Y-71163261D01*
X92013488Y-71163258D01*
X91793697Y-71104366D01*
X91793693Y-71104365D01*
X91793692Y-71104365D01*
X91793691Y-71104364D01*
X91793686Y-71104364D01*
X91567002Y-71084532D01*
X91566998Y-71084532D01*
X91340313Y-71104364D01*
X91340302Y-71104366D01*
X91120511Y-71163258D01*
X91120502Y-71163261D01*
X90914267Y-71259431D01*
X90914265Y-71259432D01*
X90727858Y-71389954D01*
X90566954Y-71550858D01*
X90436432Y-71737265D01*
X90436431Y-71737267D01*
X90409382Y-71795275D01*
X90363209Y-71847714D01*
X90296016Y-71866866D01*
X90229135Y-71846650D01*
X90184618Y-71795275D01*
X90157686Y-71737520D01*
X90157568Y-71737266D01*
X90027047Y-71550861D01*
X90027045Y-71550858D01*
X89866141Y-71389954D01*
X89679734Y-71259432D01*
X89679732Y-71259431D01*
X89473497Y-71163261D01*
X89473488Y-71163258D01*
X89253697Y-71104366D01*
X89253693Y-71104365D01*
X89253692Y-71104365D01*
X89253691Y-71104364D01*
X89253686Y-71104364D01*
X89027002Y-71084532D01*
X89026998Y-71084532D01*
X88800313Y-71104364D01*
X88800302Y-71104366D01*
X88580511Y-71163258D01*
X88580502Y-71163261D01*
X88374267Y-71259431D01*
X88374265Y-71259432D01*
X88187858Y-71389954D01*
X88026954Y-71550858D01*
X87896432Y-71737265D01*
X87896431Y-71737267D01*
X87869382Y-71795275D01*
X87823209Y-71847714D01*
X87756016Y-71866866D01*
X87689135Y-71846650D01*
X87644618Y-71795275D01*
X87617686Y-71737520D01*
X87617568Y-71737266D01*
X87487047Y-71550861D01*
X87487045Y-71550858D01*
X87326141Y-71389954D01*
X87139734Y-71259432D01*
X87139732Y-71259431D01*
X86933497Y-71163261D01*
X86933488Y-71163258D01*
X86713697Y-71104366D01*
X86713693Y-71104365D01*
X86713692Y-71104365D01*
X86713691Y-71104364D01*
X86713686Y-71104364D01*
X86487002Y-71084532D01*
X86486998Y-71084532D01*
X86260313Y-71104364D01*
X86260302Y-71104366D01*
X86040511Y-71163258D01*
X86040502Y-71163261D01*
X85834267Y-71259431D01*
X85834265Y-71259432D01*
X85647858Y-71389954D01*
X85486954Y-71550858D01*
X85356433Y-71737264D01*
X85356432Y-71737266D01*
X85356315Y-71737518D01*
X85329106Y-71795867D01*
X85282933Y-71848306D01*
X85215739Y-71867457D01*
X85148858Y-71847241D01*
X85104342Y-71795865D01*
X85077135Y-71737520D01*
X85077134Y-71737518D01*
X84946657Y-71551179D01*
X84785820Y-71390342D01*
X84599482Y-71259865D01*
X84393328Y-71163734D01*
X84197000Y-71111127D01*
X84197000Y-71954498D01*
X84089315Y-71905320D01*
X83982763Y-71890000D01*
X83911237Y-71890000D01*
X83804685Y-71905320D01*
X83697000Y-71954498D01*
X83697000Y-71111127D01*
X83500671Y-71163734D01*
X83294517Y-71259865D01*
X83108179Y-71390342D01*
X82947342Y-71551179D01*
X82816865Y-71737517D01*
X82789382Y-71796457D01*
X82743210Y-71848896D01*
X82676016Y-71868048D01*
X82609135Y-71847832D01*
X82564618Y-71796457D01*
X82537134Y-71737517D01*
X82406657Y-71551179D01*
X82245820Y-71390342D01*
X82059482Y-71259865D01*
X81853328Y-71163734D01*
X81657000Y-71111127D01*
X81657000Y-71954498D01*
X81549315Y-71905320D01*
X81442763Y-71890000D01*
X81371237Y-71890000D01*
X81264685Y-71905320D01*
X81157000Y-71954498D01*
X81157000Y-71111127D01*
X80960671Y-71163734D01*
X80754517Y-71259865D01*
X80568179Y-71390342D01*
X80407342Y-71551179D01*
X80276867Y-71737515D01*
X80249657Y-71795867D01*
X80203484Y-71848306D01*
X80136290Y-71867457D01*
X80069409Y-71847241D01*
X80024893Y-71795865D01*
X79997685Y-71737518D01*
X79997568Y-71737266D01*
X79867047Y-71550861D01*
X79867045Y-71550858D01*
X79706141Y-71389954D01*
X79519734Y-71259432D01*
X79519732Y-71259431D01*
X79313497Y-71163261D01*
X79313488Y-71163258D01*
X79093697Y-71104366D01*
X79093693Y-71104365D01*
X79093692Y-71104365D01*
X79093691Y-71104364D01*
X79093686Y-71104364D01*
X78867002Y-71084532D01*
X78866998Y-71084532D01*
X78640313Y-71104364D01*
X78640302Y-71104366D01*
X78420511Y-71163258D01*
X78420502Y-71163261D01*
X78214267Y-71259431D01*
X78214265Y-71259432D01*
X78027858Y-71389954D01*
X77866954Y-71550858D01*
X77736432Y-71737265D01*
X77736431Y-71737267D01*
X77640261Y-71943502D01*
X77640258Y-71943511D01*
X77581366Y-72163302D01*
X77581364Y-72163313D01*
X77561532Y-72389998D01*
X77561532Y-72390001D01*
X75092468Y-72390001D01*
X75092468Y-72390000D01*
X75072635Y-72163308D01*
X75013739Y-71943504D01*
X74917568Y-71737266D01*
X74787047Y-71550861D01*
X74787045Y-71550858D01*
X74626141Y-71389954D01*
X74439734Y-71259432D01*
X74439732Y-71259431D01*
X74233497Y-71163261D01*
X74233488Y-71163258D01*
X74013697Y-71104366D01*
X74013693Y-71104365D01*
X74013692Y-71104365D01*
X74013691Y-71104364D01*
X74013686Y-71104364D01*
X73787002Y-71084532D01*
X73786998Y-71084532D01*
X73560313Y-71104364D01*
X73560302Y-71104366D01*
X73340511Y-71163258D01*
X73340502Y-71163261D01*
X73134267Y-71259431D01*
X73134265Y-71259432D01*
X72947858Y-71389954D01*
X72786954Y-71550858D01*
X72656432Y-71737265D01*
X72656431Y-71737267D01*
X72629382Y-71795275D01*
X72583209Y-71847714D01*
X72516016Y-71866866D01*
X72449135Y-71846650D01*
X72404618Y-71795275D01*
X72377686Y-71737520D01*
X72377568Y-71737266D01*
X72247047Y-71550861D01*
X72247045Y-71550858D01*
X72086141Y-71389954D01*
X71899734Y-71259432D01*
X71899732Y-71259431D01*
X71693497Y-71163261D01*
X71693488Y-71163258D01*
X71473697Y-71104366D01*
X71473693Y-71104365D01*
X71473692Y-71104365D01*
X71473691Y-71104364D01*
X71473686Y-71104364D01*
X71247002Y-71084532D01*
X71246998Y-71084532D01*
X71020313Y-71104364D01*
X71020302Y-71104366D01*
X70800511Y-71163258D01*
X70800502Y-71163261D01*
X70594267Y-71259431D01*
X70594265Y-71259432D01*
X70407858Y-71389954D01*
X70246954Y-71550858D01*
X70116432Y-71737265D01*
X70116431Y-71737267D01*
X70089382Y-71795275D01*
X70043209Y-71847714D01*
X69976016Y-71866866D01*
X69909135Y-71846650D01*
X69864618Y-71795275D01*
X69837686Y-71737520D01*
X69837568Y-71737266D01*
X69707047Y-71550861D01*
X69707045Y-71550858D01*
X69546141Y-71389954D01*
X69359734Y-71259432D01*
X69359732Y-71259431D01*
X69153497Y-71163261D01*
X69153488Y-71163258D01*
X68933697Y-71104366D01*
X68933693Y-71104365D01*
X68933692Y-71104365D01*
X68933691Y-71104364D01*
X68933686Y-71104364D01*
X68707002Y-71084532D01*
X68706998Y-71084532D01*
X68480313Y-71104364D01*
X68480302Y-71104366D01*
X68260511Y-71163258D01*
X68260502Y-71163261D01*
X68054267Y-71259431D01*
X68054265Y-71259432D01*
X67867858Y-71389954D01*
X67706954Y-71550858D01*
X67576432Y-71737265D01*
X67576431Y-71737267D01*
X67549382Y-71795275D01*
X67503209Y-71847714D01*
X67436016Y-71866866D01*
X67369135Y-71846650D01*
X67324618Y-71795275D01*
X67297686Y-71737520D01*
X67297568Y-71737266D01*
X67167047Y-71550861D01*
X67167045Y-71550858D01*
X67006141Y-71389954D01*
X66819734Y-71259432D01*
X66819732Y-71259431D01*
X66613497Y-71163261D01*
X66613488Y-71163258D01*
X66393697Y-71104366D01*
X66393693Y-71104365D01*
X66393692Y-71104365D01*
X66393691Y-71104364D01*
X66393686Y-71104364D01*
X66167002Y-71084532D01*
X66166998Y-71084532D01*
X65940313Y-71104364D01*
X65940302Y-71104366D01*
X65720511Y-71163258D01*
X65720502Y-71163261D01*
X65514267Y-71259431D01*
X65514265Y-71259432D01*
X65327858Y-71389954D01*
X65166954Y-71550858D01*
X65036432Y-71737265D01*
X65036431Y-71737267D01*
X65009382Y-71795275D01*
X64963209Y-71847714D01*
X64896016Y-71866866D01*
X64829135Y-71846650D01*
X64784618Y-71795275D01*
X64757686Y-71737520D01*
X64757568Y-71737266D01*
X64627047Y-71550861D01*
X64627045Y-71550858D01*
X64466141Y-71389954D01*
X64279734Y-71259432D01*
X64279732Y-71259431D01*
X64073497Y-71163261D01*
X64073488Y-71163258D01*
X63853697Y-71104366D01*
X63853693Y-71104365D01*
X63853692Y-71104365D01*
X63853691Y-71104364D01*
X63853686Y-71104364D01*
X63627002Y-71084532D01*
X63626998Y-71084532D01*
X63400313Y-71104364D01*
X63400302Y-71104366D01*
X63180511Y-71163258D01*
X63180502Y-71163261D01*
X62974267Y-71259431D01*
X62974265Y-71259432D01*
X62787858Y-71389954D01*
X62626954Y-71550858D01*
X62496432Y-71737265D01*
X62496431Y-71737267D01*
X62469382Y-71795275D01*
X62423209Y-71847714D01*
X62356016Y-71866866D01*
X62289135Y-71846650D01*
X62244618Y-71795275D01*
X62217686Y-71737520D01*
X62217568Y-71737266D01*
X62087047Y-71550861D01*
X62087045Y-71550858D01*
X61926141Y-71389954D01*
X61739734Y-71259432D01*
X61739732Y-71259431D01*
X61533497Y-71163261D01*
X61533488Y-71163258D01*
X61313697Y-71104366D01*
X61313693Y-71104365D01*
X61313692Y-71104365D01*
X61313691Y-71104364D01*
X61313686Y-71104364D01*
X61087002Y-71084532D01*
X61086998Y-71084532D01*
X60860313Y-71104364D01*
X60860302Y-71104366D01*
X60640511Y-71163258D01*
X60640502Y-71163261D01*
X60434267Y-71259431D01*
X60434265Y-71259432D01*
X60247858Y-71389954D01*
X60086954Y-71550858D01*
X59956432Y-71737265D01*
X59956431Y-71737267D01*
X59860261Y-71943502D01*
X59860258Y-71943511D01*
X59801366Y-72163302D01*
X59801364Y-72163313D01*
X59781532Y-72389998D01*
X59781532Y-72390001D01*
X55753500Y-72390001D01*
X55753500Y-69974500D01*
X55773185Y-69907461D01*
X55825989Y-69861706D01*
X55877500Y-69850500D01*
X124462500Y-69850500D01*
X124529539Y-69870185D01*
G37*
%TD.AperFunction*%
%TA.AperFunction,Conductor*%
G36*
X103199059Y-117866185D02*
G01*
X103241378Y-117912047D01*
X103298849Y-118019568D01*
X103298853Y-118019575D01*
X103423879Y-118171919D01*
X103576223Y-118296945D01*
X103576230Y-118296949D01*
X103659171Y-118341282D01*
X103709015Y-118390244D01*
X103724476Y-118458381D01*
X103719379Y-118486635D01*
X103661975Y-118675869D01*
X103642659Y-118872000D01*
X103661975Y-119068130D01*
X103711675Y-119231967D01*
X103712298Y-119301834D01*
X103675050Y-119360946D01*
X103611756Y-119390537D01*
X103560922Y-119387737D01*
X103473700Y-119364367D01*
X103473697Y-119364366D01*
X103473692Y-119364365D01*
X103473689Y-119364364D01*
X103473686Y-119364364D01*
X103247002Y-119344532D01*
X103246998Y-119344532D01*
X103020313Y-119364364D01*
X103020302Y-119364366D01*
X102800511Y-119423258D01*
X102800502Y-119423261D01*
X102594267Y-119519431D01*
X102594265Y-119519432D01*
X102407858Y-119649954D01*
X102246954Y-119810858D01*
X102116432Y-119997265D01*
X102116431Y-119997267D01*
X102089382Y-120055275D01*
X102043209Y-120107714D01*
X101976016Y-120126866D01*
X101909135Y-120106650D01*
X101864618Y-120055275D01*
X101837686Y-119997520D01*
X101837568Y-119997266D01*
X101707047Y-119810861D01*
X101707045Y-119810858D01*
X101546141Y-119649954D01*
X101359734Y-119519432D01*
X101359732Y-119519431D01*
X101153497Y-119423261D01*
X101153488Y-119423258D01*
X100933697Y-119364366D01*
X100933693Y-119364365D01*
X100933692Y-119364365D01*
X100933691Y-119364364D01*
X100933686Y-119364364D01*
X100707002Y-119344532D01*
X100706998Y-119344532D01*
X100480313Y-119364364D01*
X100480302Y-119364366D01*
X100260511Y-119423258D01*
X100260502Y-119423261D01*
X100054267Y-119519431D01*
X100054265Y-119519432D01*
X99867858Y-119649954D01*
X99706954Y-119810858D01*
X99576433Y-119997264D01*
X99576432Y-119997266D01*
X99576315Y-119997518D01*
X99549106Y-120055867D01*
X99502933Y-120108306D01*
X99435739Y-120127457D01*
X99368858Y-120107241D01*
X99324342Y-120055865D01*
X99297135Y-119997520D01*
X99297134Y-119997518D01*
X99166657Y-119811179D01*
X99005820Y-119650342D01*
X98819482Y-119519865D01*
X98613328Y-119423734D01*
X98417000Y-119371127D01*
X98417000Y-120214498D01*
X98309315Y-120165320D01*
X98202763Y-120150000D01*
X98131237Y-120150000D01*
X98024685Y-120165320D01*
X97917000Y-120214498D01*
X97917000Y-119371127D01*
X97720671Y-119423734D01*
X97514517Y-119519865D01*
X97328179Y-119650342D01*
X97167342Y-119811179D01*
X97036867Y-119997515D01*
X97009657Y-120055867D01*
X96963484Y-120108306D01*
X96896290Y-120127457D01*
X96829409Y-120107241D01*
X96784893Y-120055865D01*
X96757685Y-119997518D01*
X96757568Y-119997266D01*
X96627047Y-119810861D01*
X96627045Y-119810858D01*
X96466141Y-119649954D01*
X96279734Y-119519432D01*
X96279732Y-119519431D01*
X96073497Y-119423261D01*
X96073488Y-119423258D01*
X95853697Y-119364366D01*
X95853693Y-119364365D01*
X95853692Y-119364365D01*
X95853691Y-119364364D01*
X95853686Y-119364364D01*
X95627002Y-119344532D01*
X95626998Y-119344532D01*
X95400313Y-119364364D01*
X95400302Y-119364366D01*
X95180511Y-119423258D01*
X95180502Y-119423261D01*
X94974267Y-119519431D01*
X94974265Y-119519432D01*
X94787858Y-119649954D01*
X94626954Y-119810858D01*
X94496432Y-119997265D01*
X94496431Y-119997267D01*
X94469382Y-120055275D01*
X94423209Y-120107714D01*
X94356016Y-120126866D01*
X94289135Y-120106650D01*
X94244618Y-120055275D01*
X94217686Y-119997520D01*
X94217568Y-119997266D01*
X94087047Y-119810861D01*
X94087045Y-119810858D01*
X93926141Y-119649954D01*
X93739734Y-119519432D01*
X93739732Y-119519431D01*
X93533497Y-119423261D01*
X93533488Y-119423258D01*
X93313697Y-119364366D01*
X93313693Y-119364365D01*
X93313692Y-119364365D01*
X93313691Y-119364364D01*
X93313686Y-119364364D01*
X93087002Y-119344532D01*
X93086998Y-119344532D01*
X92860313Y-119364364D01*
X92860302Y-119364366D01*
X92640511Y-119423258D01*
X92640502Y-119423261D01*
X92434267Y-119519431D01*
X92434265Y-119519432D01*
X92247858Y-119649954D01*
X92086954Y-119810858D01*
X91956432Y-119997265D01*
X91956431Y-119997267D01*
X91929382Y-120055275D01*
X91883209Y-120107714D01*
X91816016Y-120126866D01*
X91749135Y-120106650D01*
X91704618Y-120055275D01*
X91677686Y-119997520D01*
X91677568Y-119997266D01*
X91547047Y-119810861D01*
X91547045Y-119810858D01*
X91386141Y-119649954D01*
X91199734Y-119519432D01*
X91199732Y-119519431D01*
X90993497Y-119423261D01*
X90993488Y-119423258D01*
X90773697Y-119364366D01*
X90773693Y-119364365D01*
X90773692Y-119364365D01*
X90773691Y-119364364D01*
X90773686Y-119364364D01*
X90547002Y-119344532D01*
X90546999Y-119344532D01*
X90320313Y-119364364D01*
X90320296Y-119364367D01*
X90251949Y-119382680D01*
X90182099Y-119381016D01*
X90132177Y-119350586D01*
X88909803Y-118128212D01*
X88899980Y-118115950D01*
X88899759Y-118116134D01*
X88894786Y-118110122D01*
X88845776Y-118064099D01*
X88842979Y-118061388D01*
X88839772Y-118058181D01*
X88806287Y-117996858D01*
X88811271Y-117927166D01*
X88853143Y-117871233D01*
X88918607Y-117846816D01*
X88927453Y-117846500D01*
X103132020Y-117846500D01*
X103199059Y-117866185D01*
G37*
%TD.AperFunction*%
%TA.AperFunction,Conductor*%
G36*
X78879735Y-117322185D02*
G01*
X78900377Y-117338819D01*
X79786376Y-118224819D01*
X79819861Y-118286142D01*
X79814877Y-118355834D01*
X79773005Y-118411767D01*
X79707541Y-118436184D01*
X79698695Y-118436500D01*
X77781304Y-118436500D01*
X77714265Y-118416815D01*
X77668510Y-118364011D01*
X77658566Y-118294853D01*
X77687591Y-118231297D01*
X77693623Y-118224819D01*
X78049870Y-117868573D01*
X78579624Y-117338819D01*
X78640947Y-117305334D01*
X78667305Y-117302500D01*
X78812696Y-117302500D01*
X78879735Y-117322185D01*
G37*
%TD.AperFunction*%
%TD*%
M02*
