%TF.GenerationSoftware,KiCad,Pcbnew,7.0.10*%
%TF.CreationDate,2024-04-13T12:41:34+02:00*%
%TF.ProjectId,jeopardy_pcb,6a656f70-6172-4647-995f-7063622e6b69,rev?*%
%TF.SameCoordinates,Original*%
%TF.FileFunction,Legend,Top*%
%TF.FilePolarity,Positive*%
%FSLAX46Y46*%
G04 Gerber Fmt 4.6, Leading zero omitted, Abs format (unit mm)*
G04 Created by KiCad (PCBNEW 7.0.10) date 2024-04-13 12:41:34*
%MOMM*%
%LPD*%
G01*
G04 APERTURE LIST*
%ADD10C,0.300000*%
%ADD11C,0.150000*%
%ADD12C,0.120000*%
G04 APERTURE END LIST*
D10*
X81159748Y-114911161D02*
X84731177Y-114911161D01*
X82588320Y-112768304D02*
X81159748Y-119196876D01*
X84254987Y-117054019D02*
X80683558Y-117054019D01*
X82826415Y-119196876D02*
X84254987Y-112768304D01*
X86397844Y-113244495D02*
X86397844Y-117292114D01*
X86397844Y-117292114D02*
X86635939Y-117768304D01*
X86635939Y-117768304D02*
X86874034Y-118006400D01*
X86874034Y-118006400D02*
X87350225Y-118244495D01*
X87350225Y-118244495D02*
X88302606Y-118244495D01*
X88302606Y-118244495D02*
X88778796Y-118006400D01*
X88778796Y-118006400D02*
X89016891Y-117768304D01*
X89016891Y-117768304D02*
X89254987Y-117292114D01*
X89254987Y-117292114D02*
X89254987Y-113244495D01*
X91635939Y-114911161D02*
X91635939Y-118244495D01*
X91635939Y-115387352D02*
X91874034Y-115149257D01*
X91874034Y-115149257D02*
X92350224Y-114911161D01*
X92350224Y-114911161D02*
X93064510Y-114911161D01*
X93064510Y-114911161D02*
X93540701Y-115149257D01*
X93540701Y-115149257D02*
X93778796Y-115625447D01*
X93778796Y-115625447D02*
X93778796Y-118244495D01*
X97826415Y-115625447D02*
X96159749Y-115625447D01*
X96159749Y-118244495D02*
X96159749Y-113244495D01*
X96159749Y-113244495D02*
X98540701Y-113244495D01*
X100445463Y-113244495D02*
X100445463Y-117292114D01*
X100445463Y-117292114D02*
X100683558Y-117768304D01*
X100683558Y-117768304D02*
X100921653Y-118006400D01*
X100921653Y-118006400D02*
X101397844Y-118244495D01*
X101397844Y-118244495D02*
X102350225Y-118244495D01*
X102350225Y-118244495D02*
X102826415Y-118006400D01*
X102826415Y-118006400D02*
X103064510Y-117768304D01*
X103064510Y-117768304D02*
X103302606Y-117292114D01*
X103302606Y-117292114D02*
X103302606Y-113244495D01*
X108540701Y-117768304D02*
X108302605Y-118006400D01*
X108302605Y-118006400D02*
X107588320Y-118244495D01*
X107588320Y-118244495D02*
X107112129Y-118244495D01*
X107112129Y-118244495D02*
X106397843Y-118006400D01*
X106397843Y-118006400D02*
X105921653Y-117530209D01*
X105921653Y-117530209D02*
X105683558Y-117054019D01*
X105683558Y-117054019D02*
X105445462Y-116101638D01*
X105445462Y-116101638D02*
X105445462Y-115387352D01*
X105445462Y-115387352D02*
X105683558Y-114434971D01*
X105683558Y-114434971D02*
X105921653Y-113958780D01*
X105921653Y-113958780D02*
X106397843Y-113482590D01*
X106397843Y-113482590D02*
X107112129Y-113244495D01*
X107112129Y-113244495D02*
X107588320Y-113244495D01*
X107588320Y-113244495D02*
X108302605Y-113482590D01*
X108302605Y-113482590D02*
X108540701Y-113720685D01*
X110683558Y-118244495D02*
X110683558Y-113244495D01*
X113540701Y-118244495D02*
X111397843Y-115387352D01*
X113540701Y-113244495D02*
X110683558Y-116101638D01*
X115445462Y-113720685D02*
X115683558Y-113482590D01*
X115683558Y-113482590D02*
X116159748Y-113244495D01*
X116159748Y-113244495D02*
X117350224Y-113244495D01*
X117350224Y-113244495D02*
X117826415Y-113482590D01*
X117826415Y-113482590D02*
X118064510Y-113720685D01*
X118064510Y-113720685D02*
X118302605Y-114196876D01*
X118302605Y-114196876D02*
X118302605Y-114673066D01*
X118302605Y-114673066D02*
X118064510Y-115387352D01*
X118064510Y-115387352D02*
X115207367Y-118244495D01*
X115207367Y-118244495D02*
X118302605Y-118244495D01*
X122588320Y-114911161D02*
X122588320Y-118244495D01*
X121397844Y-113006400D02*
X120207367Y-116577828D01*
X120207367Y-116577828D02*
X123302606Y-116577828D01*
D11*
X99515819Y-100750666D02*
X99039628Y-101083999D01*
X99515819Y-101322094D02*
X98515819Y-101322094D01*
X98515819Y-101322094D02*
X98515819Y-100941142D01*
X98515819Y-100941142D02*
X98563438Y-100845904D01*
X98563438Y-100845904D02*
X98611057Y-100798285D01*
X98611057Y-100798285D02*
X98706295Y-100750666D01*
X98706295Y-100750666D02*
X98849152Y-100750666D01*
X98849152Y-100750666D02*
X98944390Y-100798285D01*
X98944390Y-100798285D02*
X98992009Y-100845904D01*
X98992009Y-100845904D02*
X99039628Y-100941142D01*
X99039628Y-100941142D02*
X99039628Y-101322094D01*
X99515819Y-100274475D02*
X99515819Y-100083999D01*
X99515819Y-100083999D02*
X99468200Y-99988761D01*
X99468200Y-99988761D02*
X99420580Y-99941142D01*
X99420580Y-99941142D02*
X99277723Y-99845904D01*
X99277723Y-99845904D02*
X99087247Y-99798285D01*
X99087247Y-99798285D02*
X98706295Y-99798285D01*
X98706295Y-99798285D02*
X98611057Y-99845904D01*
X98611057Y-99845904D02*
X98563438Y-99893523D01*
X98563438Y-99893523D02*
X98515819Y-99988761D01*
X98515819Y-99988761D02*
X98515819Y-100179237D01*
X98515819Y-100179237D02*
X98563438Y-100274475D01*
X98563438Y-100274475D02*
X98611057Y-100322094D01*
X98611057Y-100322094D02*
X98706295Y-100369713D01*
X98706295Y-100369713D02*
X98944390Y-100369713D01*
X98944390Y-100369713D02*
X99039628Y-100322094D01*
X99039628Y-100322094D02*
X99087247Y-100274475D01*
X99087247Y-100274475D02*
X99134866Y-100179237D01*
X99134866Y-100179237D02*
X99134866Y-99988761D01*
X99134866Y-99988761D02*
X99087247Y-99893523D01*
X99087247Y-99893523D02*
X99039628Y-99845904D01*
X99039628Y-99845904D02*
X98944390Y-99798285D01*
X107338905Y-79829819D02*
X107338905Y-78829819D01*
X107338905Y-78829819D02*
X107577000Y-78829819D01*
X107577000Y-78829819D02*
X107719857Y-78877438D01*
X107719857Y-78877438D02*
X107815095Y-78972676D01*
X107815095Y-78972676D02*
X107862714Y-79067914D01*
X107862714Y-79067914D02*
X107910333Y-79258390D01*
X107910333Y-79258390D02*
X107910333Y-79401247D01*
X107910333Y-79401247D02*
X107862714Y-79591723D01*
X107862714Y-79591723D02*
X107815095Y-79686961D01*
X107815095Y-79686961D02*
X107719857Y-79782200D01*
X107719857Y-79782200D02*
X107577000Y-79829819D01*
X107577000Y-79829819D02*
X107338905Y-79829819D01*
X108767476Y-79163152D02*
X108767476Y-79829819D01*
X108529381Y-78782200D02*
X108291286Y-79496485D01*
X108291286Y-79496485D02*
X108910333Y-79496485D01*
X60880666Y-74417819D02*
X60880666Y-75132104D01*
X60880666Y-75132104D02*
X60833047Y-75274961D01*
X60833047Y-75274961D02*
X60737809Y-75370200D01*
X60737809Y-75370200D02*
X60594952Y-75417819D01*
X60594952Y-75417819D02*
X60499714Y-75417819D01*
X61880666Y-75417819D02*
X61309238Y-75417819D01*
X61594952Y-75417819D02*
X61594952Y-74417819D01*
X61594952Y-74417819D02*
X61499714Y-74560676D01*
X61499714Y-74560676D02*
X61404476Y-74655914D01*
X61404476Y-74655914D02*
X61309238Y-74703533D01*
X96670905Y-79702819D02*
X96670905Y-78702819D01*
X96670905Y-78702819D02*
X96909000Y-78702819D01*
X96909000Y-78702819D02*
X97051857Y-78750438D01*
X97051857Y-78750438D02*
X97147095Y-78845676D01*
X97147095Y-78845676D02*
X97194714Y-78940914D01*
X97194714Y-78940914D02*
X97242333Y-79131390D01*
X97242333Y-79131390D02*
X97242333Y-79274247D01*
X97242333Y-79274247D02*
X97194714Y-79464723D01*
X97194714Y-79464723D02*
X97147095Y-79559961D01*
X97147095Y-79559961D02*
X97051857Y-79655200D01*
X97051857Y-79655200D02*
X96909000Y-79702819D01*
X96909000Y-79702819D02*
X96670905Y-79702819D01*
X98147095Y-78702819D02*
X97670905Y-78702819D01*
X97670905Y-78702819D02*
X97623286Y-79179009D01*
X97623286Y-79179009D02*
X97670905Y-79131390D01*
X97670905Y-79131390D02*
X97766143Y-79083771D01*
X97766143Y-79083771D02*
X98004238Y-79083771D01*
X98004238Y-79083771D02*
X98099476Y-79131390D01*
X98099476Y-79131390D02*
X98147095Y-79179009D01*
X98147095Y-79179009D02*
X98194714Y-79274247D01*
X98194714Y-79274247D02*
X98194714Y-79512342D01*
X98194714Y-79512342D02*
X98147095Y-79607580D01*
X98147095Y-79607580D02*
X98099476Y-79655200D01*
X98099476Y-79655200D02*
X98004238Y-79702819D01*
X98004238Y-79702819D02*
X97766143Y-79702819D01*
X97766143Y-79702819D02*
X97670905Y-79655200D01*
X97670905Y-79655200D02*
X97623286Y-79607580D01*
X99471485Y-111291666D02*
X98995294Y-111624999D01*
X99471485Y-111863094D02*
X98471485Y-111863094D01*
X98471485Y-111863094D02*
X98471485Y-111482142D01*
X98471485Y-111482142D02*
X98519104Y-111386904D01*
X98519104Y-111386904D02*
X98566723Y-111339285D01*
X98566723Y-111339285D02*
X98661961Y-111291666D01*
X98661961Y-111291666D02*
X98804818Y-111291666D01*
X98804818Y-111291666D02*
X98900056Y-111339285D01*
X98900056Y-111339285D02*
X98947675Y-111386904D01*
X98947675Y-111386904D02*
X98995294Y-111482142D01*
X98995294Y-111482142D02*
X98995294Y-111863094D01*
X98566723Y-110910713D02*
X98519104Y-110863094D01*
X98519104Y-110863094D02*
X98471485Y-110767856D01*
X98471485Y-110767856D02*
X98471485Y-110529761D01*
X98471485Y-110529761D02*
X98519104Y-110434523D01*
X98519104Y-110434523D02*
X98566723Y-110386904D01*
X98566723Y-110386904D02*
X98661961Y-110339285D01*
X98661961Y-110339285D02*
X98757199Y-110339285D01*
X98757199Y-110339285D02*
X98900056Y-110386904D01*
X98900056Y-110386904D02*
X99471485Y-110958332D01*
X99471485Y-110958332D02*
X99471485Y-110339285D01*
X106500819Y-104306666D02*
X106024628Y-104639999D01*
X106500819Y-104878094D02*
X105500819Y-104878094D01*
X105500819Y-104878094D02*
X105500819Y-104497142D01*
X105500819Y-104497142D02*
X105548438Y-104401904D01*
X105548438Y-104401904D02*
X105596057Y-104354285D01*
X105596057Y-104354285D02*
X105691295Y-104306666D01*
X105691295Y-104306666D02*
X105834152Y-104306666D01*
X105834152Y-104306666D02*
X105929390Y-104354285D01*
X105929390Y-104354285D02*
X105977009Y-104401904D01*
X105977009Y-104401904D02*
X106024628Y-104497142D01*
X106024628Y-104497142D02*
X106024628Y-104878094D01*
X105500819Y-103973332D02*
X105500819Y-103306666D01*
X105500819Y-103306666D02*
X106500819Y-103735237D01*
X103069819Y-111291666D02*
X102593628Y-111624999D01*
X103069819Y-111863094D02*
X102069819Y-111863094D01*
X102069819Y-111863094D02*
X102069819Y-111482142D01*
X102069819Y-111482142D02*
X102117438Y-111386904D01*
X102117438Y-111386904D02*
X102165057Y-111339285D01*
X102165057Y-111339285D02*
X102260295Y-111291666D01*
X102260295Y-111291666D02*
X102403152Y-111291666D01*
X102403152Y-111291666D02*
X102498390Y-111339285D01*
X102498390Y-111339285D02*
X102546009Y-111386904D01*
X102546009Y-111386904D02*
X102593628Y-111482142D01*
X102593628Y-111482142D02*
X102593628Y-111863094D01*
X103069819Y-110339285D02*
X103069819Y-110910713D01*
X103069819Y-110624999D02*
X102069819Y-110624999D01*
X102069819Y-110624999D02*
X102212676Y-110720237D01*
X102212676Y-110720237D02*
X102307914Y-110815475D01*
X102307914Y-110815475D02*
X102355533Y-110910713D01*
X95908905Y-100530819D02*
X95908905Y-99530819D01*
X95908905Y-99530819D02*
X96147000Y-99530819D01*
X96147000Y-99530819D02*
X96289857Y-99578438D01*
X96289857Y-99578438D02*
X96385095Y-99673676D01*
X96385095Y-99673676D02*
X96432714Y-99768914D01*
X96432714Y-99768914D02*
X96480333Y-99959390D01*
X96480333Y-99959390D02*
X96480333Y-100102247D01*
X96480333Y-100102247D02*
X96432714Y-100292723D01*
X96432714Y-100292723D02*
X96385095Y-100387961D01*
X96385095Y-100387961D02*
X96289857Y-100483200D01*
X96289857Y-100483200D02*
X96147000Y-100530819D01*
X96147000Y-100530819D02*
X95908905Y-100530819D01*
X97432714Y-100530819D02*
X96861286Y-100530819D01*
X97147000Y-100530819D02*
X97147000Y-99530819D01*
X97147000Y-99530819D02*
X97051762Y-99673676D01*
X97051762Y-99673676D02*
X96956524Y-99768914D01*
X96956524Y-99768914D02*
X96861286Y-99816533D01*
X75258819Y-117133666D02*
X74782628Y-117466999D01*
X75258819Y-117705094D02*
X74258819Y-117705094D01*
X74258819Y-117705094D02*
X74258819Y-117324142D01*
X74258819Y-117324142D02*
X74306438Y-117228904D01*
X74306438Y-117228904D02*
X74354057Y-117181285D01*
X74354057Y-117181285D02*
X74449295Y-117133666D01*
X74449295Y-117133666D02*
X74592152Y-117133666D01*
X74592152Y-117133666D02*
X74687390Y-117181285D01*
X74687390Y-117181285D02*
X74735009Y-117228904D01*
X74735009Y-117228904D02*
X74782628Y-117324142D01*
X74782628Y-117324142D02*
X74782628Y-117705094D01*
X74258819Y-116276523D02*
X74258819Y-116466999D01*
X74258819Y-116466999D02*
X74306438Y-116562237D01*
X74306438Y-116562237D02*
X74354057Y-116609856D01*
X74354057Y-116609856D02*
X74496914Y-116705094D01*
X74496914Y-116705094D02*
X74687390Y-116752713D01*
X74687390Y-116752713D02*
X75068342Y-116752713D01*
X75068342Y-116752713D02*
X75163580Y-116705094D01*
X75163580Y-116705094D02*
X75211200Y-116657475D01*
X75211200Y-116657475D02*
X75258819Y-116562237D01*
X75258819Y-116562237D02*
X75258819Y-116371761D01*
X75258819Y-116371761D02*
X75211200Y-116276523D01*
X75211200Y-116276523D02*
X75163580Y-116228904D01*
X75163580Y-116228904D02*
X75068342Y-116181285D01*
X75068342Y-116181285D02*
X74830247Y-116181285D01*
X74830247Y-116181285D02*
X74735009Y-116228904D01*
X74735009Y-116228904D02*
X74687390Y-116276523D01*
X74687390Y-116276523D02*
X74639771Y-116371761D01*
X74639771Y-116371761D02*
X74639771Y-116562237D01*
X74639771Y-116562237D02*
X74687390Y-116657475D01*
X74687390Y-116657475D02*
X74735009Y-116705094D01*
X74735009Y-116705094D02*
X74830247Y-116752713D01*
X78179819Y-94368857D02*
X77703628Y-94702190D01*
X78179819Y-94940285D02*
X77179819Y-94940285D01*
X77179819Y-94940285D02*
X77179819Y-94559333D01*
X77179819Y-94559333D02*
X77227438Y-94464095D01*
X77227438Y-94464095D02*
X77275057Y-94416476D01*
X77275057Y-94416476D02*
X77370295Y-94368857D01*
X77370295Y-94368857D02*
X77513152Y-94368857D01*
X77513152Y-94368857D02*
X77608390Y-94416476D01*
X77608390Y-94416476D02*
X77656009Y-94464095D01*
X77656009Y-94464095D02*
X77703628Y-94559333D01*
X77703628Y-94559333D02*
X77703628Y-94940285D01*
X78179819Y-93416476D02*
X78179819Y-93987904D01*
X78179819Y-93702190D02*
X77179819Y-93702190D01*
X77179819Y-93702190D02*
X77322676Y-93797428D01*
X77322676Y-93797428D02*
X77417914Y-93892666D01*
X77417914Y-93892666D02*
X77465533Y-93987904D01*
X77179819Y-92797428D02*
X77179819Y-92702190D01*
X77179819Y-92702190D02*
X77227438Y-92606952D01*
X77227438Y-92606952D02*
X77275057Y-92559333D01*
X77275057Y-92559333D02*
X77370295Y-92511714D01*
X77370295Y-92511714D02*
X77560771Y-92464095D01*
X77560771Y-92464095D02*
X77798866Y-92464095D01*
X77798866Y-92464095D02*
X77989342Y-92511714D01*
X77989342Y-92511714D02*
X78084580Y-92559333D01*
X78084580Y-92559333D02*
X78132200Y-92606952D01*
X78132200Y-92606952D02*
X78179819Y-92702190D01*
X78179819Y-92702190D02*
X78179819Y-92797428D01*
X78179819Y-92797428D02*
X78132200Y-92892666D01*
X78132200Y-92892666D02*
X78084580Y-92940285D01*
X78084580Y-92940285D02*
X77989342Y-92987904D01*
X77989342Y-92987904D02*
X77798866Y-93035523D01*
X77798866Y-93035523D02*
X77560771Y-93035523D01*
X77560771Y-93035523D02*
X77370295Y-92987904D01*
X77370295Y-92987904D02*
X77275057Y-92940285D01*
X77275057Y-92940285D02*
X77227438Y-92892666D01*
X77227438Y-92892666D02*
X77179819Y-92797428D01*
X99655333Y-107387819D02*
X99322000Y-106911628D01*
X99083905Y-107387819D02*
X99083905Y-106387819D01*
X99083905Y-106387819D02*
X99464857Y-106387819D01*
X99464857Y-106387819D02*
X99560095Y-106435438D01*
X99560095Y-106435438D02*
X99607714Y-106483057D01*
X99607714Y-106483057D02*
X99655333Y-106578295D01*
X99655333Y-106578295D02*
X99655333Y-106721152D01*
X99655333Y-106721152D02*
X99607714Y-106816390D01*
X99607714Y-106816390D02*
X99560095Y-106864009D01*
X99560095Y-106864009D02*
X99464857Y-106911628D01*
X99464857Y-106911628D02*
X99083905Y-106911628D01*
X100560095Y-106387819D02*
X100083905Y-106387819D01*
X100083905Y-106387819D02*
X100036286Y-106864009D01*
X100036286Y-106864009D02*
X100083905Y-106816390D01*
X100083905Y-106816390D02*
X100179143Y-106768771D01*
X100179143Y-106768771D02*
X100417238Y-106768771D01*
X100417238Y-106768771D02*
X100512476Y-106816390D01*
X100512476Y-106816390D02*
X100560095Y-106864009D01*
X100560095Y-106864009D02*
X100607714Y-106959247D01*
X100607714Y-106959247D02*
X100607714Y-107197342D01*
X100607714Y-107197342D02*
X100560095Y-107292580D01*
X100560095Y-107292580D02*
X100512476Y-107340200D01*
X100512476Y-107340200D02*
X100417238Y-107387819D01*
X100417238Y-107387819D02*
X100179143Y-107387819D01*
X100179143Y-107387819D02*
X100083905Y-107340200D01*
X100083905Y-107340200D02*
X100036286Y-107292580D01*
X71651905Y-103324819D02*
X71651905Y-102324819D01*
X71651905Y-102324819D02*
X71890000Y-102324819D01*
X71890000Y-102324819D02*
X72032857Y-102372438D01*
X72032857Y-102372438D02*
X72128095Y-102467676D01*
X72128095Y-102467676D02*
X72175714Y-102562914D01*
X72175714Y-102562914D02*
X72223333Y-102753390D01*
X72223333Y-102753390D02*
X72223333Y-102896247D01*
X72223333Y-102896247D02*
X72175714Y-103086723D01*
X72175714Y-103086723D02*
X72128095Y-103181961D01*
X72128095Y-103181961D02*
X72032857Y-103277200D01*
X72032857Y-103277200D02*
X71890000Y-103324819D01*
X71890000Y-103324819D02*
X71651905Y-103324819D01*
X72604286Y-102420057D02*
X72651905Y-102372438D01*
X72651905Y-102372438D02*
X72747143Y-102324819D01*
X72747143Y-102324819D02*
X72985238Y-102324819D01*
X72985238Y-102324819D02*
X73080476Y-102372438D01*
X73080476Y-102372438D02*
X73128095Y-102420057D01*
X73128095Y-102420057D02*
X73175714Y-102515295D01*
X73175714Y-102515295D02*
X73175714Y-102610533D01*
X73175714Y-102610533D02*
X73128095Y-102753390D01*
X73128095Y-102753390D02*
X72556667Y-103324819D01*
X72556667Y-103324819D02*
X73175714Y-103324819D01*
X105814905Y-91767819D02*
X105814905Y-90767819D01*
X105814905Y-90767819D02*
X106053000Y-90767819D01*
X106053000Y-90767819D02*
X106195857Y-90815438D01*
X106195857Y-90815438D02*
X106291095Y-90910676D01*
X106291095Y-90910676D02*
X106338714Y-91005914D01*
X106338714Y-91005914D02*
X106386333Y-91196390D01*
X106386333Y-91196390D02*
X106386333Y-91339247D01*
X106386333Y-91339247D02*
X106338714Y-91529723D01*
X106338714Y-91529723D02*
X106291095Y-91624961D01*
X106291095Y-91624961D02*
X106195857Y-91720200D01*
X106195857Y-91720200D02*
X106053000Y-91767819D01*
X106053000Y-91767819D02*
X105814905Y-91767819D01*
X106719667Y-90767819D02*
X107338714Y-90767819D01*
X107338714Y-90767819D02*
X107005381Y-91148771D01*
X107005381Y-91148771D02*
X107148238Y-91148771D01*
X107148238Y-91148771D02*
X107243476Y-91196390D01*
X107243476Y-91196390D02*
X107291095Y-91244009D01*
X107291095Y-91244009D02*
X107338714Y-91339247D01*
X107338714Y-91339247D02*
X107338714Y-91577342D01*
X107338714Y-91577342D02*
X107291095Y-91672580D01*
X107291095Y-91672580D02*
X107243476Y-91720200D01*
X107243476Y-91720200D02*
X107148238Y-91767819D01*
X107148238Y-91767819D02*
X106862524Y-91767819D01*
X106862524Y-91767819D02*
X106767286Y-91720200D01*
X106767286Y-91720200D02*
X106719667Y-91672580D01*
X92274819Y-111291666D02*
X91798628Y-111624999D01*
X92274819Y-111863094D02*
X91274819Y-111863094D01*
X91274819Y-111863094D02*
X91274819Y-111482142D01*
X91274819Y-111482142D02*
X91322438Y-111386904D01*
X91322438Y-111386904D02*
X91370057Y-111339285D01*
X91370057Y-111339285D02*
X91465295Y-111291666D01*
X91465295Y-111291666D02*
X91608152Y-111291666D01*
X91608152Y-111291666D02*
X91703390Y-111339285D01*
X91703390Y-111339285D02*
X91751009Y-111386904D01*
X91751009Y-111386904D02*
X91798628Y-111482142D01*
X91798628Y-111482142D02*
X91798628Y-111863094D01*
X91608152Y-110434523D02*
X92274819Y-110434523D01*
X91227200Y-110672618D02*
X91941485Y-110910713D01*
X91941485Y-110910713D02*
X91941485Y-110291666D01*
X95873152Y-111291666D02*
X95396961Y-111624999D01*
X95873152Y-111863094D02*
X94873152Y-111863094D01*
X94873152Y-111863094D02*
X94873152Y-111482142D01*
X94873152Y-111482142D02*
X94920771Y-111386904D01*
X94920771Y-111386904D02*
X94968390Y-111339285D01*
X94968390Y-111339285D02*
X95063628Y-111291666D01*
X95063628Y-111291666D02*
X95206485Y-111291666D01*
X95206485Y-111291666D02*
X95301723Y-111339285D01*
X95301723Y-111339285D02*
X95349342Y-111386904D01*
X95349342Y-111386904D02*
X95396961Y-111482142D01*
X95396961Y-111482142D02*
X95396961Y-111863094D01*
X94873152Y-110958332D02*
X94873152Y-110339285D01*
X94873152Y-110339285D02*
X95254104Y-110672618D01*
X95254104Y-110672618D02*
X95254104Y-110529761D01*
X95254104Y-110529761D02*
X95301723Y-110434523D01*
X95301723Y-110434523D02*
X95349342Y-110386904D01*
X95349342Y-110386904D02*
X95444580Y-110339285D01*
X95444580Y-110339285D02*
X95682675Y-110339285D01*
X95682675Y-110339285D02*
X95777913Y-110386904D01*
X95777913Y-110386904D02*
X95825533Y-110434523D01*
X95825533Y-110434523D02*
X95873152Y-110529761D01*
X95873152Y-110529761D02*
X95873152Y-110815475D01*
X95873152Y-110815475D02*
X95825533Y-110910713D01*
X95825533Y-110910713D02*
X95777913Y-110958332D01*
X77493905Y-81480819D02*
X77493905Y-80480819D01*
X77493905Y-80480819D02*
X77732000Y-80480819D01*
X77732000Y-80480819D02*
X77874857Y-80528438D01*
X77874857Y-80528438D02*
X77970095Y-80623676D01*
X77970095Y-80623676D02*
X78017714Y-80718914D01*
X78017714Y-80718914D02*
X78065333Y-80909390D01*
X78065333Y-80909390D02*
X78065333Y-81052247D01*
X78065333Y-81052247D02*
X78017714Y-81242723D01*
X78017714Y-81242723D02*
X77970095Y-81337961D01*
X77970095Y-81337961D02*
X77874857Y-81433200D01*
X77874857Y-81433200D02*
X77732000Y-81480819D01*
X77732000Y-81480819D02*
X77493905Y-81480819D01*
X78922476Y-80480819D02*
X78732000Y-80480819D01*
X78732000Y-80480819D02*
X78636762Y-80528438D01*
X78636762Y-80528438D02*
X78589143Y-80576057D01*
X78589143Y-80576057D02*
X78493905Y-80718914D01*
X78493905Y-80718914D02*
X78446286Y-80909390D01*
X78446286Y-80909390D02*
X78446286Y-81290342D01*
X78446286Y-81290342D02*
X78493905Y-81385580D01*
X78493905Y-81385580D02*
X78541524Y-81433200D01*
X78541524Y-81433200D02*
X78636762Y-81480819D01*
X78636762Y-81480819D02*
X78827238Y-81480819D01*
X78827238Y-81480819D02*
X78922476Y-81433200D01*
X78922476Y-81433200D02*
X78970095Y-81385580D01*
X78970095Y-81385580D02*
X79017714Y-81290342D01*
X79017714Y-81290342D02*
X79017714Y-81052247D01*
X79017714Y-81052247D02*
X78970095Y-80957009D01*
X78970095Y-80957009D02*
X78922476Y-80909390D01*
X78922476Y-80909390D02*
X78827238Y-80861771D01*
X78827238Y-80861771D02*
X78636762Y-80861771D01*
X78636762Y-80861771D02*
X78541524Y-80909390D01*
X78541524Y-80909390D02*
X78493905Y-80957009D01*
X78493905Y-80957009D02*
X78446286Y-81052247D01*
X110437819Y-104306666D02*
X109961628Y-104639999D01*
X110437819Y-104878094D02*
X109437819Y-104878094D01*
X109437819Y-104878094D02*
X109437819Y-104497142D01*
X109437819Y-104497142D02*
X109485438Y-104401904D01*
X109485438Y-104401904D02*
X109533057Y-104354285D01*
X109533057Y-104354285D02*
X109628295Y-104306666D01*
X109628295Y-104306666D02*
X109771152Y-104306666D01*
X109771152Y-104306666D02*
X109866390Y-104354285D01*
X109866390Y-104354285D02*
X109914009Y-104401904D01*
X109914009Y-104401904D02*
X109961628Y-104497142D01*
X109961628Y-104497142D02*
X109961628Y-104878094D01*
X109866390Y-103735237D02*
X109818771Y-103830475D01*
X109818771Y-103830475D02*
X109771152Y-103878094D01*
X109771152Y-103878094D02*
X109675914Y-103925713D01*
X109675914Y-103925713D02*
X109628295Y-103925713D01*
X109628295Y-103925713D02*
X109533057Y-103878094D01*
X109533057Y-103878094D02*
X109485438Y-103830475D01*
X109485438Y-103830475D02*
X109437819Y-103735237D01*
X109437819Y-103735237D02*
X109437819Y-103544761D01*
X109437819Y-103544761D02*
X109485438Y-103449523D01*
X109485438Y-103449523D02*
X109533057Y-103401904D01*
X109533057Y-103401904D02*
X109628295Y-103354285D01*
X109628295Y-103354285D02*
X109675914Y-103354285D01*
X109675914Y-103354285D02*
X109771152Y-103401904D01*
X109771152Y-103401904D02*
X109818771Y-103449523D01*
X109818771Y-103449523D02*
X109866390Y-103544761D01*
X109866390Y-103544761D02*
X109866390Y-103735237D01*
X109866390Y-103735237D02*
X109914009Y-103830475D01*
X109914009Y-103830475D02*
X109961628Y-103878094D01*
X109961628Y-103878094D02*
X110056866Y-103925713D01*
X110056866Y-103925713D02*
X110247342Y-103925713D01*
X110247342Y-103925713D02*
X110342580Y-103878094D01*
X110342580Y-103878094D02*
X110390200Y-103830475D01*
X110390200Y-103830475D02*
X110437819Y-103735237D01*
X110437819Y-103735237D02*
X110437819Y-103544761D01*
X110437819Y-103544761D02*
X110390200Y-103449523D01*
X110390200Y-103449523D02*
X110342580Y-103401904D01*
X110342580Y-103401904D02*
X110247342Y-103354285D01*
X110247342Y-103354285D02*
X110056866Y-103354285D01*
X110056866Y-103354285D02*
X109961628Y-103401904D01*
X109961628Y-103401904D02*
X109914009Y-103449523D01*
X109914009Y-103449523D02*
X109866390Y-103544761D01*
D12*
%TO.C,R9*%
X99976000Y-100811064D02*
X99976000Y-100356936D01*
X101446000Y-100811064D02*
X101446000Y-100356936D01*
%TO.C,D4*%
X106390000Y-82330000D02*
X106390000Y-82486000D01*
X106390000Y-84646000D02*
X106390000Y-84802000D01*
X109622334Y-82487392D02*
G75*
G03*
X106390001Y-82330485I-1672334J-1078608D01*
G01*
X108991129Y-82486164D02*
G75*
G03*
X106909040Y-82486001I-1041129J-1079836D01*
G01*
X106909040Y-84645999D02*
G75*
G03*
X108991129Y-84645836I1040960J1079999D01*
G01*
X106390001Y-84801515D02*
G75*
G03*
X109622334Y-84644608I1559999J1235515D01*
G01*
%TO.C,G\u002A\u002A\u002A*%
G36*
X97908236Y-80305826D02*
G01*
X98190046Y-80323223D01*
X98411128Y-80363393D01*
X98621213Y-80435481D01*
X98870033Y-80548630D01*
X98878114Y-80552513D01*
X99533165Y-80947905D01*
X100065670Y-81439661D01*
X100468794Y-82016273D01*
X100735704Y-82666232D01*
X100859567Y-83378029D01*
X100858818Y-83888292D01*
X100739091Y-84563425D01*
X100486769Y-85191918D01*
X100119815Y-85754983D01*
X99656189Y-86233833D01*
X99113853Y-86609681D01*
X98510768Y-86863740D01*
X97908310Y-86974452D01*
X97379199Y-87012448D01*
X97206241Y-87816174D01*
X97136294Y-88151509D01*
X97084184Y-88421470D01*
X97056128Y-88592529D01*
X97054278Y-88635604D01*
X97131161Y-88674926D01*
X97317566Y-88765929D01*
X97578293Y-88891480D01*
X97676221Y-88938327D01*
X98039856Y-89137799D01*
X98417616Y-89385881D01*
X98728255Y-89629181D01*
X98730589Y-89631267D01*
X99184011Y-90037190D01*
X102095889Y-87662512D01*
X102685113Y-87181975D01*
X103235575Y-86733021D01*
X103734978Y-86325679D01*
X104171027Y-85969981D01*
X104531425Y-85675958D01*
X104803876Y-85453639D01*
X104976085Y-85313056D01*
X105035624Y-85264356D01*
X105024522Y-85183426D01*
X104967754Y-84996250D01*
X104891012Y-84779912D01*
X104705276Y-84069415D01*
X104674485Y-83363655D01*
X104794674Y-82680159D01*
X105061875Y-82036456D01*
X105472123Y-81450075D01*
X105698014Y-81213704D01*
X106255804Y-80782839D01*
X106863721Y-80492270D01*
X107501594Y-80338283D01*
X108149251Y-80317164D01*
X108786521Y-80425197D01*
X109393234Y-80658670D01*
X109949216Y-81013867D01*
X110434298Y-81487074D01*
X110828308Y-82074578D01*
X110875737Y-82167119D01*
X111014267Y-82456446D01*
X111102285Y-82682051D01*
X111151208Y-82897663D01*
X111172452Y-83157008D01*
X111177432Y-83513813D01*
X111177483Y-83587233D01*
X111174117Y-83965714D01*
X111156408Y-84237696D01*
X111112940Y-84456906D01*
X111032297Y-84677071D01*
X110903064Y-84951919D01*
X110875737Y-85007347D01*
X110494309Y-85614626D01*
X110012898Y-86115064D01*
X109451395Y-86498159D01*
X108829691Y-86753410D01*
X108167676Y-86870316D01*
X107485243Y-86838376D01*
X107426396Y-86828364D01*
X107018532Y-86724392D01*
X106601047Y-86567315D01*
X106231691Y-86381980D01*
X105983837Y-86207695D01*
X105859554Y-86122736D01*
X105737774Y-86142009D01*
X105644539Y-86193992D01*
X105543543Y-86267901D01*
X105331970Y-86432391D01*
X105023335Y-86676642D01*
X104631153Y-86989834D01*
X104168938Y-87361148D01*
X103650206Y-87779763D01*
X103088472Y-88234862D01*
X102645237Y-88595120D01*
X101959415Y-89154741D01*
X101389833Y-89623023D01*
X100927163Y-90008193D01*
X100562076Y-90318479D01*
X100285244Y-90562109D01*
X100087341Y-90747311D01*
X99959037Y-90882312D01*
X99891005Y-90975340D01*
X99873917Y-91034624D01*
X99874641Y-91038968D01*
X99920020Y-91197511D01*
X100002264Y-91446717D01*
X100084625Y-91679978D01*
X100204216Y-92123108D01*
X100286658Y-92676605D01*
X100309977Y-92957863D01*
X100360448Y-93754992D01*
X101842783Y-94329844D01*
X102347956Y-94525272D01*
X102724651Y-94668031D01*
X102993796Y-94763410D01*
X103176316Y-94816697D01*
X103293140Y-94833179D01*
X103365194Y-94818145D01*
X103413405Y-94776883D01*
X103444605Y-94734609D01*
X103940059Y-94152287D01*
X104520154Y-93681106D01*
X105162882Y-93330987D01*
X105846238Y-93111854D01*
X106548213Y-93033628D01*
X107113955Y-93080128D01*
X107837988Y-93280618D01*
X108489966Y-93607859D01*
X109057289Y-94044686D01*
X109527356Y-94573934D01*
X109887567Y-95178436D01*
X110125323Y-95841028D01*
X110228023Y-96544544D01*
X110184495Y-97263246D01*
X109983296Y-98010246D01*
X109644246Y-98685225D01*
X109178740Y-99272976D01*
X108598173Y-99758291D01*
X108102183Y-100042055D01*
X107831238Y-100168078D01*
X107617201Y-100251217D01*
X107413449Y-100300284D01*
X107173356Y-100324088D01*
X106850296Y-100331443D01*
X106570227Y-100331569D01*
X106127696Y-100324948D01*
X105800148Y-100303410D01*
X105542568Y-100261027D01*
X105309940Y-100191871D01*
X105204689Y-100151753D01*
X104757272Y-99919404D01*
X104294578Y-99589732D01*
X103873588Y-99208448D01*
X103557496Y-98830375D01*
X103260177Y-98335135D01*
X103067032Y-97848288D01*
X102962134Y-97316275D01*
X102929708Y-96718929D01*
X102924486Y-95908669D01*
X101522278Y-95374801D01*
X101078323Y-95206923D01*
X100686413Y-95060914D01*
X100370877Y-94945657D01*
X100156042Y-94870038D01*
X100066236Y-94842943D01*
X100066064Y-94842947D01*
X100005534Y-94910183D01*
X99900752Y-95083698D01*
X99785623Y-95303750D01*
X99508521Y-95748520D01*
X99122157Y-96209950D01*
X98667298Y-96648378D01*
X98184710Y-97024146D01*
X97756347Y-97277950D01*
X97201053Y-97506624D01*
X96607854Y-97678151D01*
X96032980Y-97779254D01*
X95554285Y-97797937D01*
X95152246Y-97776339D01*
X94815562Y-99412715D01*
X94715971Y-99900466D01*
X94629615Y-100330561D01*
X94561001Y-100679952D01*
X94514634Y-100925591D01*
X94495022Y-101044428D01*
X94495057Y-101051915D01*
X94569176Y-101086251D01*
X94745914Y-101172799D01*
X94951931Y-101275304D01*
X95600748Y-101684445D01*
X96141885Y-102197117D01*
X96570021Y-102793548D01*
X96879836Y-103453970D01*
X97066011Y-104158612D01*
X97123226Y-104887704D01*
X97046162Y-105621475D01*
X96829498Y-106340157D01*
X96489774Y-106990525D01*
X96008748Y-107595776D01*
X95432428Y-108087859D01*
X94781993Y-108460070D01*
X94078620Y-108705705D01*
X93343490Y-108818057D01*
X92597779Y-108790424D01*
X91862667Y-108616101D01*
X91632804Y-108528105D01*
X90943534Y-108158564D01*
X90361095Y-107686175D01*
X89889169Y-107129236D01*
X89531439Y-106506047D01*
X89291589Y-105834907D01*
X89173299Y-105134115D01*
X89180253Y-104421969D01*
X89316134Y-103716769D01*
X89584625Y-103036813D01*
X89989406Y-102400401D01*
X90323578Y-102022514D01*
X90936912Y-101507639D01*
X91599445Y-101135820D01*
X92298285Y-100912954D01*
X92897061Y-100845314D01*
X93406316Y-100834271D01*
X93739315Y-99221793D01*
X93839565Y-98733403D01*
X93927640Y-98298679D01*
X93998710Y-97941929D01*
X94047945Y-97687458D01*
X94070517Y-97559574D01*
X94071429Y-97550296D01*
X94004306Y-97484779D01*
X93838671Y-97395474D01*
X93783923Y-97371519D01*
X93545005Y-97253618D01*
X93263480Y-97090104D01*
X93132255Y-97005394D01*
X92912904Y-96875042D01*
X92737381Y-96802074D01*
X92668567Y-96796877D01*
X92596006Y-96850797D01*
X92410105Y-96997273D01*
X92121670Y-97227524D01*
X91741507Y-97532771D01*
X91280420Y-97904235D01*
X90749215Y-98333134D01*
X90158698Y-98810690D01*
X89519675Y-99328123D01*
X88842949Y-99876653D01*
X88139328Y-100447500D01*
X87419616Y-101031884D01*
X86694620Y-101621026D01*
X85975143Y-102206145D01*
X85271993Y-102778463D01*
X84595974Y-103329198D01*
X83957891Y-103849572D01*
X83368551Y-104330805D01*
X82838759Y-104764116D01*
X82379319Y-105140726D01*
X82001039Y-105451856D01*
X81714722Y-105688725D01*
X81531174Y-105842554D01*
X81467422Y-105898181D01*
X81404056Y-105969496D01*
X81381952Y-106051410D01*
X81408280Y-106176865D01*
X81490207Y-106378804D01*
X81634903Y-106690170D01*
X81643885Y-106709141D01*
X81983961Y-107604237D01*
X82166703Y-108511957D01*
X82193172Y-109420586D01*
X82064428Y-110318411D01*
X81781530Y-111193719D01*
X81345540Y-112034796D01*
X81133132Y-112352557D01*
X80874895Y-112679444D01*
X80564478Y-113023380D01*
X80310313Y-113271575D01*
X79874720Y-113603572D01*
X79337561Y-113925760D01*
X78756364Y-114209094D01*
X78188659Y-114424527D01*
X77844991Y-114516313D01*
X77194753Y-114606324D01*
X76501187Y-114624082D01*
X75831492Y-114570620D01*
X75361079Y-114478067D01*
X74851235Y-114328356D01*
X74432733Y-114166729D01*
X74037714Y-113962957D01*
X73625964Y-113705176D01*
X72900215Y-113132992D01*
X72294936Y-112466695D01*
X71814306Y-111722434D01*
X71462505Y-110916355D01*
X71243711Y-110064606D01*
X71162104Y-109183333D01*
X71221863Y-108288685D01*
X71427166Y-107396808D01*
X71772420Y-106543385D01*
X72117771Y-105980279D01*
X72579076Y-105417888D01*
X73116683Y-104895226D01*
X73690937Y-104451309D01*
X74200906Y-104153971D01*
X74816688Y-103885738D01*
X75384904Y-103710311D01*
X75963631Y-103615826D01*
X76610946Y-103590416D01*
X76923540Y-103597724D01*
X77412065Y-103625083D01*
X77796108Y-103671060D01*
X78131142Y-103744570D01*
X78432685Y-103840245D01*
X79237277Y-104193498D01*
X79961846Y-104649020D01*
X80256074Y-104886030D01*
X80605832Y-105191767D01*
X86036137Y-100765274D01*
X86852552Y-100099655D01*
X87637405Y-99459535D01*
X88381245Y-98852633D01*
X89074624Y-98286670D01*
X89708092Y-97769367D01*
X90272199Y-97308445D01*
X90757495Y-96911624D01*
X91154532Y-96586625D01*
X91453859Y-96341168D01*
X91646027Y-96182974D01*
X91716551Y-96124184D01*
X91966660Y-95909587D01*
X91708861Y-95500719D01*
X91377404Y-94837915D01*
X91156021Y-94097478D01*
X91052867Y-93325361D01*
X91076094Y-92567517D01*
X91130491Y-92240861D01*
X91194102Y-91947426D01*
X91246921Y-91708922D01*
X91277896Y-91575218D01*
X91278547Y-91572667D01*
X91227357Y-91526468D01*
X91057701Y-91438417D01*
X90765419Y-91306813D01*
X90346349Y-91129956D01*
X89796332Y-90906146D01*
X89111206Y-90633682D01*
X88286812Y-90310864D01*
X87318988Y-89935993D01*
X86545197Y-89638343D01*
X81784204Y-87811330D01*
X81589440Y-88103067D01*
X81115295Y-88678402D01*
X80540588Y-89152756D01*
X79890714Y-89515323D01*
X79191070Y-89755295D01*
X78467054Y-89861867D01*
X77744062Y-89824232D01*
X77603964Y-89798886D01*
X76945206Y-89595484D01*
X76306446Y-89269386D01*
X75721392Y-88845505D01*
X75223756Y-88348755D01*
X74847248Y-87804048D01*
X74810780Y-87734619D01*
X74521237Y-86996374D01*
X74381504Y-86237301D01*
X74388649Y-85477503D01*
X74539743Y-84737083D01*
X74831856Y-84036144D01*
X75262057Y-83394790D01*
X75478590Y-83152782D01*
X76078310Y-82641975D01*
X76738548Y-82269567D01*
X77440148Y-82035411D01*
X78163953Y-81939362D01*
X78890807Y-81981272D01*
X79601555Y-82160997D01*
X80277040Y-82478390D01*
X80898107Y-82933305D01*
X81167233Y-83196153D01*
X81658742Y-83829757D01*
X82010204Y-84522868D01*
X82215552Y-85258290D01*
X82268721Y-86018829D01*
X82251964Y-86271134D01*
X82198953Y-86798995D01*
X85310300Y-87989728D01*
X86060357Y-88276867D01*
X86833217Y-88572894D01*
X87600325Y-88866860D01*
X88333130Y-89147820D01*
X89003078Y-89404825D01*
X89581617Y-89626928D01*
X90040194Y-89803182D01*
X90055945Y-89809241D01*
X90539029Y-89993478D01*
X90974308Y-90156398D01*
X91338716Y-90289619D01*
X91609189Y-90384760D01*
X91762662Y-90433438D01*
X91786147Y-90438022D01*
X91884420Y-90380749D01*
X92044925Y-90231544D01*
X92209394Y-90049811D01*
X92577653Y-89683601D01*
X93044329Y-89322334D01*
X93551410Y-89005736D01*
X94040882Y-88773531D01*
X94110606Y-88747942D01*
X94429206Y-88655747D01*
X94828509Y-88567122D01*
X95229550Y-88499281D01*
X95284518Y-88492020D01*
X95977674Y-88404490D01*
X96110435Y-87718575D01*
X96174408Y-87393260D01*
X96229950Y-87120171D01*
X96267939Y-86943837D01*
X96275600Y-86912470D01*
X96227206Y-86794645D01*
X96030459Y-86664593D01*
X95988937Y-86644697D01*
X95534561Y-86362780D01*
X95098148Y-85959788D01*
X94716287Y-85473811D01*
X94491941Y-85086387D01*
X94356590Y-84804484D01*
X94269366Y-84584140D01*
X94219718Y-84374387D01*
X94197095Y-84124259D01*
X94190945Y-83782790D01*
X94190732Y-83631452D01*
X94194411Y-83238610D01*
X94211651Y-82955727D01*
X94251755Y-82732569D01*
X94324027Y-82518898D01*
X94437769Y-82264479D01*
X94447826Y-82243210D01*
X94818918Y-81637793D01*
X95311359Y-81107492D01*
X95891777Y-80685678D01*
X96131883Y-80559153D01*
X96391956Y-80441760D01*
X96607528Y-80366740D01*
X96829128Y-80324709D01*
X97107286Y-80306279D01*
X97492532Y-80302065D01*
X97515969Y-80302060D01*
X97908236Y-80305826D01*
G37*
%TO.C,J1*%
X57929000Y-75963000D02*
X61214000Y-75963000D01*
X57929000Y-78613000D02*
X57929000Y-75963000D01*
X57929000Y-81153000D02*
X57929000Y-116823000D01*
X57929000Y-81153000D02*
X64499000Y-81153000D01*
X57929000Y-116823000D02*
X64499000Y-116823000D01*
X64499000Y-81153000D02*
X64499000Y-116823000D01*
%TO.C,D5*%
X95849000Y-82330000D02*
X95849000Y-82486000D01*
X95849000Y-84646000D02*
X95849000Y-84802000D01*
X99081334Y-82487392D02*
G75*
G03*
X95849001Y-82330485I-1672334J-1078608D01*
G01*
X98450129Y-82486164D02*
G75*
G03*
X96368040Y-82486001I-1041129J-1079836D01*
G01*
X96368040Y-84645999D02*
G75*
G03*
X98450129Y-84645836I1040960J1079999D01*
G01*
X95849001Y-84801515D02*
G75*
G03*
X99081334Y-84644608I1559999J1235515D01*
G01*
%TO.C,R2*%
X98101666Y-110897936D02*
X98101666Y-111352064D01*
X96631666Y-110897936D02*
X96631666Y-111352064D01*
%TO.C,R7*%
X106961000Y-104367064D02*
X106961000Y-103912936D01*
X108431000Y-104367064D02*
X108431000Y-103912936D01*
%TO.C,R1*%
X101700000Y-110897936D02*
X101700000Y-111352064D01*
X100230000Y-110897936D02*
X100230000Y-111352064D01*
%TO.C,D1*%
X91404000Y-104047000D02*
X91404000Y-104203000D01*
X91404000Y-106363000D02*
X91404000Y-106519000D01*
X94636334Y-104204392D02*
G75*
G03*
X91404001Y-104047485I-1672334J-1078608D01*
G01*
X94005129Y-104203164D02*
G75*
G03*
X91923040Y-104203001I-1041129J-1079836D01*
G01*
X91923040Y-106362999D02*
G75*
G03*
X94005129Y-106362836I1040960J1079999D01*
G01*
X91404001Y-106518515D02*
G75*
G03*
X94636334Y-106361608I1559999J1235515D01*
G01*
%TO.C,R6*%
X75719000Y-117194064D02*
X75719000Y-116739936D01*
X77189000Y-117194064D02*
X77189000Y-116739936D01*
%TO.C,R10*%
X78640000Y-93953064D02*
X78640000Y-93498936D01*
X80110000Y-93953064D02*
X80110000Y-93498936D01*
%TO.C,R5*%
X100049064Y-106018000D02*
X99594936Y-106018000D01*
X100049064Y-104548000D02*
X99594936Y-104548000D01*
%TO.C,D2*%
X75148000Y-108111000D02*
X75148000Y-108267000D01*
X75148000Y-110427000D02*
X75148000Y-110583000D01*
X78380334Y-108268392D02*
G75*
G03*
X75148001Y-108111485I-1672334J-1078608D01*
G01*
X77749129Y-108267164D02*
G75*
G03*
X75667040Y-108267001I-1041129J-1079836D01*
G01*
X75667040Y-110426999D02*
G75*
G03*
X77749129Y-110426836I1040960J1079999D01*
G01*
X75148001Y-110582515D02*
G75*
G03*
X78380334Y-110425608I1559999J1235515D01*
G01*
%TO.C,D3*%
X104866000Y-95792000D02*
X104866000Y-95948000D01*
X104866000Y-98108000D02*
X104866000Y-98264000D01*
X108098334Y-95949392D02*
G75*
G03*
X104866001Y-95792485I-1672334J-1078608D01*
G01*
X107467129Y-95948164D02*
G75*
G03*
X105385040Y-95948001I-1041129J-1079836D01*
G01*
X105385040Y-98107999D02*
G75*
G03*
X107467129Y-98107836I1040960J1079999D01*
G01*
X104866001Y-98263515D02*
G75*
G03*
X108098334Y-98106608I1559999J1235515D01*
G01*
%TO.C,R4*%
X90905000Y-110897936D02*
X90905000Y-111352064D01*
X89435000Y-110897936D02*
X89435000Y-111352064D01*
%TO.C,R3*%
X94503333Y-110897936D02*
X94503333Y-111352064D01*
X93033333Y-110897936D02*
X93033333Y-111352064D01*
%TO.C,D6*%
X76672000Y-84743000D02*
X76672000Y-84899000D01*
X76672000Y-87059000D02*
X76672000Y-87215000D01*
X79904334Y-84900392D02*
G75*
G03*
X76672001Y-84743485I-1672334J-1078608D01*
G01*
X79273129Y-84899164D02*
G75*
G03*
X77191040Y-84899001I-1041129J-1079836D01*
G01*
X77191040Y-87058999D02*
G75*
G03*
X79273129Y-87058836I1040960J1079999D01*
G01*
X76672001Y-87214515D02*
G75*
G03*
X79904334Y-87057608I1559999J1235515D01*
G01*
%TO.C,R8*%
X110898000Y-104367064D02*
X110898000Y-103912936D01*
X112368000Y-104367064D02*
X112368000Y-103912936D01*
%TD*%
M02*
