%TF.GenerationSoftware,KiCad,Pcbnew,7.0.10*%
%TF.CreationDate,2024-04-13T12:41:34+02:00*%
%TF.ProjectId,jeopardy_pcb,6a656f70-6172-4647-995f-7063622e6b69,rev?*%
%TF.SameCoordinates,Original*%
%TF.FileFunction,Copper,L1,Top*%
%TF.FilePolarity,Positive*%
%FSLAX46Y46*%
G04 Gerber Fmt 4.6, Leading zero omitted, Abs format (unit mm)*
G04 Created by KiCad (PCBNEW 7.0.10) date 2024-04-13 12:41:34*
%MOMM*%
%LPD*%
G01*
G04 APERTURE LIST*
G04 Aperture macros list*
%AMRoundRect*
0 Rectangle with rounded corners*
0 $1 Rounding radius*
0 $2 $3 $4 $5 $6 $7 $8 $9 X,Y pos of 4 corners*
0 Add a 4 corners polygon primitive as box body*
4,1,4,$2,$3,$4,$5,$6,$7,$8,$9,$2,$3,0*
0 Add four circle primitives for the rounded corners*
1,1,$1+$1,$2,$3*
1,1,$1+$1,$4,$5*
1,1,$1+$1,$6,$7*
1,1,$1+$1,$8,$9*
0 Add four rect primitives between the rounded corners*
20,1,$1+$1,$2,$3,$4,$5,0*
20,1,$1+$1,$4,$5,$6,$7,0*
20,1,$1+$1,$6,$7,$8,$9,0*
20,1,$1+$1,$8,$9,$2,$3,0*%
G04 Aperture macros list end*
%TA.AperFunction,SMDPad,CuDef*%
%ADD10RoundRect,0.250000X0.450000X-0.262500X0.450000X0.262500X-0.450000X0.262500X-0.450000X-0.262500X0*%
%TD*%
%TA.AperFunction,ComponentPad*%
%ADD11R,1.800000X1.800000*%
%TD*%
%TA.AperFunction,ComponentPad*%
%ADD12C,1.800000*%
%TD*%
%TA.AperFunction,ComponentPad*%
%ADD13R,2.800000X2.800000*%
%TD*%
%TA.AperFunction,ComponentPad*%
%ADD14C,2.800000*%
%TD*%
%TA.AperFunction,SMDPad,CuDef*%
%ADD15RoundRect,0.250000X-0.450000X0.262500X-0.450000X-0.262500X0.450000X-0.262500X0.450000X0.262500X0*%
%TD*%
%TA.AperFunction,SMDPad,CuDef*%
%ADD16RoundRect,0.250000X0.262500X0.450000X-0.262500X0.450000X-0.262500X-0.450000X0.262500X-0.450000X0*%
%TD*%
%TA.AperFunction,ComponentPad*%
%ADD17R,1.600000X1.600000*%
%TD*%
%TA.AperFunction,ComponentPad*%
%ADD18O,1.600000X1.600000*%
%TD*%
%TA.AperFunction,ViaPad*%
%ADD19C,1.000000*%
%TD*%
%TA.AperFunction,Conductor*%
%ADD20C,0.250000*%
%TD*%
%TA.AperFunction,Conductor*%
%ADD21C,0.300000*%
%TD*%
G04 APERTURE END LIST*
D10*
%TO.P,R9,1*%
%TO.N,LED_E*%
X100711000Y-101496500D03*
%TO.P,R9,2*%
%TO.N,Net-(D5-A)*%
X100711000Y-99671500D03*
%TD*%
D11*
%TO.P,D4,1,K*%
%TO.N,GND*%
X106680000Y-83566000D03*
D12*
%TO.P,D4,2,A*%
%TO.N,Net-(D4-A)*%
X109220000Y-83566000D03*
%TD*%
D13*
%TO.P,J1,1,Pin_1*%
%TO.N,D*%
X61214000Y-78613000D03*
D14*
%TO.P,J1,2,Pin_2*%
%TO.N,GND*%
X61214000Y-83693000D03*
%TO.P,J1,3,Pin_3*%
%TO.N,C*%
X61214000Y-88773000D03*
%TO.P,J1,4,Pin_4*%
%TO.N,GND*%
X61214000Y-93853000D03*
%TO.P,J1,5,Pin_5*%
%TO.N,B*%
X61214000Y-98933000D03*
%TO.P,J1,6,Pin_6*%
%TO.N,GND*%
X61214000Y-104013000D03*
%TO.P,J1,7,Pin_7*%
%TO.N,A*%
X61214000Y-109093000D03*
%TO.P,J1,8,Pin_8*%
%TO.N,GND*%
X61214000Y-114173000D03*
%TD*%
D11*
%TO.P,D5,1,K*%
%TO.N,GND*%
X96139000Y-83566000D03*
D12*
%TO.P,D5,2,A*%
%TO.N,Net-(D5-A)*%
X98679000Y-83566000D03*
%TD*%
D15*
%TO.P,R2,1*%
%TO.N,+5V*%
X97366666Y-110212500D03*
%TO.P,R2,2*%
%TO.N,C*%
X97366666Y-112037500D03*
%TD*%
D10*
%TO.P,R7,1*%
%TO.N,LED_B*%
X107696000Y-105052500D03*
%TO.P,R7,2*%
%TO.N,Net-(D3-A)*%
X107696000Y-103227500D03*
%TD*%
D15*
%TO.P,R1,1*%
%TO.N,+5V*%
X100965000Y-110212500D03*
%TO.P,R1,2*%
%TO.N,D*%
X100965000Y-112037500D03*
%TD*%
D11*
%TO.P,D1,1,K*%
%TO.N,GND*%
X91694000Y-105283000D03*
D12*
%TO.P,D1,2,A*%
%TO.N,Net-(D1-A)*%
X94234000Y-105283000D03*
%TD*%
D10*
%TO.P,R6,1*%
%TO.N,LED_C*%
X76454000Y-117879500D03*
%TO.P,R6,2*%
%TO.N,Net-(D2-A)*%
X76454000Y-116054500D03*
%TD*%
%TO.P,R10,1*%
%TO.N,LED_F*%
X79375000Y-94638500D03*
%TO.P,R10,2*%
%TO.N,Net-(D6-A)*%
X79375000Y-92813500D03*
%TD*%
D16*
%TO.P,R5,1*%
%TO.N,LED_A*%
X100734500Y-105283000D03*
%TO.P,R5,2*%
%TO.N,Net-(D1-A)*%
X98909500Y-105283000D03*
%TD*%
D11*
%TO.P,D2,1,K*%
%TO.N,GND*%
X75438000Y-109347000D03*
D12*
%TO.P,D2,2,A*%
%TO.N,Net-(D2-A)*%
X77978000Y-109347000D03*
%TD*%
D11*
%TO.P,D3,1,K*%
%TO.N,GND*%
X105156000Y-97028000D03*
D12*
%TO.P,D3,2,A*%
%TO.N,Net-(D3-A)*%
X107696000Y-97028000D03*
%TD*%
D15*
%TO.P,R4,1*%
%TO.N,+5V*%
X90170000Y-110212500D03*
%TO.P,R4,2*%
%TO.N,A*%
X90170000Y-112037500D03*
%TD*%
%TO.P,R3,1*%
%TO.N,+5V*%
X93768333Y-110212500D03*
%TO.P,R3,2*%
%TO.N,B*%
X93768333Y-112037500D03*
%TD*%
D11*
%TO.P,D6,1,K*%
%TO.N,GND*%
X76962000Y-85979000D03*
D12*
%TO.P,D6,2,A*%
%TO.N,Net-(D6-A)*%
X79502000Y-85979000D03*
%TD*%
D10*
%TO.P,R8,1*%
%TO.N,LED_D*%
X111633000Y-105052500D03*
%TO.P,R8,2*%
%TO.N,Net-(D4-A)*%
X111633000Y-103227500D03*
%TD*%
D17*
%TO.P,A1,1,NC*%
%TO.N,unconnected-(A1-NC-Pad1)*%
X96647000Y-72390000D03*
D18*
%TO.P,A1,2,IOREF*%
%TO.N,unconnected-(A1-IOREF-Pad2)*%
X94107000Y-72390000D03*
%TO.P,A1,3,~{RESET}*%
%TO.N,unconnected-(A1-~{RESET}-Pad3)*%
X91567000Y-72390000D03*
%TO.P,A1,4,3V3*%
%TO.N,unconnected-(A1-3V3-Pad4)*%
X89027000Y-72390000D03*
%TO.P,A1,5,+5V*%
%TO.N,+5V*%
X86487000Y-72390000D03*
%TO.P,A1,6,GND*%
%TO.N,GND*%
X83947000Y-72390000D03*
%TO.P,A1,7,GND*%
X81407000Y-72390000D03*
%TO.P,A1,8,VIN*%
%TO.N,unconnected-(A1-VIN-Pad8)*%
X78867000Y-72390000D03*
%TO.P,A1,9,A0*%
%TO.N,unconnected-(A1-A0-Pad9)*%
X73787000Y-72390000D03*
%TO.P,A1,10,A1*%
%TO.N,unconnected-(A1-A1-Pad10)*%
X71247000Y-72390000D03*
%TO.P,A1,11,A2*%
%TO.N,unconnected-(A1-A2-Pad11)*%
X68707000Y-72390000D03*
%TO.P,A1,12,A3*%
%TO.N,unconnected-(A1-A3-Pad12)*%
X66167000Y-72390000D03*
%TO.P,A1,13,A4*%
%TO.N,unconnected-(A1-A4-Pad13)*%
X63627000Y-72390000D03*
%TO.P,A1,14,A5*%
%TO.N,unconnected-(A1-A5-Pad14)*%
X61087000Y-72390000D03*
%TO.P,A1,15,D0/RX*%
%TO.N,unconnected-(A1-D0{slash}RX-Pad15)*%
X61087000Y-120650000D03*
%TO.P,A1,16,D1/TX*%
%TO.N,unconnected-(A1-D1{slash}TX-Pad16)*%
X63627000Y-120650000D03*
%TO.P,A1,17,D2/SDA*%
%TO.N,unconnected-(A1-D2{slash}SDA-Pad17)*%
X66167000Y-120650000D03*
%TO.P,A1,18,D3/SCL*%
%TO.N,unconnected-(A1-D3{slash}SCL-Pad18)*%
X68707000Y-120650000D03*
%TO.P,A1,19,D4*%
%TO.N,LED_A*%
X71247000Y-120650000D03*
%TO.P,A1,20,D5*%
%TO.N,LED_B*%
X73787000Y-120650000D03*
%TO.P,A1,21,D6*%
%TO.N,LED_C*%
X76327000Y-120650000D03*
%TO.P,A1,22,D7*%
%TO.N,LED_D*%
X78867000Y-120650000D03*
%TO.P,A1,23,D8*%
%TO.N,LED_E*%
X82927000Y-120650000D03*
%TO.P,A1,24,D9*%
%TO.N,LED_F*%
X85467000Y-120650000D03*
%TO.P,A1,25,D10*%
%TO.N,A*%
X88007000Y-120650000D03*
%TO.P,A1,26,D11*%
%TO.N,B*%
X90547000Y-120650000D03*
%TO.P,A1,27,D12*%
%TO.N,C*%
X93087000Y-120650000D03*
%TO.P,A1,28,D13*%
%TO.N,D*%
X95627000Y-120650000D03*
%TO.P,A1,29,GND*%
%TO.N,GND*%
X98167000Y-120650000D03*
%TO.P,A1,30,AREF*%
%TO.N,unconnected-(A1-AREF-Pad30)*%
X100707000Y-120650000D03*
%TO.P,A1,31,SDA/D2*%
%TO.N,unconnected-(A1-SDA{slash}D2-Pad31)*%
X103247000Y-120650000D03*
%TO.P,A1,32,SCL/D3*%
%TO.N,unconnected-(A1-SCL{slash}D3-Pad32)*%
X105787000Y-120650000D03*
%TD*%
D19*
%TO.N,GND*%
X79248000Y-98044000D03*
X101727000Y-114046000D03*
X97790000Y-114046000D03*
X94107000Y-113919000D03*
X78740000Y-117602000D03*
X90297000Y-113919000D03*
%TO.N,LED_A*%
X104167000Y-115951000D03*
X72771000Y-117094000D03*
%TO.N,LED_B*%
X75057000Y-122301000D03*
X104648000Y-118872000D03*
%TO.N,LED_E*%
X104134763Y-117461036D03*
X84455000Y-117348000D03*
%TO.N,A*%
X67183000Y-118618000D03*
%TO.N,B*%
X68326000Y-117602000D03*
%TO.N,C*%
X68961000Y-110617000D03*
X95758000Y-112014000D03*
%TO.N,D*%
X69977000Y-109474000D03*
X99187000Y-112014000D03*
%TD*%
D20*
%TO.N,+5V*%
X93768333Y-110212500D02*
X97366666Y-110212500D01*
D21*
X90170000Y-76073000D02*
X86487000Y-72390000D01*
D20*
X97366666Y-110212500D02*
X100965000Y-110212500D01*
D21*
X90170000Y-110212500D02*
X90170000Y-76073000D01*
D20*
X93768333Y-110212500D02*
X90170000Y-110212500D01*
%TO.N,LED_A*%
X104267000Y-115851000D02*
X104267000Y-108815500D01*
X71247000Y-120650000D02*
X71247000Y-118618000D01*
X71247000Y-118618000D02*
X72771000Y-117094000D01*
X104167000Y-115951000D02*
X104267000Y-115851000D01*
X104267000Y-108815500D02*
X100734500Y-105283000D01*
%TO.N,LED_B*%
X104648000Y-118364000D02*
X107696000Y-115316000D01*
X107696000Y-115316000D02*
X107696000Y-105052500D01*
X73787000Y-121031000D02*
X75057000Y-122301000D01*
X73787000Y-120650000D02*
X73787000Y-121031000D01*
X104648000Y-118872000D02*
X104648000Y-118364000D01*
%TO.N,LED_C*%
X76327000Y-118006500D02*
X76454000Y-117879500D01*
X76327000Y-120650000D02*
X76327000Y-118006500D01*
%TO.N,LED_D*%
X80092000Y-121875000D02*
X106294412Y-121875000D01*
X78867000Y-120650000D02*
X80092000Y-121875000D01*
X106294412Y-121875000D02*
X111633000Y-116536412D01*
X111633000Y-116536412D02*
X111633000Y-105052500D01*
%TO.N,LED_E*%
X82927000Y-118876000D02*
X82927000Y-120650000D01*
X105092000Y-105877500D02*
X100711000Y-101496500D01*
X104134763Y-117461036D02*
X105092000Y-116503799D01*
X84455000Y-117348000D02*
X82927000Y-118876000D01*
X105092000Y-116503799D02*
X105092000Y-105877500D01*
%TO.N,LED_F*%
X85467000Y-120650000D02*
X85467000Y-100730500D01*
X85467000Y-100730500D02*
X79375000Y-94638500D01*
%TO.N,A*%
X88007000Y-114200500D02*
X90170000Y-112037500D01*
X67183000Y-118618000D02*
X67183000Y-115062000D01*
X88007000Y-120650000D02*
X88007000Y-114200500D01*
X67183000Y-115062000D02*
X61214000Y-109093000D01*
%TO.N,B*%
X68036000Y-117312000D02*
X68036000Y-105755000D01*
X90547000Y-120650000D02*
X90547000Y-115258833D01*
X68326000Y-117602000D02*
X68036000Y-117312000D01*
X90547000Y-115258833D02*
X93768333Y-112037500D01*
X68036000Y-105755000D02*
X61214000Y-98933000D01*
%TO.N,C*%
X97366666Y-112310334D02*
X97366666Y-112037500D01*
X68961000Y-110617000D02*
X68961000Y-96520000D01*
X95781500Y-112037500D02*
X95758000Y-112014000D01*
X93087000Y-116590000D02*
X97366666Y-112310334D01*
X97366666Y-112037500D02*
X95781500Y-112037500D01*
X93087000Y-120650000D02*
X93087000Y-116590000D01*
X68961000Y-96520000D02*
X61214000Y-88773000D01*
%TO.N,D*%
X69977000Y-89875060D02*
X61214000Y-81112060D01*
X99210500Y-112037500D02*
X99187000Y-112014000D01*
X95627000Y-120650000D02*
X95627000Y-117987000D01*
X69977000Y-109474000D02*
X69977000Y-89875060D01*
X95627000Y-117987000D02*
X100965000Y-112649000D01*
X61214000Y-81112060D02*
X61214000Y-78613000D01*
X100965000Y-112649000D02*
X100965000Y-112037500D01*
X100965000Y-112037500D02*
X99210500Y-112037500D01*
D21*
%TO.N,Net-(D1-A)*%
X94234000Y-105283000D02*
X98909500Y-105283000D01*
D20*
%TO.N,Net-(D2-A)*%
X76454000Y-110871000D02*
X77978000Y-109347000D01*
X76454000Y-116054500D02*
X76454000Y-110871000D01*
%TO.N,Net-(D3-A)*%
X107696000Y-103227500D02*
X107696000Y-97028000D01*
%TO.N,Net-(D4-A)*%
X111633000Y-85979000D02*
X109220000Y-83566000D01*
X111633000Y-103227500D02*
X111633000Y-85979000D01*
%TO.N,Net-(D5-A)*%
X100711000Y-99671500D02*
X100711000Y-85598000D01*
X100711000Y-85598000D02*
X98679000Y-83566000D01*
%TO.N,Net-(D6-A)*%
X79375000Y-86106000D02*
X79502000Y-85979000D01*
X79375000Y-92813500D02*
X79375000Y-86106000D01*
%TD*%
%TA.AperFunction,Conductor*%
%TO.N,GND*%
G36*
X124529539Y-69870185D02*
G01*
X124575294Y-69922989D01*
X124586500Y-69974500D01*
X124586500Y-123319500D01*
X124566815Y-123386539D01*
X124514011Y-123432294D01*
X124462500Y-123443500D01*
X75536985Y-123443500D01*
X75469946Y-123423815D01*
X75424191Y-123371011D01*
X75414247Y-123301853D01*
X75443272Y-123238297D01*
X75478532Y-123210142D01*
X75615532Y-123136913D01*
X75615538Y-123136910D01*
X75767883Y-123011883D01*
X75892910Y-122859538D01*
X75985814Y-122685727D01*
X76043024Y-122497132D01*
X76062341Y-122301000D01*
X76043024Y-122104868D01*
X76041967Y-122101386D01*
X76041950Y-122099469D01*
X76041836Y-122098893D01*
X76041945Y-122098871D01*
X76041339Y-122031522D01*
X76078584Y-121972406D01*
X76141876Y-121942811D01*
X76171427Y-121941857D01*
X76310246Y-121954002D01*
X76326999Y-121955468D01*
X76327000Y-121955468D01*
X76327002Y-121955468D01*
X76396220Y-121949412D01*
X76553692Y-121935635D01*
X76773496Y-121876739D01*
X76979734Y-121780568D01*
X77166139Y-121650047D01*
X77327047Y-121489139D01*
X77457568Y-121302734D01*
X77484618Y-121244724D01*
X77530790Y-121192285D01*
X77597983Y-121173133D01*
X77664865Y-121193348D01*
X77709381Y-121244724D01*
X77723517Y-121275038D01*
X77736429Y-121302728D01*
X77736432Y-121302734D01*
X77866954Y-121489141D01*
X78027858Y-121650045D01*
X78027861Y-121650047D01*
X78214266Y-121780568D01*
X78420504Y-121876739D01*
X78640308Y-121935635D01*
X78797780Y-121949412D01*
X78866998Y-121955468D01*
X78867000Y-121955468D01*
X78867002Y-121955468D01*
X78936220Y-121949412D01*
X79093692Y-121935635D01*
X79162048Y-121917319D01*
X79231896Y-121918980D01*
X79281822Y-121949412D01*
X79591194Y-122258784D01*
X79601019Y-122271048D01*
X79601240Y-122270866D01*
X79606210Y-122276874D01*
X79655239Y-122322915D01*
X79658036Y-122325626D01*
X79677530Y-122345120D01*
X79680695Y-122347575D01*
X79689571Y-122355156D01*
X79721418Y-122385062D01*
X79721422Y-122385064D01*
X79738973Y-122394713D01*
X79755231Y-122405392D01*
X79771064Y-122417674D01*
X79806410Y-122432968D01*
X79811155Y-122435022D01*
X79821635Y-122440155D01*
X79859908Y-122461197D01*
X79879312Y-122466179D01*
X79897710Y-122472478D01*
X79916105Y-122480438D01*
X79959254Y-122487271D01*
X79970680Y-122489638D01*
X80012981Y-122500500D01*
X80033016Y-122500500D01*
X80052413Y-122502026D01*
X80072196Y-122505160D01*
X80115675Y-122501050D01*
X80127344Y-122500500D01*
X106211669Y-122500500D01*
X106227289Y-122502224D01*
X106227316Y-122501939D01*
X106235072Y-122502671D01*
X106235079Y-122502673D01*
X106302285Y-122500561D01*
X106306180Y-122500500D01*
X106333758Y-122500500D01*
X106333762Y-122500500D01*
X106337736Y-122499997D01*
X106349375Y-122499080D01*
X106393039Y-122497709D01*
X106412281Y-122492117D01*
X106431324Y-122488174D01*
X106451204Y-122485664D01*
X106491813Y-122469585D01*
X106502856Y-122465803D01*
X106544802Y-122453618D01*
X106562041Y-122443422D01*
X106579515Y-122434862D01*
X106598139Y-122427488D01*
X106598139Y-122427487D01*
X106598144Y-122427486D01*
X106633495Y-122401800D01*
X106643226Y-122395408D01*
X106680832Y-122373170D01*
X106695001Y-122358999D01*
X106709791Y-122346368D01*
X106725999Y-122334594D01*
X106753850Y-122300926D01*
X106761691Y-122292309D01*
X112016786Y-117037214D01*
X112029048Y-117027392D01*
X112028865Y-117027171D01*
X112034868Y-117022203D01*
X112034877Y-117022198D01*
X112080934Y-116973151D01*
X112083582Y-116970418D01*
X112103120Y-116950882D01*
X112105570Y-116947722D01*
X112113154Y-116938841D01*
X112143062Y-116906994D01*
X112152714Y-116889435D01*
X112163389Y-116873184D01*
X112175674Y-116857348D01*
X112193030Y-116817237D01*
X112198161Y-116806766D01*
X112219194Y-116768510D01*
X112219194Y-116768509D01*
X112219197Y-116768504D01*
X112224180Y-116749092D01*
X112230477Y-116730703D01*
X112238438Y-116712307D01*
X112245270Y-116669160D01*
X112247639Y-116657728D01*
X112253132Y-116636336D01*
X112258500Y-116615431D01*
X112258500Y-116595395D01*
X112260027Y-116575994D01*
X112263160Y-116556216D01*
X112259050Y-116512736D01*
X112258500Y-116501067D01*
X112258500Y-106137016D01*
X112278185Y-106069977D01*
X112330989Y-106024222D01*
X112343488Y-106019313D01*
X112402334Y-105999814D01*
X112551656Y-105907712D01*
X112675712Y-105783656D01*
X112767814Y-105634334D01*
X112822999Y-105467797D01*
X112833500Y-105365009D01*
X112833499Y-104739992D01*
X112827391Y-104680203D01*
X112822999Y-104637203D01*
X112822998Y-104637200D01*
X112815360Y-104614151D01*
X112767814Y-104470666D01*
X112675712Y-104321344D01*
X112582049Y-104227681D01*
X112548564Y-104166358D01*
X112553548Y-104096666D01*
X112582049Y-104052319D01*
X112621370Y-104012998D01*
X112675712Y-103958656D01*
X112767814Y-103809334D01*
X112822999Y-103642797D01*
X112833500Y-103540009D01*
X112833499Y-102914992D01*
X112827664Y-102857875D01*
X112822999Y-102812203D01*
X112822998Y-102812200D01*
X112767814Y-102645666D01*
X112675712Y-102496344D01*
X112551656Y-102372288D01*
X112402334Y-102280186D01*
X112343493Y-102260688D01*
X112286051Y-102220916D01*
X112259228Y-102156400D01*
X112258500Y-102142983D01*
X112258500Y-86061737D01*
X112260224Y-86046123D01*
X112259938Y-86046096D01*
X112260672Y-86038333D01*
X112258561Y-85971144D01*
X112258500Y-85967250D01*
X112258500Y-85939651D01*
X112258500Y-85939650D01*
X112257997Y-85935670D01*
X112257080Y-85924021D01*
X112256591Y-85908452D01*
X112255709Y-85880373D01*
X112250121Y-85861139D01*
X112246174Y-85842081D01*
X112243664Y-85822208D01*
X112243095Y-85820771D01*
X112227583Y-85781592D01*
X112223799Y-85770539D01*
X112211618Y-85728615D01*
X112211617Y-85728610D01*
X112201420Y-85711368D01*
X112192863Y-85693902D01*
X112185486Y-85675268D01*
X112159809Y-85639926D01*
X112153412Y-85630190D01*
X112131170Y-85592579D01*
X112131167Y-85592576D01*
X112131165Y-85592573D01*
X112117005Y-85578413D01*
X112104370Y-85563620D01*
X112092593Y-85547412D01*
X112058945Y-85519576D01*
X112050304Y-85511713D01*
X110601349Y-84062758D01*
X110567864Y-84001435D01*
X110568824Y-83944636D01*
X110569490Y-83942007D01*
X110606134Y-83797305D01*
X110606446Y-83793541D01*
X110625300Y-83566006D01*
X110625300Y-83565993D01*
X110606135Y-83334702D01*
X110606133Y-83334691D01*
X110549157Y-83109699D01*
X110455924Y-82897151D01*
X110328983Y-82702852D01*
X110328980Y-82702849D01*
X110328979Y-82702847D01*
X110171784Y-82532087D01*
X110171779Y-82532083D01*
X110171777Y-82532081D01*
X109988634Y-82389535D01*
X109988628Y-82389531D01*
X109784504Y-82279064D01*
X109784495Y-82279061D01*
X109564984Y-82203702D01*
X109377404Y-82172401D01*
X109336049Y-82165500D01*
X109103951Y-82165500D01*
X109062596Y-82172401D01*
X108875015Y-82203702D01*
X108655504Y-82279061D01*
X108655495Y-82279064D01*
X108451371Y-82389531D01*
X108451365Y-82389535D01*
X108268222Y-82532081D01*
X108268215Y-82532087D01*
X108259484Y-82541572D01*
X108199595Y-82577561D01*
X108129757Y-82575458D01*
X108072143Y-82535932D01*
X108052075Y-82500918D01*
X108023355Y-82423915D01*
X108023350Y-82423906D01*
X107937190Y-82308812D01*
X107937187Y-82308809D01*
X107822093Y-82222649D01*
X107822086Y-82222645D01*
X107687379Y-82172403D01*
X107687372Y-82172401D01*
X107627844Y-82166000D01*
X106930000Y-82166000D01*
X106930000Y-83191810D01*
X106877453Y-83155984D01*
X106747827Y-83116000D01*
X106646276Y-83116000D01*
X106545862Y-83131135D01*
X106430000Y-83186931D01*
X106430000Y-82166000D01*
X105732155Y-82166000D01*
X105672627Y-82172401D01*
X105672620Y-82172403D01*
X105537913Y-82222645D01*
X105537906Y-82222649D01*
X105422812Y-82308809D01*
X105422809Y-82308812D01*
X105336649Y-82423906D01*
X105336645Y-82423913D01*
X105286403Y-82558620D01*
X105286401Y-82558627D01*
X105280000Y-82618155D01*
X105280000Y-83316000D01*
X106304722Y-83316000D01*
X106256375Y-83399740D01*
X106226190Y-83531992D01*
X106236327Y-83667265D01*
X106285887Y-83793541D01*
X106303797Y-83816000D01*
X105280000Y-83816000D01*
X105280000Y-84513844D01*
X105286401Y-84573372D01*
X105286403Y-84573379D01*
X105336645Y-84708086D01*
X105336649Y-84708093D01*
X105422809Y-84823187D01*
X105422812Y-84823190D01*
X105537906Y-84909350D01*
X105537913Y-84909354D01*
X105672620Y-84959596D01*
X105672627Y-84959598D01*
X105732155Y-84965999D01*
X105732172Y-84966000D01*
X106430000Y-84966000D01*
X106430000Y-83940189D01*
X106482547Y-83976016D01*
X106612173Y-84016000D01*
X106713724Y-84016000D01*
X106814138Y-84000865D01*
X106930000Y-83945068D01*
X106930000Y-84966000D01*
X107627828Y-84966000D01*
X107627844Y-84965999D01*
X107687372Y-84959598D01*
X107687379Y-84959596D01*
X107822086Y-84909354D01*
X107822093Y-84909350D01*
X107937187Y-84823190D01*
X107937190Y-84823187D01*
X108023350Y-84708093D01*
X108023355Y-84708084D01*
X108052075Y-84631081D01*
X108093945Y-84575147D01*
X108159409Y-84550729D01*
X108227682Y-84565580D01*
X108259484Y-84590428D01*
X108268216Y-84599913D01*
X108268219Y-84599915D01*
X108268222Y-84599918D01*
X108451365Y-84742464D01*
X108451371Y-84742468D01*
X108451374Y-84742470D01*
X108655497Y-84852936D01*
X108769487Y-84892068D01*
X108875015Y-84928297D01*
X108875017Y-84928297D01*
X108875019Y-84928298D01*
X109103951Y-84966500D01*
X109103952Y-84966500D01*
X109336048Y-84966500D01*
X109336049Y-84966500D01*
X109564981Y-84928298D01*
X109590576Y-84919510D01*
X109660371Y-84916359D01*
X109718520Y-84949110D01*
X110971181Y-86201771D01*
X111004666Y-86263094D01*
X111007500Y-86289452D01*
X111007500Y-102142983D01*
X110987815Y-102210022D01*
X110935011Y-102255777D01*
X110922510Y-102260686D01*
X110863666Y-102280186D01*
X110863663Y-102280187D01*
X110714342Y-102372289D01*
X110590289Y-102496342D01*
X110498187Y-102645663D01*
X110498186Y-102645666D01*
X110443001Y-102812203D01*
X110443001Y-102812204D01*
X110443000Y-102812204D01*
X110432500Y-102914983D01*
X110432500Y-103540001D01*
X110432501Y-103540019D01*
X110443000Y-103642796D01*
X110443001Y-103642799D01*
X110481507Y-103759000D01*
X110498186Y-103809334D01*
X110578564Y-103939649D01*
X110590289Y-103958657D01*
X110683951Y-104052319D01*
X110717436Y-104113642D01*
X110712452Y-104183334D01*
X110683951Y-104227681D01*
X110590289Y-104321342D01*
X110498187Y-104470663D01*
X110498185Y-104470668D01*
X110472724Y-104547506D01*
X110443001Y-104637203D01*
X110443001Y-104637204D01*
X110443000Y-104637204D01*
X110432500Y-104739983D01*
X110432500Y-105365001D01*
X110432501Y-105365019D01*
X110443000Y-105467796D01*
X110443001Y-105467799D01*
X110498185Y-105634331D01*
X110498187Y-105634336D01*
X110533069Y-105690888D01*
X110590288Y-105783656D01*
X110714344Y-105907712D01*
X110863666Y-105999814D01*
X110863668Y-105999815D01*
X110882301Y-106005989D01*
X110922502Y-106019310D01*
X110979947Y-106059081D01*
X111006772Y-106123596D01*
X111007500Y-106137016D01*
X111007500Y-116225958D01*
X110987815Y-116292997D01*
X110971181Y-116313639D01*
X107160450Y-120124369D01*
X107099127Y-120157854D01*
X107029435Y-120152870D01*
X106973502Y-120110998D01*
X106960387Y-120089092D01*
X106917685Y-119997518D01*
X106917568Y-119997266D01*
X106787047Y-119810861D01*
X106787045Y-119810858D01*
X106626141Y-119649954D01*
X106439734Y-119519432D01*
X106439732Y-119519431D01*
X106233497Y-119423261D01*
X106233488Y-119423258D01*
X106013697Y-119364366D01*
X106013693Y-119364365D01*
X106013692Y-119364365D01*
X106013691Y-119364364D01*
X106013686Y-119364364D01*
X105787002Y-119344532D01*
X105786998Y-119344532D01*
X105726429Y-119349831D01*
X105657929Y-119336064D01*
X105607746Y-119287449D01*
X105591813Y-119219420D01*
X105596962Y-119190307D01*
X105634024Y-119068132D01*
X105653341Y-118872000D01*
X105634024Y-118675868D01*
X105576814Y-118487273D01*
X105561821Y-118459223D01*
X105547579Y-118390825D01*
X105572577Y-118325580D01*
X105583490Y-118313098D01*
X108079788Y-115816801D01*
X108092042Y-115806986D01*
X108091859Y-115806764D01*
X108097868Y-115801791D01*
X108097877Y-115801786D01*
X108143949Y-115752722D01*
X108146566Y-115750023D01*
X108166120Y-115730471D01*
X108168576Y-115727303D01*
X108176156Y-115718427D01*
X108206062Y-115686582D01*
X108215715Y-115669020D01*
X108226389Y-115652770D01*
X108238673Y-115636936D01*
X108256019Y-115596850D01*
X108261157Y-115586362D01*
X108270546Y-115569285D01*
X108282197Y-115548092D01*
X108287177Y-115528691D01*
X108293478Y-115510288D01*
X108301438Y-115491896D01*
X108308272Y-115448741D01*
X108310635Y-115437331D01*
X108321500Y-115395019D01*
X108321500Y-115374983D01*
X108323027Y-115355582D01*
X108326160Y-115335804D01*
X108322050Y-115292324D01*
X108321500Y-115280655D01*
X108321500Y-106137016D01*
X108341185Y-106069977D01*
X108393989Y-106024222D01*
X108406488Y-106019313D01*
X108465334Y-105999814D01*
X108614656Y-105907712D01*
X108738712Y-105783656D01*
X108830814Y-105634334D01*
X108885999Y-105467797D01*
X108896500Y-105365009D01*
X108896499Y-104739992D01*
X108890391Y-104680203D01*
X108885999Y-104637203D01*
X108885998Y-104637200D01*
X108878360Y-104614151D01*
X108830814Y-104470666D01*
X108738712Y-104321344D01*
X108645049Y-104227681D01*
X108611564Y-104166358D01*
X108616548Y-104096666D01*
X108645049Y-104052319D01*
X108684370Y-104012998D01*
X108738712Y-103958656D01*
X108830814Y-103809334D01*
X108885999Y-103642797D01*
X108896500Y-103540009D01*
X108896499Y-102914992D01*
X108890664Y-102857875D01*
X108885999Y-102812203D01*
X108885998Y-102812200D01*
X108830814Y-102645666D01*
X108738712Y-102496344D01*
X108614656Y-102372288D01*
X108465334Y-102280186D01*
X108406493Y-102260688D01*
X108349051Y-102220916D01*
X108322228Y-102156400D01*
X108321500Y-102142983D01*
X108321500Y-98355814D01*
X108341185Y-98288775D01*
X108386483Y-98246759D01*
X108395200Y-98242041D01*
X108464626Y-98204470D01*
X108647784Y-98061913D01*
X108804979Y-97891153D01*
X108931924Y-97696849D01*
X109025157Y-97484300D01*
X109082134Y-97259305D01*
X109087062Y-97199830D01*
X109101300Y-97028006D01*
X109101300Y-97027993D01*
X109082135Y-96796702D01*
X109082133Y-96796691D01*
X109025157Y-96571699D01*
X108931924Y-96359151D01*
X108804983Y-96164852D01*
X108804980Y-96164849D01*
X108804979Y-96164847D01*
X108647784Y-95994087D01*
X108647779Y-95994083D01*
X108647777Y-95994081D01*
X108464634Y-95851535D01*
X108464628Y-95851531D01*
X108260504Y-95741064D01*
X108260495Y-95741061D01*
X108040984Y-95665702D01*
X107853404Y-95634401D01*
X107812049Y-95627500D01*
X107579951Y-95627500D01*
X107538596Y-95634401D01*
X107351015Y-95665702D01*
X107131504Y-95741061D01*
X107131495Y-95741064D01*
X106927371Y-95851531D01*
X106927365Y-95851535D01*
X106744222Y-95994081D01*
X106744215Y-95994087D01*
X106735484Y-96003572D01*
X106675595Y-96039561D01*
X106605757Y-96037458D01*
X106548143Y-95997932D01*
X106528075Y-95962918D01*
X106499355Y-95885915D01*
X106499350Y-95885906D01*
X106413190Y-95770812D01*
X106413187Y-95770809D01*
X106298093Y-95684649D01*
X106298086Y-95684645D01*
X106163379Y-95634403D01*
X106163372Y-95634401D01*
X106103844Y-95628000D01*
X105406000Y-95628000D01*
X105406000Y-96653810D01*
X105353453Y-96617984D01*
X105223827Y-96578000D01*
X105122276Y-96578000D01*
X105021862Y-96593135D01*
X104906000Y-96648931D01*
X104906000Y-95628000D01*
X104208155Y-95628000D01*
X104148627Y-95634401D01*
X104148620Y-95634403D01*
X104013913Y-95684645D01*
X104013906Y-95684649D01*
X103898812Y-95770809D01*
X103898809Y-95770812D01*
X103812649Y-95885906D01*
X103812645Y-95885913D01*
X103762403Y-96020620D01*
X103762401Y-96020627D01*
X103756000Y-96080155D01*
X103756000Y-96778000D01*
X104780722Y-96778000D01*
X104732375Y-96861740D01*
X104702190Y-96993992D01*
X104712327Y-97129265D01*
X104761887Y-97255541D01*
X104779797Y-97278000D01*
X103756000Y-97278000D01*
X103756000Y-97975844D01*
X103762401Y-98035372D01*
X103762403Y-98035379D01*
X103812645Y-98170086D01*
X103812649Y-98170093D01*
X103898809Y-98285187D01*
X103898812Y-98285190D01*
X104013906Y-98371350D01*
X104013913Y-98371354D01*
X104148620Y-98421596D01*
X104148627Y-98421598D01*
X104208155Y-98427999D01*
X104208172Y-98428000D01*
X104906000Y-98428000D01*
X104906000Y-97402189D01*
X104958547Y-97438016D01*
X105088173Y-97478000D01*
X105189724Y-97478000D01*
X105290138Y-97462865D01*
X105406000Y-97407068D01*
X105406000Y-98428000D01*
X106103828Y-98428000D01*
X106103844Y-98427999D01*
X106163372Y-98421598D01*
X106163379Y-98421596D01*
X106298086Y-98371354D01*
X106298093Y-98371350D01*
X106413187Y-98285190D01*
X106413190Y-98285187D01*
X106499350Y-98170093D01*
X106499355Y-98170084D01*
X106528075Y-98093081D01*
X106569945Y-98037147D01*
X106635409Y-98012729D01*
X106703682Y-98027580D01*
X106735484Y-98052428D01*
X106744216Y-98061913D01*
X106744219Y-98061915D01*
X106744222Y-98061918D01*
X106927365Y-98204464D01*
X106927376Y-98204471D01*
X107005517Y-98246759D01*
X107055108Y-98295978D01*
X107070500Y-98355814D01*
X107070500Y-102142983D01*
X107050815Y-102210022D01*
X106998011Y-102255777D01*
X106985510Y-102260686D01*
X106926666Y-102280186D01*
X106926663Y-102280187D01*
X106777342Y-102372289D01*
X106653289Y-102496342D01*
X106561187Y-102645663D01*
X106561186Y-102645666D01*
X106506001Y-102812203D01*
X106506001Y-102812204D01*
X106506000Y-102812204D01*
X106495500Y-102914983D01*
X106495500Y-103540001D01*
X106495501Y-103540019D01*
X106506000Y-103642796D01*
X106506001Y-103642799D01*
X106544507Y-103759000D01*
X106561186Y-103809334D01*
X106641564Y-103939649D01*
X106653289Y-103958657D01*
X106746951Y-104052319D01*
X106780436Y-104113642D01*
X106775452Y-104183334D01*
X106746951Y-104227681D01*
X106653289Y-104321342D01*
X106561187Y-104470663D01*
X106561185Y-104470668D01*
X106535724Y-104547506D01*
X106506001Y-104637203D01*
X106506001Y-104637204D01*
X106506000Y-104637204D01*
X106495500Y-104739983D01*
X106495500Y-105365001D01*
X106495501Y-105365019D01*
X106506000Y-105467796D01*
X106506001Y-105467799D01*
X106561185Y-105634331D01*
X106561187Y-105634336D01*
X106596069Y-105690888D01*
X106653288Y-105783656D01*
X106777344Y-105907712D01*
X106926666Y-105999814D01*
X106926668Y-105999815D01*
X106945301Y-106005989D01*
X106985502Y-106019310D01*
X107042947Y-106059081D01*
X107069772Y-106123596D01*
X107070500Y-106137016D01*
X107070500Y-115005547D01*
X107050815Y-115072586D01*
X107034181Y-115093228D01*
X105929181Y-116198228D01*
X105867858Y-116231713D01*
X105798166Y-116226729D01*
X105742233Y-116184857D01*
X105717816Y-116119393D01*
X105717500Y-116110547D01*
X105717500Y-105960242D01*
X105719224Y-105944622D01*
X105718939Y-105944595D01*
X105719673Y-105936833D01*
X105717561Y-105869612D01*
X105717500Y-105865718D01*
X105717500Y-105838156D01*
X105717500Y-105838150D01*
X105716996Y-105834168D01*
X105716081Y-105822529D01*
X105714710Y-105778873D01*
X105709119Y-105759630D01*
X105705173Y-105740578D01*
X105702664Y-105720708D01*
X105686579Y-105680083D01*
X105682806Y-105669062D01*
X105670618Y-105627110D01*
X105670617Y-105627109D01*
X105670617Y-105627107D01*
X105670616Y-105627106D01*
X105660423Y-105609871D01*
X105651861Y-105592394D01*
X105644487Y-105573769D01*
X105618816Y-105538437D01*
X105612405Y-105528677D01*
X105590170Y-105491080D01*
X105590168Y-105491078D01*
X105590165Y-105491074D01*
X105576006Y-105476915D01*
X105563368Y-105462119D01*
X105551594Y-105445913D01*
X105517940Y-105418072D01*
X105509299Y-105410209D01*
X101947818Y-101848728D01*
X101914333Y-101787405D01*
X101911499Y-101761055D01*
X101911499Y-101183992D01*
X101900999Y-101081203D01*
X101845814Y-100914666D01*
X101753712Y-100765344D01*
X101660049Y-100671681D01*
X101626564Y-100610358D01*
X101631548Y-100540666D01*
X101660049Y-100496319D01*
X101701901Y-100454467D01*
X101753712Y-100402656D01*
X101845814Y-100253334D01*
X101900999Y-100086797D01*
X101911500Y-99984009D01*
X101911499Y-99358992D01*
X101900999Y-99256203D01*
X101845814Y-99089666D01*
X101753712Y-98940344D01*
X101629656Y-98816288D01*
X101480334Y-98724186D01*
X101421493Y-98704688D01*
X101364051Y-98664916D01*
X101337228Y-98600400D01*
X101336500Y-98586983D01*
X101336500Y-85680742D01*
X101338224Y-85665122D01*
X101337939Y-85665096D01*
X101338671Y-85657340D01*
X101338673Y-85657333D01*
X101336561Y-85590126D01*
X101336500Y-85586231D01*
X101336500Y-85558654D01*
X101336500Y-85558650D01*
X101335996Y-85554665D01*
X101335080Y-85543021D01*
X101333709Y-85499373D01*
X101328122Y-85480144D01*
X101324174Y-85461084D01*
X101321663Y-85441204D01*
X101305588Y-85400604D01*
X101301804Y-85389552D01*
X101289618Y-85347609D01*
X101289616Y-85347606D01*
X101279423Y-85330371D01*
X101270861Y-85312894D01*
X101263487Y-85294269D01*
X101237816Y-85258937D01*
X101231405Y-85249177D01*
X101209170Y-85211580D01*
X101209168Y-85211578D01*
X101209165Y-85211574D01*
X101195006Y-85197415D01*
X101182368Y-85182619D01*
X101170594Y-85166413D01*
X101136940Y-85138572D01*
X101128299Y-85130709D01*
X100060347Y-84062757D01*
X100026862Y-84001434D01*
X100027822Y-83944638D01*
X100065134Y-83797305D01*
X100065446Y-83793541D01*
X100084300Y-83566006D01*
X100084300Y-83565993D01*
X100065135Y-83334702D01*
X100065133Y-83334691D01*
X100008157Y-83109699D01*
X99914924Y-82897151D01*
X99787983Y-82702852D01*
X99787980Y-82702849D01*
X99787979Y-82702847D01*
X99630784Y-82532087D01*
X99630779Y-82532083D01*
X99630777Y-82532081D01*
X99447634Y-82389535D01*
X99447628Y-82389531D01*
X99243504Y-82279064D01*
X99243495Y-82279061D01*
X99023984Y-82203702D01*
X98836404Y-82172401D01*
X98795049Y-82165500D01*
X98562951Y-82165500D01*
X98521596Y-82172401D01*
X98334015Y-82203702D01*
X98114504Y-82279061D01*
X98114495Y-82279064D01*
X97910371Y-82389531D01*
X97910365Y-82389535D01*
X97727222Y-82532081D01*
X97727215Y-82532087D01*
X97718484Y-82541572D01*
X97658595Y-82577561D01*
X97588757Y-82575458D01*
X97531143Y-82535932D01*
X97511075Y-82500918D01*
X97482355Y-82423915D01*
X97482350Y-82423906D01*
X97396190Y-82308812D01*
X97396187Y-82308809D01*
X97281093Y-82222649D01*
X97281086Y-82222645D01*
X97146379Y-82172403D01*
X97146372Y-82172401D01*
X97086844Y-82166000D01*
X96389000Y-82166000D01*
X96389000Y-83191810D01*
X96336453Y-83155984D01*
X96206827Y-83116000D01*
X96105276Y-83116000D01*
X96004862Y-83131135D01*
X95889000Y-83186931D01*
X95889000Y-82166000D01*
X95191155Y-82166000D01*
X95131627Y-82172401D01*
X95131620Y-82172403D01*
X94996913Y-82222645D01*
X94996906Y-82222649D01*
X94881812Y-82308809D01*
X94881809Y-82308812D01*
X94795649Y-82423906D01*
X94795645Y-82423913D01*
X94745403Y-82558620D01*
X94745401Y-82558627D01*
X94739000Y-82618155D01*
X94739000Y-83316000D01*
X95763722Y-83316000D01*
X95715375Y-83399740D01*
X95685190Y-83531992D01*
X95695327Y-83667265D01*
X95744887Y-83793541D01*
X95762797Y-83816000D01*
X94739000Y-83816000D01*
X94739000Y-84513844D01*
X94745401Y-84573372D01*
X94745403Y-84573379D01*
X94795645Y-84708086D01*
X94795649Y-84708093D01*
X94881809Y-84823187D01*
X94881812Y-84823190D01*
X94996906Y-84909350D01*
X94996913Y-84909354D01*
X95131620Y-84959596D01*
X95131627Y-84959598D01*
X95191155Y-84965999D01*
X95191172Y-84966000D01*
X95889000Y-84966000D01*
X95889000Y-83940189D01*
X95941547Y-83976016D01*
X96071173Y-84016000D01*
X96172724Y-84016000D01*
X96273138Y-84000865D01*
X96389000Y-83945068D01*
X96389000Y-84966000D01*
X97086828Y-84966000D01*
X97086844Y-84965999D01*
X97146372Y-84959598D01*
X97146379Y-84959596D01*
X97281086Y-84909354D01*
X97281093Y-84909350D01*
X97396187Y-84823190D01*
X97396190Y-84823187D01*
X97482350Y-84708093D01*
X97482355Y-84708084D01*
X97511075Y-84631081D01*
X97552945Y-84575147D01*
X97618409Y-84550729D01*
X97686682Y-84565580D01*
X97718484Y-84590428D01*
X97727216Y-84599913D01*
X97727219Y-84599915D01*
X97727222Y-84599918D01*
X97910365Y-84742464D01*
X97910371Y-84742468D01*
X97910374Y-84742470D01*
X98114497Y-84852936D01*
X98228487Y-84892068D01*
X98334015Y-84928297D01*
X98334017Y-84928297D01*
X98334019Y-84928298D01*
X98562951Y-84966500D01*
X98562952Y-84966500D01*
X98795048Y-84966500D01*
X98795049Y-84966500D01*
X99023981Y-84928298D01*
X99049576Y-84919510D01*
X99119371Y-84916359D01*
X99177520Y-84949110D01*
X100049181Y-85820771D01*
X100082666Y-85882094D01*
X100085500Y-85908452D01*
X100085500Y-98586983D01*
X100065815Y-98654022D01*
X100013011Y-98699777D01*
X100000510Y-98704686D01*
X99941666Y-98724186D01*
X99941663Y-98724187D01*
X99792342Y-98816289D01*
X99668289Y-98940342D01*
X99576187Y-99089663D01*
X99576186Y-99089666D01*
X99521001Y-99256203D01*
X99521001Y-99256204D01*
X99521000Y-99256204D01*
X99510500Y-99358983D01*
X99510500Y-99984001D01*
X99510501Y-99984019D01*
X99521000Y-100086796D01*
X99521001Y-100086799D01*
X99576185Y-100253331D01*
X99576186Y-100253334D01*
X99649978Y-100372971D01*
X99668289Y-100402657D01*
X99761951Y-100496319D01*
X99795436Y-100557642D01*
X99790452Y-100627334D01*
X99761951Y-100671681D01*
X99668289Y-100765342D01*
X99576187Y-100914663D01*
X99576185Y-100914668D01*
X99551359Y-100989590D01*
X99521001Y-101081203D01*
X99521001Y-101081204D01*
X99521000Y-101081204D01*
X99510500Y-101183983D01*
X99510500Y-101809001D01*
X99510501Y-101809019D01*
X99521000Y-101911796D01*
X99521001Y-101911799D01*
X99576185Y-102078331D01*
X99576186Y-102078334D01*
X99668288Y-102227656D01*
X99792344Y-102351712D01*
X99941666Y-102443814D01*
X100108203Y-102498999D01*
X100210991Y-102509500D01*
X100788047Y-102509499D01*
X100855086Y-102529183D01*
X100875728Y-102545818D01*
X104430181Y-106100271D01*
X104463666Y-106161594D01*
X104466500Y-106187952D01*
X104466500Y-107831047D01*
X104446815Y-107898086D01*
X104394011Y-107943841D01*
X104324853Y-107953785D01*
X104261297Y-107924760D01*
X104254819Y-107918728D01*
X101783818Y-105447727D01*
X101750333Y-105386404D01*
X101747499Y-105360046D01*
X101747499Y-104782998D01*
X101747498Y-104782981D01*
X101736999Y-104680203D01*
X101736998Y-104680200D01*
X101727651Y-104651992D01*
X101681814Y-104513666D01*
X101589712Y-104364344D01*
X101465656Y-104240288D01*
X101316334Y-104148186D01*
X101149797Y-104093001D01*
X101149795Y-104093000D01*
X101047010Y-104082500D01*
X100421998Y-104082500D01*
X100421980Y-104082501D01*
X100319203Y-104093000D01*
X100319200Y-104093001D01*
X100152668Y-104148185D01*
X100152663Y-104148187D01*
X100003342Y-104240289D01*
X99909681Y-104333951D01*
X99848358Y-104367436D01*
X99778666Y-104362452D01*
X99734319Y-104333951D01*
X99640657Y-104240289D01*
X99640656Y-104240288D01*
X99491334Y-104148186D01*
X99324797Y-104093001D01*
X99324795Y-104093000D01*
X99222010Y-104082500D01*
X98596998Y-104082500D01*
X98596980Y-104082501D01*
X98494203Y-104093000D01*
X98494200Y-104093001D01*
X98327668Y-104148185D01*
X98327663Y-104148187D01*
X98178342Y-104240289D01*
X98054289Y-104364342D01*
X97962187Y-104513663D01*
X97962184Y-104513671D01*
X97950972Y-104547506D01*
X97911199Y-104604950D01*
X97846683Y-104631772D01*
X97833267Y-104632500D01*
X95549017Y-104632500D01*
X95481978Y-104612815D01*
X95445208Y-104576321D01*
X95426382Y-104547506D01*
X95346525Y-104425274D01*
X95342983Y-104419852D01*
X95342980Y-104419849D01*
X95342979Y-104419847D01*
X95185784Y-104249087D01*
X95185779Y-104249083D01*
X95185777Y-104249081D01*
X95002634Y-104106535D01*
X95002628Y-104106531D01*
X94798504Y-103996064D01*
X94798495Y-103996061D01*
X94578984Y-103920702D01*
X94391404Y-103889401D01*
X94350049Y-103882500D01*
X94117951Y-103882500D01*
X94076596Y-103889401D01*
X93889015Y-103920702D01*
X93669504Y-103996061D01*
X93669495Y-103996064D01*
X93465371Y-104106531D01*
X93465365Y-104106535D01*
X93282222Y-104249081D01*
X93282215Y-104249087D01*
X93273484Y-104258572D01*
X93213595Y-104294561D01*
X93143757Y-104292458D01*
X93086143Y-104252932D01*
X93066075Y-104217918D01*
X93037355Y-104140915D01*
X93037350Y-104140906D01*
X92951190Y-104025812D01*
X92951187Y-104025809D01*
X92836093Y-103939649D01*
X92836086Y-103939645D01*
X92701379Y-103889403D01*
X92701372Y-103889401D01*
X92641844Y-103883000D01*
X91944000Y-103883000D01*
X91944000Y-104908810D01*
X91891453Y-104872984D01*
X91761827Y-104833000D01*
X91660276Y-104833000D01*
X91559862Y-104848135D01*
X91444000Y-104903931D01*
X91444000Y-103883000D01*
X90944500Y-103883000D01*
X90877461Y-103863315D01*
X90831706Y-103810511D01*
X90820500Y-103759000D01*
X90820500Y-76158503D01*
X90822268Y-76142491D01*
X90822026Y-76142469D01*
X90822760Y-76134706D01*
X90820561Y-76064722D01*
X90820500Y-76060828D01*
X90820500Y-76032078D01*
X90820499Y-76032071D01*
X90819950Y-76027725D01*
X90819031Y-76016062D01*
X90817598Y-75970431D01*
X90811676Y-75950050D01*
X90807731Y-75930995D01*
X90805072Y-75909949D01*
X90805071Y-75909947D01*
X90805071Y-75909942D01*
X90788267Y-75867501D01*
X90784484Y-75856452D01*
X90771745Y-75812602D01*
X90771142Y-75811583D01*
X90760936Y-75794324D01*
X90752378Y-75776855D01*
X90744568Y-75757129D01*
X90717721Y-75720179D01*
X90711331Y-75710449D01*
X90688081Y-75671135D01*
X90673075Y-75656129D01*
X90660435Y-75641330D01*
X90647961Y-75624160D01*
X90612780Y-75595056D01*
X90604140Y-75587194D01*
X88923154Y-73906208D01*
X88889669Y-73844885D01*
X88894653Y-73775193D01*
X88936525Y-73719260D01*
X89001989Y-73694843D01*
X89021638Y-73694998D01*
X89027000Y-73695468D01*
X89253692Y-73675635D01*
X89473496Y-73616739D01*
X89679734Y-73520568D01*
X89866139Y-73390047D01*
X90027047Y-73229139D01*
X90157568Y-73042734D01*
X90184618Y-72984724D01*
X90230790Y-72932285D01*
X90297983Y-72913133D01*
X90364865Y-72933348D01*
X90409382Y-72984725D01*
X90436429Y-73042728D01*
X90436432Y-73042734D01*
X90566954Y-73229141D01*
X90727858Y-73390045D01*
X90727861Y-73390047D01*
X90914266Y-73520568D01*
X91120504Y-73616739D01*
X91340308Y-73675635D01*
X91502230Y-73689801D01*
X91566998Y-73695468D01*
X91567000Y-73695468D01*
X91567002Y-73695468D01*
X91623807Y-73690498D01*
X91793692Y-73675635D01*
X92013496Y-73616739D01*
X92219734Y-73520568D01*
X92406139Y-73390047D01*
X92567047Y-73229139D01*
X92697568Y-73042734D01*
X92724618Y-72984724D01*
X92770790Y-72932285D01*
X92837983Y-72913133D01*
X92904865Y-72933348D01*
X92949382Y-72984725D01*
X92976429Y-73042728D01*
X92976432Y-73042734D01*
X93106954Y-73229141D01*
X93267858Y-73390045D01*
X93267861Y-73390047D01*
X93454266Y-73520568D01*
X93660504Y-73616739D01*
X93880308Y-73675635D01*
X94042230Y-73689801D01*
X94106998Y-73695468D01*
X94107000Y-73695468D01*
X94107002Y-73695468D01*
X94163807Y-73690498D01*
X94333692Y-73675635D01*
X94553496Y-73616739D01*
X94759734Y-73520568D01*
X94946139Y-73390047D01*
X95107047Y-73229139D01*
X95124272Y-73204539D01*
X95178848Y-73160913D01*
X95248346Y-73153718D01*
X95310701Y-73185239D01*
X95346116Y-73245468D01*
X95349138Y-73262406D01*
X95352908Y-73297483D01*
X95403202Y-73432328D01*
X95403206Y-73432335D01*
X95489452Y-73547544D01*
X95489455Y-73547547D01*
X95604664Y-73633793D01*
X95604671Y-73633797D01*
X95739517Y-73684091D01*
X95739516Y-73684091D01*
X95746444Y-73684835D01*
X95799127Y-73690500D01*
X97494872Y-73690499D01*
X97554483Y-73684091D01*
X97689331Y-73633796D01*
X97804546Y-73547546D01*
X97890796Y-73432331D01*
X97941091Y-73297483D01*
X97947500Y-73237873D01*
X97947499Y-71542128D01*
X97941091Y-71482517D01*
X97906567Y-71389954D01*
X97890797Y-71347671D01*
X97890793Y-71347664D01*
X97804547Y-71232455D01*
X97804544Y-71232452D01*
X97689335Y-71146206D01*
X97689328Y-71146202D01*
X97554482Y-71095908D01*
X97554483Y-71095908D01*
X97494883Y-71089501D01*
X97494881Y-71089500D01*
X97494873Y-71089500D01*
X97494864Y-71089500D01*
X95799129Y-71089500D01*
X95799123Y-71089501D01*
X95739516Y-71095908D01*
X95604671Y-71146202D01*
X95604664Y-71146206D01*
X95489455Y-71232452D01*
X95489452Y-71232455D01*
X95403206Y-71347664D01*
X95403202Y-71347671D01*
X95352908Y-71482516D01*
X95349137Y-71517596D01*
X95322398Y-71582146D01*
X95265006Y-71621994D01*
X95195180Y-71624487D01*
X95135092Y-71588834D01*
X95124273Y-71575462D01*
X95107045Y-71550858D01*
X94946141Y-71389954D01*
X94759734Y-71259432D01*
X94759732Y-71259431D01*
X94553497Y-71163261D01*
X94553488Y-71163258D01*
X94333697Y-71104366D01*
X94333693Y-71104365D01*
X94333692Y-71104365D01*
X94333691Y-71104364D01*
X94333686Y-71104364D01*
X94107002Y-71084532D01*
X94106998Y-71084532D01*
X93880313Y-71104364D01*
X93880302Y-71104366D01*
X93660511Y-71163258D01*
X93660502Y-71163261D01*
X93454267Y-71259431D01*
X93454265Y-71259432D01*
X93267858Y-71389954D01*
X93106954Y-71550858D01*
X92976432Y-71737265D01*
X92976431Y-71737267D01*
X92949382Y-71795275D01*
X92903209Y-71847714D01*
X92836016Y-71866866D01*
X92769135Y-71846650D01*
X92724618Y-71795275D01*
X92697686Y-71737520D01*
X92697568Y-71737266D01*
X92567047Y-71550861D01*
X92567045Y-71550858D01*
X92406141Y-71389954D01*
X92219734Y-71259432D01*
X92219732Y-71259431D01*
X92013497Y-71163261D01*
X92013488Y-71163258D01*
X91793697Y-71104366D01*
X91793693Y-71104365D01*
X91793692Y-71104365D01*
X91793691Y-71104364D01*
X91793686Y-71104364D01*
X91567002Y-71084532D01*
X91566998Y-71084532D01*
X91340313Y-71104364D01*
X91340302Y-71104366D01*
X91120511Y-71163258D01*
X91120502Y-71163261D01*
X90914267Y-71259431D01*
X90914265Y-71259432D01*
X90727858Y-71389954D01*
X90566954Y-71550858D01*
X90436432Y-71737265D01*
X90436431Y-71737267D01*
X90409382Y-71795275D01*
X90363209Y-71847714D01*
X90296016Y-71866866D01*
X90229135Y-71846650D01*
X90184618Y-71795275D01*
X90157686Y-71737520D01*
X90157568Y-71737266D01*
X90027047Y-71550861D01*
X90027045Y-71550858D01*
X89866141Y-71389954D01*
X89679734Y-71259432D01*
X89679732Y-71259431D01*
X89473497Y-71163261D01*
X89473488Y-71163258D01*
X89253697Y-71104366D01*
X89253693Y-71104365D01*
X89253692Y-71104365D01*
X89253691Y-71104364D01*
X89253686Y-71104364D01*
X89027002Y-71084532D01*
X89026998Y-71084532D01*
X88800313Y-71104364D01*
X88800302Y-71104366D01*
X88580511Y-71163258D01*
X88580502Y-71163261D01*
X88374267Y-71259431D01*
X88374265Y-71259432D01*
X88187858Y-71389954D01*
X88026954Y-71550858D01*
X87896432Y-71737265D01*
X87896431Y-71737267D01*
X87869382Y-71795275D01*
X87823209Y-71847714D01*
X87756016Y-71866866D01*
X87689135Y-71846650D01*
X87644618Y-71795275D01*
X87617686Y-71737520D01*
X87617568Y-71737266D01*
X87487047Y-71550861D01*
X87487045Y-71550858D01*
X87326141Y-71389954D01*
X87139734Y-71259432D01*
X87139732Y-71259431D01*
X86933497Y-71163261D01*
X86933488Y-71163258D01*
X86713697Y-71104366D01*
X86713693Y-71104365D01*
X86713692Y-71104365D01*
X86713691Y-71104364D01*
X86713686Y-71104364D01*
X86487002Y-71084532D01*
X86486998Y-71084532D01*
X86260313Y-71104364D01*
X86260302Y-71104366D01*
X86040511Y-71163258D01*
X86040502Y-71163261D01*
X85834267Y-71259431D01*
X85834265Y-71259432D01*
X85647858Y-71389954D01*
X85486954Y-71550858D01*
X85356433Y-71737264D01*
X85356432Y-71737266D01*
X85356315Y-71737518D01*
X85329106Y-71795867D01*
X85282933Y-71848306D01*
X85215739Y-71867457D01*
X85148858Y-71847241D01*
X85104342Y-71795865D01*
X85077135Y-71737520D01*
X85077134Y-71737518D01*
X84946657Y-71551179D01*
X84785820Y-71390342D01*
X84599482Y-71259865D01*
X84393328Y-71163734D01*
X84197000Y-71111127D01*
X84197000Y-71954498D01*
X84089315Y-71905320D01*
X83982763Y-71890000D01*
X83911237Y-71890000D01*
X83804685Y-71905320D01*
X83697000Y-71954498D01*
X83697000Y-71111127D01*
X83500671Y-71163734D01*
X83294517Y-71259865D01*
X83108179Y-71390342D01*
X82947342Y-71551179D01*
X82816865Y-71737517D01*
X82789382Y-71796457D01*
X82743210Y-71848896D01*
X82676016Y-71868048D01*
X82609135Y-71847832D01*
X82564618Y-71796457D01*
X82537134Y-71737517D01*
X82406657Y-71551179D01*
X82245820Y-71390342D01*
X82059482Y-71259865D01*
X81853328Y-71163734D01*
X81657000Y-71111127D01*
X81657000Y-71954498D01*
X81549315Y-71905320D01*
X81442763Y-71890000D01*
X81371237Y-71890000D01*
X81264685Y-71905320D01*
X81157000Y-71954498D01*
X81157000Y-71111127D01*
X80960671Y-71163734D01*
X80754517Y-71259865D01*
X80568179Y-71390342D01*
X80407342Y-71551179D01*
X80276867Y-71737515D01*
X80249657Y-71795867D01*
X80203484Y-71848306D01*
X80136290Y-71867457D01*
X80069409Y-71847241D01*
X80024893Y-71795865D01*
X79997685Y-71737518D01*
X79997568Y-71737266D01*
X79867047Y-71550861D01*
X79867045Y-71550858D01*
X79706141Y-71389954D01*
X79519734Y-71259432D01*
X79519732Y-71259431D01*
X79313497Y-71163261D01*
X79313488Y-71163258D01*
X79093697Y-71104366D01*
X79093693Y-71104365D01*
X79093692Y-71104365D01*
X79093691Y-71104364D01*
X79093686Y-71104364D01*
X78867002Y-71084532D01*
X78866998Y-71084532D01*
X78640313Y-71104364D01*
X78640302Y-71104366D01*
X78420511Y-71163258D01*
X78420502Y-71163261D01*
X78214267Y-71259431D01*
X78214265Y-71259432D01*
X78027858Y-71389954D01*
X77866954Y-71550858D01*
X77736432Y-71737265D01*
X77736431Y-71737267D01*
X77640261Y-71943502D01*
X77640258Y-71943511D01*
X77581366Y-72163302D01*
X77581364Y-72163313D01*
X77561532Y-72389998D01*
X77561532Y-72390001D01*
X77581364Y-72616686D01*
X77581366Y-72616697D01*
X77640258Y-72836488D01*
X77640261Y-72836497D01*
X77736431Y-73042732D01*
X77736432Y-73042734D01*
X77866954Y-73229141D01*
X78027858Y-73390045D01*
X78027861Y-73390047D01*
X78214266Y-73520568D01*
X78420504Y-73616739D01*
X78640308Y-73675635D01*
X78802230Y-73689801D01*
X78866998Y-73695468D01*
X78867000Y-73695468D01*
X78867002Y-73695468D01*
X78923807Y-73690498D01*
X79093692Y-73675635D01*
X79313496Y-73616739D01*
X79519734Y-73520568D01*
X79706139Y-73390047D01*
X79867047Y-73229139D01*
X79997568Y-73042734D01*
X80024895Y-72984129D01*
X80071064Y-72931695D01*
X80138257Y-72912542D01*
X80205139Y-72932757D01*
X80249657Y-72984133D01*
X80276865Y-73042482D01*
X80407342Y-73228820D01*
X80568179Y-73389657D01*
X80754517Y-73520134D01*
X80960673Y-73616265D01*
X80960682Y-73616269D01*
X81156999Y-73668872D01*
X81157000Y-73668871D01*
X81157000Y-72825501D01*
X81264685Y-72874680D01*
X81371237Y-72890000D01*
X81442763Y-72890000D01*
X81549315Y-72874680D01*
X81657000Y-72825501D01*
X81657000Y-73668872D01*
X81853317Y-73616269D01*
X81853326Y-73616265D01*
X82059482Y-73520134D01*
X82245820Y-73389657D01*
X82406657Y-73228820D01*
X82537134Y-73042481D01*
X82537135Y-73042479D01*
X82564618Y-72983543D01*
X82610790Y-72931103D01*
X82677983Y-72911951D01*
X82744864Y-72932166D01*
X82789382Y-72983543D01*
X82816864Y-73042479D01*
X82816865Y-73042481D01*
X82947342Y-73228820D01*
X83108179Y-73389657D01*
X83294517Y-73520134D01*
X83500673Y-73616265D01*
X83500682Y-73616269D01*
X83696999Y-73668872D01*
X83697000Y-73668871D01*
X83697000Y-72825501D01*
X83804685Y-72874680D01*
X83911237Y-72890000D01*
X83982763Y-72890000D01*
X84089315Y-72874680D01*
X84197000Y-72825501D01*
X84197000Y-73668872D01*
X84393317Y-73616269D01*
X84393326Y-73616265D01*
X84599482Y-73520134D01*
X84785820Y-73389657D01*
X84946657Y-73228820D01*
X85077132Y-73042484D01*
X85104341Y-72984134D01*
X85150513Y-72931695D01*
X85217707Y-72912542D01*
X85284588Y-72932757D01*
X85329106Y-72984133D01*
X85356431Y-73042732D01*
X85356432Y-73042734D01*
X85486954Y-73229141D01*
X85647858Y-73390045D01*
X85647861Y-73390047D01*
X85834266Y-73520568D01*
X86040504Y-73616739D01*
X86260308Y-73675635D01*
X86422230Y-73689801D01*
X86486998Y-73695468D01*
X86487000Y-73695468D01*
X86487002Y-73695468D01*
X86518421Y-73692719D01*
X86713692Y-73675635D01*
X86754162Y-73664791D01*
X86824012Y-73666452D01*
X86873938Y-73696884D01*
X89483181Y-76306127D01*
X89516666Y-76367450D01*
X89519500Y-76393808D01*
X89519500Y-109136267D01*
X89499815Y-109203306D01*
X89447011Y-109249061D01*
X89434506Y-109253972D01*
X89400671Y-109265184D01*
X89400663Y-109265187D01*
X89251342Y-109357289D01*
X89127289Y-109481342D01*
X89035187Y-109630663D01*
X89035186Y-109630666D01*
X88980001Y-109797203D01*
X88980001Y-109797204D01*
X88980000Y-109797204D01*
X88969500Y-109899983D01*
X88969500Y-110525001D01*
X88969501Y-110525019D01*
X88980000Y-110627796D01*
X88980001Y-110627799D01*
X89035185Y-110794331D01*
X89035187Y-110794336D01*
X89050702Y-110819489D01*
X89113422Y-110921176D01*
X89127289Y-110943657D01*
X89220951Y-111037319D01*
X89254436Y-111098642D01*
X89249452Y-111168334D01*
X89220951Y-111212681D01*
X89127289Y-111306342D01*
X89035187Y-111455663D01*
X89035186Y-111455666D01*
X88980001Y-111622203D01*
X88980001Y-111622204D01*
X88980000Y-111622204D01*
X88969500Y-111724983D01*
X88969500Y-112302046D01*
X88949815Y-112369085D01*
X88933181Y-112389727D01*
X87623208Y-113699699D01*
X87610951Y-113709520D01*
X87611134Y-113709741D01*
X87605122Y-113714714D01*
X87559098Y-113763723D01*
X87556391Y-113766516D01*
X87536889Y-113786017D01*
X87536875Y-113786034D01*
X87534407Y-113789215D01*
X87526843Y-113798070D01*
X87496937Y-113829918D01*
X87496936Y-113829920D01*
X87487284Y-113847476D01*
X87476610Y-113863726D01*
X87464329Y-113879561D01*
X87464324Y-113879568D01*
X87446975Y-113919658D01*
X87441838Y-113930144D01*
X87420803Y-113968406D01*
X87415822Y-113987807D01*
X87409521Y-114006210D01*
X87401562Y-114024602D01*
X87401561Y-114024605D01*
X87394728Y-114067743D01*
X87392360Y-114079174D01*
X87381501Y-114121471D01*
X87381500Y-114121482D01*
X87381500Y-114141516D01*
X87379973Y-114160915D01*
X87376840Y-114180694D01*
X87376840Y-114180695D01*
X87380950Y-114224174D01*
X87381500Y-114235843D01*
X87381500Y-119435811D01*
X87361815Y-119502850D01*
X87328623Y-119537386D01*
X87167859Y-119649953D01*
X87006954Y-119810858D01*
X86876432Y-119997265D01*
X86876431Y-119997267D01*
X86849382Y-120055275D01*
X86803209Y-120107714D01*
X86736016Y-120126866D01*
X86669135Y-120106650D01*
X86624618Y-120055275D01*
X86597686Y-119997520D01*
X86597568Y-119997266D01*
X86467047Y-119810861D01*
X86467045Y-119810858D01*
X86306140Y-119649953D01*
X86145377Y-119537386D01*
X86101752Y-119482809D01*
X86092500Y-119435811D01*
X86092500Y-100813242D01*
X86094224Y-100797622D01*
X86093939Y-100797596D01*
X86094671Y-100789840D01*
X86094673Y-100789833D01*
X86092561Y-100722626D01*
X86092500Y-100718731D01*
X86092500Y-100691154D01*
X86092500Y-100691150D01*
X86091996Y-100687165D01*
X86091080Y-100675521D01*
X86091018Y-100673533D01*
X86089709Y-100631873D01*
X86084122Y-100612644D01*
X86080174Y-100593584D01*
X86077664Y-100573708D01*
X86077663Y-100573706D01*
X86077663Y-100573704D01*
X86061588Y-100533104D01*
X86057804Y-100522052D01*
X86045618Y-100480109D01*
X86045616Y-100480106D01*
X86035423Y-100462871D01*
X86026861Y-100445394D01*
X86019487Y-100426769D01*
X86001968Y-100402657D01*
X85993811Y-100391430D01*
X85987405Y-100381677D01*
X85965170Y-100344080D01*
X85965168Y-100344078D01*
X85965165Y-100344074D01*
X85951006Y-100329915D01*
X85938368Y-100315119D01*
X85926594Y-100298913D01*
X85892940Y-100271072D01*
X85884299Y-100263209D01*
X80611818Y-94990727D01*
X80578333Y-94929404D01*
X80575499Y-94903054D01*
X80575499Y-94325992D01*
X80564999Y-94223203D01*
X80509814Y-94056666D01*
X80417712Y-93907344D01*
X80324049Y-93813681D01*
X80290564Y-93752358D01*
X80295548Y-93682666D01*
X80324049Y-93638319D01*
X80344836Y-93617532D01*
X80417712Y-93544656D01*
X80509814Y-93395334D01*
X80564999Y-93228797D01*
X80575500Y-93126009D01*
X80575499Y-92500992D01*
X80564999Y-92398203D01*
X80509814Y-92231666D01*
X80417712Y-92082344D01*
X80293656Y-91958288D01*
X80144334Y-91866186D01*
X80085493Y-91846688D01*
X80028051Y-91806916D01*
X80001228Y-91742400D01*
X80000500Y-91728983D01*
X80000500Y-87375543D01*
X80020185Y-87308504D01*
X80065483Y-87266488D01*
X80066503Y-87265936D01*
X80270626Y-87155470D01*
X80453784Y-87012913D01*
X80610979Y-86842153D01*
X80737924Y-86647849D01*
X80831157Y-86435300D01*
X80888134Y-86210305D01*
X80893524Y-86145260D01*
X80907300Y-85979006D01*
X80907300Y-85978993D01*
X80888135Y-85747702D01*
X80888133Y-85747691D01*
X80831157Y-85522699D01*
X80737924Y-85310151D01*
X80610983Y-85115852D01*
X80610980Y-85115849D01*
X80610979Y-85115847D01*
X80453784Y-84945087D01*
X80453779Y-84945083D01*
X80453777Y-84945081D01*
X80270634Y-84802535D01*
X80270628Y-84802531D01*
X80066504Y-84692064D01*
X80066495Y-84692061D01*
X79846984Y-84616702D01*
X79659404Y-84585401D01*
X79618049Y-84578500D01*
X79385951Y-84578500D01*
X79344596Y-84585401D01*
X79157015Y-84616702D01*
X78937504Y-84692061D01*
X78937495Y-84692064D01*
X78733371Y-84802531D01*
X78733365Y-84802535D01*
X78550222Y-84945081D01*
X78550215Y-84945087D01*
X78541484Y-84954572D01*
X78481595Y-84990561D01*
X78411757Y-84988458D01*
X78354143Y-84948932D01*
X78334075Y-84913918D01*
X78305355Y-84836915D01*
X78305350Y-84836906D01*
X78219190Y-84721812D01*
X78219187Y-84721809D01*
X78104093Y-84635649D01*
X78104086Y-84635645D01*
X77969379Y-84585403D01*
X77969372Y-84585401D01*
X77909844Y-84579000D01*
X77212000Y-84579000D01*
X77212000Y-85604810D01*
X77159453Y-85568984D01*
X77029827Y-85529000D01*
X76928276Y-85529000D01*
X76827862Y-85544135D01*
X76712000Y-85599931D01*
X76712000Y-84579000D01*
X76014155Y-84579000D01*
X75954627Y-84585401D01*
X75954620Y-84585403D01*
X75819913Y-84635645D01*
X75819906Y-84635649D01*
X75704812Y-84721809D01*
X75704809Y-84721812D01*
X75618649Y-84836906D01*
X75618645Y-84836913D01*
X75568403Y-84971620D01*
X75568401Y-84971627D01*
X75562000Y-85031155D01*
X75562000Y-85729000D01*
X76586722Y-85729000D01*
X76538375Y-85812740D01*
X76508190Y-85944992D01*
X76518327Y-86080265D01*
X76567887Y-86206541D01*
X76585797Y-86229000D01*
X75562000Y-86229000D01*
X75562000Y-86926844D01*
X75568401Y-86986372D01*
X75568403Y-86986379D01*
X75618645Y-87121086D01*
X75618649Y-87121093D01*
X75704809Y-87236187D01*
X75704812Y-87236190D01*
X75819906Y-87322350D01*
X75819913Y-87322354D01*
X75954620Y-87372596D01*
X75954627Y-87372598D01*
X76014155Y-87378999D01*
X76014172Y-87379000D01*
X76712000Y-87379000D01*
X76712000Y-86353189D01*
X76764547Y-86389016D01*
X76894173Y-86429000D01*
X76995724Y-86429000D01*
X77096138Y-86413865D01*
X77212000Y-86358068D01*
X77212000Y-87379000D01*
X77909828Y-87379000D01*
X77909844Y-87378999D01*
X77969372Y-87372598D01*
X77969379Y-87372596D01*
X78104086Y-87322354D01*
X78104093Y-87322350D01*
X78219187Y-87236190D01*
X78219190Y-87236187D01*
X78305350Y-87121093D01*
X78305355Y-87121084D01*
X78334075Y-87044081D01*
X78375945Y-86988147D01*
X78441409Y-86963729D01*
X78509682Y-86978580D01*
X78541484Y-87003428D01*
X78550216Y-87012913D01*
X78701663Y-87130788D01*
X78742475Y-87187498D01*
X78749500Y-87228641D01*
X78749500Y-91728983D01*
X78729815Y-91796022D01*
X78677011Y-91841777D01*
X78664510Y-91846686D01*
X78605666Y-91866186D01*
X78605663Y-91866187D01*
X78456342Y-91958289D01*
X78332289Y-92082342D01*
X78240187Y-92231663D01*
X78240185Y-92231668D01*
X78212349Y-92315670D01*
X78185001Y-92398203D01*
X78185001Y-92398204D01*
X78185000Y-92398204D01*
X78174500Y-92500983D01*
X78174500Y-93126001D01*
X78174501Y-93126019D01*
X78185000Y-93228796D01*
X78185001Y-93228799D01*
X78240185Y-93395331D01*
X78240187Y-93395336D01*
X78332289Y-93544657D01*
X78425951Y-93638319D01*
X78459436Y-93699642D01*
X78454452Y-93769334D01*
X78425951Y-93813681D01*
X78332289Y-93907342D01*
X78240187Y-94056663D01*
X78240185Y-94056668D01*
X78212349Y-94140670D01*
X78185001Y-94223203D01*
X78185001Y-94223204D01*
X78185000Y-94223204D01*
X78174500Y-94325983D01*
X78174500Y-94951001D01*
X78174501Y-94951019D01*
X78185000Y-95053796D01*
X78185001Y-95053799D01*
X78240185Y-95220331D01*
X78240186Y-95220334D01*
X78332288Y-95369656D01*
X78456344Y-95493712D01*
X78605666Y-95585814D01*
X78772203Y-95640999D01*
X78874991Y-95651500D01*
X79452047Y-95651499D01*
X79519086Y-95671183D01*
X79539728Y-95687818D01*
X84805181Y-100953271D01*
X84838666Y-101014594D01*
X84841500Y-101040952D01*
X84841500Y-116252528D01*
X84821815Y-116319567D01*
X84769011Y-116365322D01*
X84699853Y-116375266D01*
X84681507Y-116371189D01*
X84651134Y-116361976D01*
X84455000Y-116342659D01*
X84258870Y-116361975D01*
X84070266Y-116419188D01*
X83896467Y-116512086D01*
X83896460Y-116512090D01*
X83744116Y-116637116D01*
X83619090Y-116789460D01*
X83619086Y-116789467D01*
X83526188Y-116963266D01*
X83468975Y-117151870D01*
X83449659Y-117348000D01*
X83449659Y-117348001D01*
X83454736Y-117399560D01*
X83441716Y-117468206D01*
X83419014Y-117499393D01*
X82543208Y-118375199D01*
X82530951Y-118385020D01*
X82531134Y-118385241D01*
X82525122Y-118390214D01*
X82479098Y-118439223D01*
X82476391Y-118442016D01*
X82456889Y-118461517D01*
X82456875Y-118461534D01*
X82454407Y-118464715D01*
X82446843Y-118473570D01*
X82416937Y-118505418D01*
X82416936Y-118505420D01*
X82407284Y-118522976D01*
X82396610Y-118539226D01*
X82384329Y-118555061D01*
X82384324Y-118555068D01*
X82366975Y-118595158D01*
X82361838Y-118605644D01*
X82340803Y-118643906D01*
X82335822Y-118663307D01*
X82329521Y-118681710D01*
X82321562Y-118700102D01*
X82321561Y-118700105D01*
X82314728Y-118743243D01*
X82312360Y-118754674D01*
X82301501Y-118796971D01*
X82301500Y-118796982D01*
X82301500Y-118817016D01*
X82299973Y-118836413D01*
X82296840Y-118856196D01*
X82300205Y-118891796D01*
X82300950Y-118899674D01*
X82301500Y-118911343D01*
X82301500Y-119435811D01*
X82281815Y-119502850D01*
X82248623Y-119537386D01*
X82087859Y-119649953D01*
X81926954Y-119810858D01*
X81796432Y-119997265D01*
X81796431Y-119997267D01*
X81700261Y-120203502D01*
X81700258Y-120203511D01*
X81641366Y-120423302D01*
X81641364Y-120423313D01*
X81621532Y-120649998D01*
X81621532Y-120650001D01*
X81641364Y-120876686D01*
X81641366Y-120876697D01*
X81699433Y-121093407D01*
X81697770Y-121163257D01*
X81658607Y-121221119D01*
X81594379Y-121248623D01*
X81579658Y-121249500D01*
X80402452Y-121249500D01*
X80335413Y-121229815D01*
X80314775Y-121213185D01*
X80166411Y-121064820D01*
X80132928Y-121003499D01*
X80134319Y-120945048D01*
X80137000Y-120935042D01*
X80152635Y-120876692D01*
X80172468Y-120650000D01*
X80152635Y-120423308D01*
X80093739Y-120203504D01*
X79997568Y-119997266D01*
X79867047Y-119810861D01*
X79867045Y-119810858D01*
X79706141Y-119649954D01*
X79519734Y-119519432D01*
X79519732Y-119519431D01*
X79313497Y-119423261D01*
X79313488Y-119423258D01*
X79093697Y-119364366D01*
X79093693Y-119364365D01*
X79093692Y-119364365D01*
X79093691Y-119364364D01*
X79093686Y-119364364D01*
X78867002Y-119344532D01*
X78866998Y-119344532D01*
X78640313Y-119364364D01*
X78640302Y-119364366D01*
X78420511Y-119423258D01*
X78420502Y-119423261D01*
X78214267Y-119519431D01*
X78214265Y-119519432D01*
X78027858Y-119649954D01*
X77866954Y-119810858D01*
X77736432Y-119997265D01*
X77736431Y-119997267D01*
X77709382Y-120055275D01*
X77663209Y-120107714D01*
X77596016Y-120126866D01*
X77529135Y-120106650D01*
X77484618Y-120055275D01*
X77457686Y-119997520D01*
X77457568Y-119997266D01*
X77327047Y-119810861D01*
X77327045Y-119810858D01*
X77166140Y-119649953D01*
X77005377Y-119537386D01*
X76961752Y-119482809D01*
X76952500Y-119435811D01*
X76952500Y-119004590D01*
X76972185Y-118937551D01*
X77024989Y-118891796D01*
X77050552Y-118883335D01*
X77056788Y-118881999D01*
X77056797Y-118881999D01*
X77223334Y-118826814D01*
X77372656Y-118734712D01*
X77496712Y-118610656D01*
X77588814Y-118461334D01*
X77643999Y-118294797D01*
X77654500Y-118192009D01*
X77654499Y-117566992D01*
X77653071Y-117553016D01*
X77643999Y-117464203D01*
X77643998Y-117464200D01*
X77624669Y-117405870D01*
X77588814Y-117297666D01*
X77496712Y-117148344D01*
X77403049Y-117054681D01*
X77369564Y-116993358D01*
X77374548Y-116923666D01*
X77403049Y-116879319D01*
X77448956Y-116833412D01*
X77496712Y-116785656D01*
X77588814Y-116636334D01*
X77643999Y-116469797D01*
X77654500Y-116367009D01*
X77654499Y-115741992D01*
X77652090Y-115718414D01*
X77643999Y-115639203D01*
X77643998Y-115639200D01*
X77613808Y-115548093D01*
X77588814Y-115472666D01*
X77496712Y-115323344D01*
X77372656Y-115199288D01*
X77279888Y-115142069D01*
X77223336Y-115107187D01*
X77223335Y-115107186D01*
X77223334Y-115107186D01*
X77164493Y-115087688D01*
X77107051Y-115047916D01*
X77080228Y-114983400D01*
X77079500Y-114969983D01*
X77079500Y-111181451D01*
X77099185Y-111114412D01*
X77115815Y-111093774D01*
X77479480Y-110730108D01*
X77540801Y-110696625D01*
X77607420Y-110700509D01*
X77633019Y-110709298D01*
X77861951Y-110747500D01*
X77861952Y-110747500D01*
X78094048Y-110747500D01*
X78094049Y-110747500D01*
X78322981Y-110709298D01*
X78542503Y-110633936D01*
X78746626Y-110523470D01*
X78929784Y-110380913D01*
X79086979Y-110210153D01*
X79213924Y-110015849D01*
X79307157Y-109803300D01*
X79364134Y-109578305D01*
X79365045Y-109567315D01*
X79383300Y-109347006D01*
X79383300Y-109346993D01*
X79364135Y-109115702D01*
X79364133Y-109115691D01*
X79307157Y-108890699D01*
X79213924Y-108678151D01*
X79086983Y-108483852D01*
X79086980Y-108483849D01*
X79086979Y-108483847D01*
X78929784Y-108313087D01*
X78929779Y-108313083D01*
X78929777Y-108313081D01*
X78746634Y-108170535D01*
X78746628Y-108170531D01*
X78542504Y-108060064D01*
X78542495Y-108060061D01*
X78322984Y-107984702D01*
X78151282Y-107956050D01*
X78094049Y-107946500D01*
X77861951Y-107946500D01*
X77820596Y-107953401D01*
X77633015Y-107984702D01*
X77413504Y-108060061D01*
X77413495Y-108060064D01*
X77209371Y-108170531D01*
X77209365Y-108170535D01*
X77026222Y-108313081D01*
X77026215Y-108313087D01*
X77017484Y-108322572D01*
X76957595Y-108358561D01*
X76887757Y-108356458D01*
X76830143Y-108316932D01*
X76810075Y-108281918D01*
X76781355Y-108204915D01*
X76781350Y-108204906D01*
X76695190Y-108089812D01*
X76695187Y-108089809D01*
X76580093Y-108003649D01*
X76580086Y-108003645D01*
X76445379Y-107953403D01*
X76445372Y-107953401D01*
X76385844Y-107947000D01*
X75688000Y-107947000D01*
X75688000Y-108972810D01*
X75635453Y-108936984D01*
X75505827Y-108897000D01*
X75404276Y-108897000D01*
X75303862Y-108912135D01*
X75188000Y-108967931D01*
X75188000Y-107947000D01*
X74490155Y-107947000D01*
X74430627Y-107953401D01*
X74430620Y-107953403D01*
X74295913Y-108003645D01*
X74295906Y-108003649D01*
X74180812Y-108089809D01*
X74180809Y-108089812D01*
X74094649Y-108204906D01*
X74094645Y-108204913D01*
X74044403Y-108339620D01*
X74044401Y-108339627D01*
X74038000Y-108399155D01*
X74038000Y-109097000D01*
X75062722Y-109097000D01*
X75014375Y-109180740D01*
X74984190Y-109312992D01*
X74994327Y-109448265D01*
X75043887Y-109574541D01*
X75061797Y-109597000D01*
X74038000Y-109597000D01*
X74038000Y-110294844D01*
X74044401Y-110354372D01*
X74044403Y-110354379D01*
X74094645Y-110489086D01*
X74094649Y-110489093D01*
X74180809Y-110604187D01*
X74180812Y-110604190D01*
X74295906Y-110690350D01*
X74295913Y-110690354D01*
X74430620Y-110740596D01*
X74430627Y-110740598D01*
X74490155Y-110746999D01*
X74490172Y-110747000D01*
X75188000Y-110747000D01*
X75188000Y-109721189D01*
X75240547Y-109757016D01*
X75370173Y-109797000D01*
X75471724Y-109797000D01*
X75572138Y-109781865D01*
X75688000Y-109726068D01*
X75688000Y-110747000D01*
X75701159Y-110747000D01*
X75768198Y-110766685D01*
X75813953Y-110819489D01*
X75824609Y-110859330D01*
X75827950Y-110894673D01*
X75828500Y-110906343D01*
X75828500Y-114969983D01*
X75808815Y-115037022D01*
X75756011Y-115082777D01*
X75743510Y-115087686D01*
X75714108Y-115097430D01*
X75684666Y-115107186D01*
X75684663Y-115107187D01*
X75535342Y-115199289D01*
X75411289Y-115323342D01*
X75319187Y-115472663D01*
X75319186Y-115472666D01*
X75264001Y-115639203D01*
X75264001Y-115639204D01*
X75264000Y-115639204D01*
X75253500Y-115741983D01*
X75253500Y-116367001D01*
X75253501Y-116367019D01*
X75264000Y-116469796D01*
X75264001Y-116469799D01*
X75311677Y-116613674D01*
X75319186Y-116636334D01*
X75400712Y-116768510D01*
X75411289Y-116785657D01*
X75504951Y-116879319D01*
X75538436Y-116940642D01*
X75533452Y-117010334D01*
X75504951Y-117054681D01*
X75411289Y-117148342D01*
X75319187Y-117297663D01*
X75319185Y-117297668D01*
X75291349Y-117381670D01*
X75264001Y-117464203D01*
X75264001Y-117464204D01*
X75264000Y-117464204D01*
X75253500Y-117566983D01*
X75253500Y-118192001D01*
X75253501Y-118192019D01*
X75264000Y-118294796D01*
X75264001Y-118294799D01*
X75307056Y-118424728D01*
X75319186Y-118461334D01*
X75411288Y-118610656D01*
X75535344Y-118734712D01*
X75642598Y-118800866D01*
X75689321Y-118852811D01*
X75701500Y-118906403D01*
X75701500Y-119435811D01*
X75681815Y-119502850D01*
X75648623Y-119537386D01*
X75487859Y-119649953D01*
X75326954Y-119810858D01*
X75196432Y-119997265D01*
X75196431Y-119997267D01*
X75169382Y-120055275D01*
X75123209Y-120107714D01*
X75056016Y-120126866D01*
X74989135Y-120106650D01*
X74944618Y-120055275D01*
X74917686Y-119997520D01*
X74917568Y-119997266D01*
X74787047Y-119810861D01*
X74787045Y-119810858D01*
X74626141Y-119649954D01*
X74439734Y-119519432D01*
X74439732Y-119519431D01*
X74233497Y-119423261D01*
X74233488Y-119423258D01*
X74013697Y-119364366D01*
X74013693Y-119364365D01*
X74013692Y-119364365D01*
X74013691Y-119364364D01*
X74013686Y-119364364D01*
X73787002Y-119344532D01*
X73786998Y-119344532D01*
X73560313Y-119364364D01*
X73560302Y-119364366D01*
X73340511Y-119423258D01*
X73340502Y-119423261D01*
X73134267Y-119519431D01*
X73134265Y-119519432D01*
X72947858Y-119649954D01*
X72786954Y-119810858D01*
X72656432Y-119997265D01*
X72656431Y-119997267D01*
X72629382Y-120055275D01*
X72583209Y-120107714D01*
X72516016Y-120126866D01*
X72449135Y-120106650D01*
X72404618Y-120055275D01*
X72377686Y-119997520D01*
X72377568Y-119997266D01*
X72247047Y-119810861D01*
X72247045Y-119810858D01*
X72086140Y-119649953D01*
X71925377Y-119537386D01*
X71881752Y-119482809D01*
X71872500Y-119435811D01*
X71872500Y-118928452D01*
X71892185Y-118861413D01*
X71908819Y-118840771D01*
X72262955Y-118486635D01*
X72619607Y-118129982D01*
X72680928Y-118096499D01*
X72719437Y-118094262D01*
X72771000Y-118099341D01*
X72967132Y-118080024D01*
X73155727Y-118022814D01*
X73156609Y-118022343D01*
X73329532Y-117929913D01*
X73329538Y-117929910D01*
X73481883Y-117804883D01*
X73606910Y-117652538D01*
X73661599Y-117550223D01*
X73699811Y-117478733D01*
X73699811Y-117478732D01*
X73699814Y-117478727D01*
X73757024Y-117290132D01*
X73776341Y-117094000D01*
X73757024Y-116897868D01*
X73699814Y-116709273D01*
X73699811Y-116709269D01*
X73699811Y-116709266D01*
X73606913Y-116535467D01*
X73606909Y-116535460D01*
X73481883Y-116383116D01*
X73329539Y-116258090D01*
X73329532Y-116258086D01*
X73155733Y-116165188D01*
X73155727Y-116165186D01*
X73004769Y-116119393D01*
X72967129Y-116107975D01*
X72771000Y-116088659D01*
X72574870Y-116107975D01*
X72386266Y-116165188D01*
X72212467Y-116258086D01*
X72212460Y-116258090D01*
X72060116Y-116383116D01*
X71935090Y-116535460D01*
X71935086Y-116535467D01*
X71842188Y-116709266D01*
X71784975Y-116897870D01*
X71765659Y-117094000D01*
X71765659Y-117094001D01*
X71770736Y-117145560D01*
X71757716Y-117214206D01*
X71735014Y-117245393D01*
X70863208Y-118117199D01*
X70850951Y-118127020D01*
X70851134Y-118127241D01*
X70845122Y-118132214D01*
X70799098Y-118181223D01*
X70796391Y-118184016D01*
X70776889Y-118203517D01*
X70776875Y-118203534D01*
X70774407Y-118206715D01*
X70766843Y-118215570D01*
X70736937Y-118247418D01*
X70736936Y-118247420D01*
X70727284Y-118264976D01*
X70716610Y-118281226D01*
X70704329Y-118297061D01*
X70704324Y-118297068D01*
X70686975Y-118337158D01*
X70681838Y-118347644D01*
X70660803Y-118385906D01*
X70655822Y-118405307D01*
X70649521Y-118423710D01*
X70641562Y-118442102D01*
X70641561Y-118442105D01*
X70634728Y-118485243D01*
X70632360Y-118496674D01*
X70621501Y-118538971D01*
X70621500Y-118538982D01*
X70621500Y-118559016D01*
X70619973Y-118578415D01*
X70617577Y-118593545D01*
X70616840Y-118598196D01*
X70618018Y-118610656D01*
X70620950Y-118641674D01*
X70621500Y-118653343D01*
X70621500Y-119435811D01*
X70601815Y-119502850D01*
X70568623Y-119537386D01*
X70407859Y-119649953D01*
X70246954Y-119810858D01*
X70116432Y-119997265D01*
X70116431Y-119997267D01*
X70089382Y-120055275D01*
X70043209Y-120107714D01*
X69976016Y-120126866D01*
X69909135Y-120106650D01*
X69864618Y-120055275D01*
X69837686Y-119997520D01*
X69837568Y-119997266D01*
X69707047Y-119810861D01*
X69707045Y-119810858D01*
X69546141Y-119649954D01*
X69359734Y-119519432D01*
X69359732Y-119519431D01*
X69153497Y-119423261D01*
X69153488Y-119423258D01*
X68933697Y-119364366D01*
X68933693Y-119364365D01*
X68933692Y-119364365D01*
X68933691Y-119364364D01*
X68933686Y-119364364D01*
X68707002Y-119344532D01*
X68706998Y-119344532D01*
X68480313Y-119364364D01*
X68480302Y-119364366D01*
X68260511Y-119423258D01*
X68260502Y-119423261D01*
X68054267Y-119519431D01*
X68054263Y-119519434D01*
X68039191Y-119529987D01*
X67972984Y-119552313D01*
X67905218Y-119535300D01*
X67857406Y-119484350D01*
X67844730Y-119415640D01*
X67871214Y-119350984D01*
X67889411Y-119332553D01*
X67893884Y-119328882D01*
X68018909Y-119176539D01*
X68018913Y-119176532D01*
X68023814Y-119167364D01*
X68111814Y-119002727D01*
X68169024Y-118814132D01*
X68178549Y-118717418D01*
X68204709Y-118652631D01*
X68261744Y-118612272D01*
X68314105Y-118606169D01*
X68326000Y-118607341D01*
X68522132Y-118588024D01*
X68710727Y-118530814D01*
X68884538Y-118437910D01*
X69036883Y-118312883D01*
X69161910Y-118160538D01*
X69254814Y-117986727D01*
X69312024Y-117798132D01*
X69331341Y-117602000D01*
X69312024Y-117405868D01*
X69254814Y-117217273D01*
X69254811Y-117217269D01*
X69254811Y-117217266D01*
X69161913Y-117043467D01*
X69161909Y-117043460D01*
X69036883Y-116891116D01*
X68884539Y-116766090D01*
X68884532Y-116766085D01*
X68727047Y-116681908D01*
X68677202Y-116632946D01*
X68661500Y-116572550D01*
X68661500Y-111729656D01*
X68681185Y-111662617D01*
X68733989Y-111616862D01*
X68797653Y-111606253D01*
X68961000Y-111622341D01*
X69157132Y-111603024D01*
X69345727Y-111545814D01*
X69519538Y-111452910D01*
X69671883Y-111327883D01*
X69796910Y-111175538D01*
X69889814Y-111001727D01*
X69947024Y-110813132D01*
X69966341Y-110617000D01*
X69965169Y-110605106D01*
X69978186Y-110536463D01*
X70026250Y-110485751D01*
X70076417Y-110469549D01*
X70173132Y-110460024D01*
X70361727Y-110402814D01*
X70402692Y-110380918D01*
X70535532Y-110309913D01*
X70535538Y-110309910D01*
X70687883Y-110184883D01*
X70812910Y-110032538D01*
X70905814Y-109858727D01*
X70963024Y-109670132D01*
X70982341Y-109474000D01*
X70963024Y-109277868D01*
X70905814Y-109089273D01*
X70905811Y-109089269D01*
X70905811Y-109089266D01*
X70812913Y-108915467D01*
X70812909Y-108915460D01*
X70687885Y-108763118D01*
X70647834Y-108730249D01*
X70608500Y-108672503D01*
X70602500Y-108634397D01*
X70602500Y-89957797D01*
X70604224Y-89942183D01*
X70603938Y-89942156D01*
X70604672Y-89934393D01*
X70602561Y-89867203D01*
X70602500Y-89863309D01*
X70602500Y-89835711D01*
X70602500Y-89835710D01*
X70601997Y-89831730D01*
X70601080Y-89820081D01*
X70599709Y-89776434D01*
X70599709Y-89776432D01*
X70594120Y-89757197D01*
X70590174Y-89738144D01*
X70587664Y-89718268D01*
X70571578Y-89677641D01*
X70567803Y-89666614D01*
X70555617Y-89624670D01*
X70545421Y-89607429D01*
X70536860Y-89589953D01*
X70529486Y-89571329D01*
X70529485Y-89571327D01*
X70524539Y-89564519D01*
X70503809Y-89535986D01*
X70497412Y-89526250D01*
X70475170Y-89488639D01*
X70475167Y-89488636D01*
X70475165Y-89488633D01*
X70461005Y-89474473D01*
X70448370Y-89459680D01*
X70436593Y-89443472D01*
X70402945Y-89415636D01*
X70394304Y-89407773D01*
X61875819Y-80889288D01*
X61842334Y-80827965D01*
X61839500Y-80801607D01*
X61839500Y-80637499D01*
X61859185Y-80570460D01*
X61911989Y-80524705D01*
X61963500Y-80513499D01*
X62661871Y-80513499D01*
X62661872Y-80513499D01*
X62721483Y-80507091D01*
X62856331Y-80456796D01*
X62971546Y-80370546D01*
X63057796Y-80255331D01*
X63108091Y-80120483D01*
X63114500Y-80060873D01*
X63114499Y-77165128D01*
X63108091Y-77105517D01*
X63057796Y-76970669D01*
X63057795Y-76970668D01*
X63057793Y-76970664D01*
X62971547Y-76855455D01*
X62971544Y-76855452D01*
X62856335Y-76769206D01*
X62856328Y-76769202D01*
X62721482Y-76718908D01*
X62721483Y-76718908D01*
X62661883Y-76712501D01*
X62661881Y-76712500D01*
X62661873Y-76712500D01*
X62661864Y-76712500D01*
X59766129Y-76712500D01*
X59766123Y-76712501D01*
X59706516Y-76718908D01*
X59571671Y-76769202D01*
X59571664Y-76769206D01*
X59456455Y-76855452D01*
X59456452Y-76855455D01*
X59370206Y-76970664D01*
X59370202Y-76970671D01*
X59319908Y-77105517D01*
X59313501Y-77165116D01*
X59313501Y-77165123D01*
X59313500Y-77165135D01*
X59313500Y-80060870D01*
X59313501Y-80060876D01*
X59319908Y-80120483D01*
X59370202Y-80255328D01*
X59370206Y-80255335D01*
X59456452Y-80370544D01*
X59456455Y-80370547D01*
X59571664Y-80456793D01*
X59571671Y-80456797D01*
X59706517Y-80507091D01*
X59706516Y-80507091D01*
X59713444Y-80507835D01*
X59766127Y-80513500D01*
X60464500Y-80513499D01*
X60531539Y-80533183D01*
X60577294Y-80585987D01*
X60588500Y-80637499D01*
X60588500Y-81029315D01*
X60586775Y-81044932D01*
X60587061Y-81044959D01*
X60586326Y-81052725D01*
X60588439Y-81119932D01*
X60588500Y-81123827D01*
X60588500Y-81151417D01*
X60589003Y-81155395D01*
X60589918Y-81167027D01*
X60591290Y-81210684D01*
X60591291Y-81210687D01*
X60596880Y-81229927D01*
X60600824Y-81248971D01*
X60603336Y-81268852D01*
X60619414Y-81309463D01*
X60623197Y-81320512D01*
X60635381Y-81362448D01*
X60645580Y-81379694D01*
X60654138Y-81397163D01*
X60661514Y-81415792D01*
X60687181Y-81451120D01*
X60693593Y-81460881D01*
X60715828Y-81498477D01*
X60715833Y-81498484D01*
X60729990Y-81512640D01*
X60742628Y-81527436D01*
X60754405Y-81543646D01*
X60754406Y-81543647D01*
X60788057Y-81571485D01*
X60796698Y-81579348D01*
X60849663Y-81632313D01*
X60883148Y-81693636D01*
X60878164Y-81763328D01*
X60836292Y-81819261D01*
X60788340Y-81841160D01*
X60677346Y-81865305D01*
X60422693Y-81960285D01*
X60422689Y-81960287D01*
X60184164Y-82090532D01*
X60184156Y-82090537D01*
X60058875Y-82184321D01*
X60058874Y-82184322D01*
X60797173Y-82922621D01*
X60681350Y-82992311D01*
X60543175Y-83123196D01*
X60441138Y-83273690D01*
X59705322Y-82537874D01*
X59705321Y-82537875D01*
X59611537Y-82663156D01*
X59611532Y-82663164D01*
X59481287Y-82901689D01*
X59481285Y-82901693D01*
X59386305Y-83156345D01*
X59328537Y-83421902D01*
X59328536Y-83421909D01*
X59309147Y-83692998D01*
X59309147Y-83693001D01*
X59328536Y-83964090D01*
X59328537Y-83964097D01*
X59386305Y-84229654D01*
X59481285Y-84484306D01*
X59481287Y-84484310D01*
X59611532Y-84722835D01*
X59611537Y-84722843D01*
X59705321Y-84848123D01*
X59705322Y-84848124D01*
X60444274Y-84109172D01*
X60485501Y-84186934D01*
X60608714Y-84331992D01*
X60760230Y-84447171D01*
X60796568Y-84463983D01*
X60058874Y-85201676D01*
X60184163Y-85295466D01*
X60184164Y-85295467D01*
X60422689Y-85425712D01*
X60422693Y-85425714D01*
X60677345Y-85520694D01*
X60942902Y-85578462D01*
X60942909Y-85578463D01*
X61213999Y-85597853D01*
X61214001Y-85597853D01*
X61485090Y-85578463D01*
X61485097Y-85578462D01*
X61750654Y-85520694D01*
X62005306Y-85425714D01*
X62005310Y-85425712D01*
X62243844Y-85295462D01*
X62369123Y-85201677D01*
X62369124Y-85201676D01*
X61630826Y-84463378D01*
X61746650Y-84393689D01*
X61884825Y-84262804D01*
X61986861Y-84112309D01*
X62722676Y-84848124D01*
X62722677Y-84848123D01*
X62816462Y-84722844D01*
X62946712Y-84484310D01*
X62946714Y-84484306D01*
X63041694Y-84229652D01*
X63065839Y-84118660D01*
X63099323Y-84057336D01*
X63160646Y-84023851D01*
X63230338Y-84028835D01*
X63274686Y-84057336D01*
X69315181Y-90097831D01*
X69348666Y-90159154D01*
X69351500Y-90185512D01*
X69351500Y-95726547D01*
X69331815Y-95793586D01*
X69279011Y-95839341D01*
X69209853Y-95849285D01*
X69146297Y-95820260D01*
X69139819Y-95814228D01*
X62988018Y-89662427D01*
X62954533Y-89601104D01*
X62959516Y-89531415D01*
X63042175Y-89309801D01*
X63099961Y-89044160D01*
X63119355Y-88773000D01*
X63099961Y-88501840D01*
X63042175Y-88236199D01*
X62947172Y-87981487D01*
X62947170Y-87981484D01*
X62947169Y-87981480D01*
X62816890Y-87742892D01*
X62816889Y-87742891D01*
X62816887Y-87742887D01*
X62653971Y-87525258D01*
X62653966Y-87525253D01*
X62653961Y-87525247D01*
X62461752Y-87333038D01*
X62461746Y-87333033D01*
X62461742Y-87333029D01*
X62244113Y-87170113D01*
X62244108Y-87170110D01*
X62244107Y-87170109D01*
X62005518Y-87039830D01*
X62005519Y-87039830D01*
X61955920Y-87021330D01*
X61750801Y-86944825D01*
X61750794Y-86944823D01*
X61750793Y-86944823D01*
X61485167Y-86887040D01*
X61485160Y-86887039D01*
X61214001Y-86867645D01*
X61213999Y-86867645D01*
X60942839Y-86887039D01*
X60942832Y-86887040D01*
X60677206Y-86944823D01*
X60677202Y-86944824D01*
X60677199Y-86944825D01*
X60586699Y-86978580D01*
X60422480Y-87039830D01*
X60183892Y-87170109D01*
X60183891Y-87170110D01*
X59966259Y-87333028D01*
X59966247Y-87333038D01*
X59774038Y-87525247D01*
X59774028Y-87525259D01*
X59611110Y-87742891D01*
X59611109Y-87742892D01*
X59480830Y-87981480D01*
X59433326Y-88108843D01*
X59385825Y-88236199D01*
X59385824Y-88236202D01*
X59385823Y-88236206D01*
X59328040Y-88501832D01*
X59328039Y-88501839D01*
X59308645Y-88772998D01*
X59308645Y-88773001D01*
X59328039Y-89044160D01*
X59328040Y-89044167D01*
X59385823Y-89309793D01*
X59385825Y-89309801D01*
X59447245Y-89474473D01*
X59480830Y-89564519D01*
X59611109Y-89803107D01*
X59611110Y-89803108D01*
X59611113Y-89803113D01*
X59774029Y-90020742D01*
X59774033Y-90020746D01*
X59774038Y-90020752D01*
X59966247Y-90212961D01*
X59966253Y-90212966D01*
X59966258Y-90212971D01*
X60183887Y-90375887D01*
X60183891Y-90375889D01*
X60183892Y-90375890D01*
X60422481Y-90506169D01*
X60422480Y-90506169D01*
X60422484Y-90506170D01*
X60422487Y-90506172D01*
X60677199Y-90601175D01*
X60942840Y-90658961D01*
X61194605Y-90676967D01*
X61213999Y-90678355D01*
X61214000Y-90678355D01*
X61214001Y-90678355D01*
X61232100Y-90677060D01*
X61485160Y-90658961D01*
X61750801Y-90601175D01*
X61972415Y-90518516D01*
X62042104Y-90513533D01*
X62103427Y-90547018D01*
X68299181Y-96742771D01*
X68332666Y-96804094D01*
X68335500Y-96830452D01*
X68335500Y-104870547D01*
X68315815Y-104937586D01*
X68263011Y-104983341D01*
X68193853Y-104993285D01*
X68130297Y-104964260D01*
X68123819Y-104958228D01*
X62988018Y-99822427D01*
X62954533Y-99761104D01*
X62959516Y-99691415D01*
X63042175Y-99469801D01*
X63099961Y-99204160D01*
X63119355Y-98933000D01*
X63099961Y-98661840D01*
X63042175Y-98396199D01*
X62947172Y-98141487D01*
X62947170Y-98141484D01*
X62947169Y-98141480D01*
X62816890Y-97902892D01*
X62816889Y-97902891D01*
X62816887Y-97902887D01*
X62653971Y-97685258D01*
X62653966Y-97685253D01*
X62653961Y-97685247D01*
X62461752Y-97493038D01*
X62461746Y-97493033D01*
X62461742Y-97493029D01*
X62244113Y-97330113D01*
X62244108Y-97330110D01*
X62244107Y-97330109D01*
X62005518Y-97199830D01*
X62005519Y-97199830D01*
X61955920Y-97181330D01*
X61750801Y-97104825D01*
X61750794Y-97104823D01*
X61750793Y-97104823D01*
X61485167Y-97047040D01*
X61485160Y-97047039D01*
X61214001Y-97027645D01*
X61213999Y-97027645D01*
X60942839Y-97047039D01*
X60942832Y-97047040D01*
X60677206Y-97104823D01*
X60677202Y-97104824D01*
X60677199Y-97104825D01*
X60549843Y-97152326D01*
X60422480Y-97199830D01*
X60183892Y-97330109D01*
X60183891Y-97330110D01*
X59966259Y-97493028D01*
X59966247Y-97493038D01*
X59774038Y-97685247D01*
X59774028Y-97685259D01*
X59611110Y-97902891D01*
X59611109Y-97902892D01*
X59480830Y-98141480D01*
X59457336Y-98204470D01*
X59385825Y-98396199D01*
X59385824Y-98396202D01*
X59385823Y-98396206D01*
X59328040Y-98661832D01*
X59328039Y-98661839D01*
X59308645Y-98932998D01*
X59308645Y-98933001D01*
X59328039Y-99204160D01*
X59328040Y-99204167D01*
X59385823Y-99469793D01*
X59385825Y-99469801D01*
X59462330Y-99674920D01*
X59480830Y-99724519D01*
X59611109Y-99963107D01*
X59611110Y-99963108D01*
X59611113Y-99963113D01*
X59774029Y-100180742D01*
X59774033Y-100180746D01*
X59774038Y-100180752D01*
X59966247Y-100372961D01*
X59966253Y-100372966D01*
X59966258Y-100372971D01*
X60183887Y-100535887D01*
X60183891Y-100535889D01*
X60183892Y-100535890D01*
X60422481Y-100666169D01*
X60422480Y-100666169D01*
X60422484Y-100666170D01*
X60422487Y-100666172D01*
X60677199Y-100761175D01*
X60942840Y-100818961D01*
X61194605Y-100836967D01*
X61213999Y-100838355D01*
X61214000Y-100838355D01*
X61214001Y-100838355D01*
X61232100Y-100837060D01*
X61485160Y-100818961D01*
X61750801Y-100761175D01*
X61972415Y-100678516D01*
X62042104Y-100673533D01*
X62103427Y-100707018D01*
X67374181Y-105977771D01*
X67407666Y-106039094D01*
X67410500Y-106065452D01*
X67410500Y-114105547D01*
X67390815Y-114172586D01*
X67338011Y-114218341D01*
X67268853Y-114228285D01*
X67205297Y-114199260D01*
X67198819Y-114193228D01*
X62988018Y-109982427D01*
X62954533Y-109921104D01*
X62959516Y-109851415D01*
X63042175Y-109629801D01*
X63099961Y-109364160D01*
X63119355Y-109093000D01*
X63119088Y-109089273D01*
X63113662Y-109013401D01*
X63099961Y-108821840D01*
X63042175Y-108556199D01*
X62947172Y-108301487D01*
X62947170Y-108301484D01*
X62947169Y-108301480D01*
X62816890Y-108062892D01*
X62816889Y-108062891D01*
X62816887Y-108062887D01*
X62653971Y-107845258D01*
X62653966Y-107845253D01*
X62653961Y-107845247D01*
X62461752Y-107653038D01*
X62461746Y-107653033D01*
X62461742Y-107653029D01*
X62244113Y-107490113D01*
X62244108Y-107490110D01*
X62244107Y-107490109D01*
X62005518Y-107359830D01*
X62005519Y-107359830D01*
X61955920Y-107341330D01*
X61750801Y-107264825D01*
X61750794Y-107264823D01*
X61750793Y-107264823D01*
X61485167Y-107207040D01*
X61485160Y-107207039D01*
X61214001Y-107187645D01*
X61213999Y-107187645D01*
X60942839Y-107207039D01*
X60942832Y-107207040D01*
X60677206Y-107264823D01*
X60677202Y-107264824D01*
X60677199Y-107264825D01*
X60549843Y-107312326D01*
X60422480Y-107359830D01*
X60183892Y-107490109D01*
X60183891Y-107490110D01*
X59966259Y-107653028D01*
X59966247Y-107653038D01*
X59774038Y-107845247D01*
X59774028Y-107845259D01*
X59611110Y-108062891D01*
X59611109Y-108062892D01*
X59480830Y-108301480D01*
X59433326Y-108428843D01*
X59385825Y-108556199D01*
X59385824Y-108556202D01*
X59385823Y-108556206D01*
X59328040Y-108821832D01*
X59328039Y-108821839D01*
X59308645Y-109092998D01*
X59308645Y-109093001D01*
X59328039Y-109364160D01*
X59328040Y-109364167D01*
X59385823Y-109629793D01*
X59385825Y-109629801D01*
X59433274Y-109757016D01*
X59480830Y-109884519D01*
X59611109Y-110123107D01*
X59611110Y-110123108D01*
X59611113Y-110123113D01*
X59774029Y-110340742D01*
X59774033Y-110340746D01*
X59774038Y-110340752D01*
X59966247Y-110532961D01*
X59966253Y-110532966D01*
X59966258Y-110532971D01*
X60183887Y-110695887D01*
X60183891Y-110695889D01*
X60183892Y-110695890D01*
X60422481Y-110826169D01*
X60422480Y-110826169D01*
X60422484Y-110826170D01*
X60422487Y-110826172D01*
X60677199Y-110921175D01*
X60942840Y-110978961D01*
X61194605Y-110996967D01*
X61213999Y-110998355D01*
X61214000Y-110998355D01*
X61214001Y-110998355D01*
X61232100Y-110997060D01*
X61485160Y-110978961D01*
X61750801Y-110921175D01*
X61972415Y-110838516D01*
X62042105Y-110833533D01*
X62103428Y-110867018D01*
X66521181Y-115284771D01*
X66554666Y-115346094D01*
X66557500Y-115372452D01*
X66557500Y-117778397D01*
X66537815Y-117845436D01*
X66512166Y-117874249D01*
X66472114Y-117907118D01*
X66347090Y-118059460D01*
X66347086Y-118059467D01*
X66254188Y-118233266D01*
X66196975Y-118421870D01*
X66177659Y-118618000D01*
X66196975Y-118814129D01*
X66254188Y-119002733D01*
X66342185Y-119167364D01*
X66356427Y-119235767D01*
X66331427Y-119301011D01*
X66275122Y-119342381D01*
X66222021Y-119349345D01*
X66167003Y-119344532D01*
X66166998Y-119344532D01*
X65940313Y-119364364D01*
X65940302Y-119364366D01*
X65720511Y-119423258D01*
X65720502Y-119423261D01*
X65514267Y-119519431D01*
X65514265Y-119519432D01*
X65327858Y-119649954D01*
X65166954Y-119810858D01*
X65036432Y-119997265D01*
X65036431Y-119997267D01*
X65009382Y-120055275D01*
X64963209Y-120107714D01*
X64896016Y-120126866D01*
X64829135Y-120106650D01*
X64784618Y-120055275D01*
X64757686Y-119997520D01*
X64757568Y-119997266D01*
X64627047Y-119810861D01*
X64627045Y-119810858D01*
X64466141Y-119649954D01*
X64279734Y-119519432D01*
X64279732Y-119519431D01*
X64073497Y-119423261D01*
X64073488Y-119423258D01*
X63853697Y-119364366D01*
X63853693Y-119364365D01*
X63853692Y-119364365D01*
X63853691Y-119364364D01*
X63853686Y-119364364D01*
X63627002Y-119344532D01*
X63626998Y-119344532D01*
X63400313Y-119364364D01*
X63400302Y-119364366D01*
X63180511Y-119423258D01*
X63180502Y-119423261D01*
X62974267Y-119519431D01*
X62974265Y-119519432D01*
X62787858Y-119649954D01*
X62626954Y-119810858D01*
X62496432Y-119997265D01*
X62496431Y-119997267D01*
X62469382Y-120055275D01*
X62423209Y-120107714D01*
X62356016Y-120126866D01*
X62289135Y-120106650D01*
X62244618Y-120055275D01*
X62217686Y-119997520D01*
X62217568Y-119997266D01*
X62087047Y-119810861D01*
X62087045Y-119810858D01*
X61926141Y-119649954D01*
X61739734Y-119519432D01*
X61739732Y-119519431D01*
X61533497Y-119423261D01*
X61533488Y-119423258D01*
X61313697Y-119364366D01*
X61313693Y-119364365D01*
X61313692Y-119364365D01*
X61313691Y-119364364D01*
X61313686Y-119364364D01*
X61087002Y-119344532D01*
X61086998Y-119344532D01*
X60860313Y-119364364D01*
X60860302Y-119364366D01*
X60640511Y-119423258D01*
X60640502Y-119423261D01*
X60434267Y-119519431D01*
X60434265Y-119519432D01*
X60247858Y-119649954D01*
X60086954Y-119810858D01*
X59956432Y-119997265D01*
X59956431Y-119997267D01*
X59860261Y-120203502D01*
X59860258Y-120203511D01*
X59801366Y-120423302D01*
X59801364Y-120423313D01*
X59781532Y-120649998D01*
X59781532Y-120650001D01*
X59801364Y-120876686D01*
X59801366Y-120876697D01*
X59860258Y-121096488D01*
X59860261Y-121096497D01*
X59956431Y-121302732D01*
X59956432Y-121302734D01*
X60086954Y-121489141D01*
X60247858Y-121650045D01*
X60247861Y-121650047D01*
X60434266Y-121780568D01*
X60640504Y-121876739D01*
X60860308Y-121935635D01*
X61017780Y-121949412D01*
X61086998Y-121955468D01*
X61087000Y-121955468D01*
X61087002Y-121955468D01*
X61156220Y-121949412D01*
X61313692Y-121935635D01*
X61533496Y-121876739D01*
X61739734Y-121780568D01*
X61926139Y-121650047D01*
X62087047Y-121489139D01*
X62217568Y-121302734D01*
X62244618Y-121244724D01*
X62290790Y-121192285D01*
X62357983Y-121173133D01*
X62424865Y-121193348D01*
X62469381Y-121244724D01*
X62483517Y-121275038D01*
X62496429Y-121302728D01*
X62496432Y-121302734D01*
X62626954Y-121489141D01*
X62787858Y-121650045D01*
X62787861Y-121650047D01*
X62974266Y-121780568D01*
X63180504Y-121876739D01*
X63400308Y-121935635D01*
X63557780Y-121949412D01*
X63626998Y-121955468D01*
X63627000Y-121955468D01*
X63627002Y-121955468D01*
X63696220Y-121949412D01*
X63853692Y-121935635D01*
X64073496Y-121876739D01*
X64279734Y-121780568D01*
X64466139Y-121650047D01*
X64627047Y-121489139D01*
X64757568Y-121302734D01*
X64784618Y-121244724D01*
X64830790Y-121192285D01*
X64897983Y-121173133D01*
X64964865Y-121193348D01*
X65009381Y-121244724D01*
X65023517Y-121275038D01*
X65036429Y-121302728D01*
X65036432Y-121302734D01*
X65166954Y-121489141D01*
X65327858Y-121650045D01*
X65327861Y-121650047D01*
X65514266Y-121780568D01*
X65720504Y-121876739D01*
X65940308Y-121935635D01*
X66097780Y-121949412D01*
X66166998Y-121955468D01*
X66167000Y-121955468D01*
X66167002Y-121955468D01*
X66236220Y-121949412D01*
X66393692Y-121935635D01*
X66613496Y-121876739D01*
X66819734Y-121780568D01*
X67006139Y-121650047D01*
X67167047Y-121489139D01*
X67297568Y-121302734D01*
X67324618Y-121244724D01*
X67370790Y-121192285D01*
X67437983Y-121173133D01*
X67504865Y-121193348D01*
X67549381Y-121244724D01*
X67563517Y-121275038D01*
X67576429Y-121302728D01*
X67576432Y-121302734D01*
X67706954Y-121489141D01*
X67867858Y-121650045D01*
X67867861Y-121650047D01*
X68054266Y-121780568D01*
X68260504Y-121876739D01*
X68480308Y-121935635D01*
X68637780Y-121949412D01*
X68706998Y-121955468D01*
X68707000Y-121955468D01*
X68707002Y-121955468D01*
X68776220Y-121949412D01*
X68933692Y-121935635D01*
X69153496Y-121876739D01*
X69359734Y-121780568D01*
X69546139Y-121650047D01*
X69707047Y-121489139D01*
X69837568Y-121302734D01*
X69864618Y-121244724D01*
X69910790Y-121192285D01*
X69977983Y-121173133D01*
X70044865Y-121193348D01*
X70089381Y-121244724D01*
X70103517Y-121275038D01*
X70116429Y-121302728D01*
X70116432Y-121302734D01*
X70246954Y-121489141D01*
X70407858Y-121650045D01*
X70407861Y-121650047D01*
X70594266Y-121780568D01*
X70800504Y-121876739D01*
X71020308Y-121935635D01*
X71177780Y-121949412D01*
X71246998Y-121955468D01*
X71247000Y-121955468D01*
X71247002Y-121955468D01*
X71316220Y-121949412D01*
X71473692Y-121935635D01*
X71693496Y-121876739D01*
X71899734Y-121780568D01*
X72086139Y-121650047D01*
X72247047Y-121489139D01*
X72377568Y-121302734D01*
X72404618Y-121244724D01*
X72450790Y-121192285D01*
X72517983Y-121173133D01*
X72584865Y-121193348D01*
X72629381Y-121244724D01*
X72643517Y-121275038D01*
X72656429Y-121302728D01*
X72656432Y-121302734D01*
X72786954Y-121489141D01*
X72947858Y-121650045D01*
X72947861Y-121650047D01*
X73134266Y-121780568D01*
X73340504Y-121876739D01*
X73560308Y-121935635D01*
X73785742Y-121955357D01*
X73850809Y-121980809D01*
X73862614Y-121991204D01*
X74021015Y-122149605D01*
X74054500Y-122210928D01*
X74056737Y-122249439D01*
X74051659Y-122300999D01*
X74070975Y-122497129D01*
X74128188Y-122685733D01*
X74221086Y-122859532D01*
X74221090Y-122859539D01*
X74346116Y-123011883D01*
X74498460Y-123136909D01*
X74498467Y-123136913D01*
X74635468Y-123210142D01*
X74685312Y-123259104D01*
X74700773Y-123327242D01*
X74676941Y-123392921D01*
X74621384Y-123435290D01*
X74577015Y-123443500D01*
X55877500Y-123443500D01*
X55810461Y-123423815D01*
X55764706Y-123371011D01*
X55753500Y-123319500D01*
X55753500Y-114173001D01*
X59309147Y-114173001D01*
X59328536Y-114444090D01*
X59328537Y-114444097D01*
X59386305Y-114709654D01*
X59481285Y-114964306D01*
X59481287Y-114964310D01*
X59611532Y-115202835D01*
X59611537Y-115202843D01*
X59705321Y-115328123D01*
X59705322Y-115328124D01*
X60444274Y-114589172D01*
X60485501Y-114666934D01*
X60608714Y-114811992D01*
X60760230Y-114927171D01*
X60796568Y-114943983D01*
X60058874Y-115681676D01*
X60184163Y-115775466D01*
X60184164Y-115775467D01*
X60422689Y-115905712D01*
X60422693Y-115905714D01*
X60677345Y-116000694D01*
X60942902Y-116058462D01*
X60942909Y-116058463D01*
X61213999Y-116077853D01*
X61214001Y-116077853D01*
X61485090Y-116058463D01*
X61485097Y-116058462D01*
X61750654Y-116000694D01*
X62005306Y-115905714D01*
X62005310Y-115905712D01*
X62243844Y-115775462D01*
X62369123Y-115681677D01*
X62369124Y-115681676D01*
X61630826Y-114943378D01*
X61746650Y-114873689D01*
X61884825Y-114742804D01*
X61986861Y-114592309D01*
X62722676Y-115328124D01*
X62722677Y-115328123D01*
X62816462Y-115202844D01*
X62946712Y-114964310D01*
X62946714Y-114964306D01*
X63041694Y-114709654D01*
X63099462Y-114444097D01*
X63099463Y-114444090D01*
X63118853Y-114173001D01*
X63118853Y-114172998D01*
X63099463Y-113901909D01*
X63099462Y-113901902D01*
X63041694Y-113636345D01*
X62946714Y-113381693D01*
X62946712Y-113381689D01*
X62816467Y-113143164D01*
X62816466Y-113143163D01*
X62722676Y-113017874D01*
X61983724Y-113756826D01*
X61942499Y-113679066D01*
X61819286Y-113534008D01*
X61667770Y-113418829D01*
X61631430Y-113402016D01*
X62369124Y-112664322D01*
X62369123Y-112664321D01*
X62243843Y-112570537D01*
X62243835Y-112570532D01*
X62005310Y-112440287D01*
X62005306Y-112440285D01*
X61750654Y-112345305D01*
X61485097Y-112287537D01*
X61485090Y-112287536D01*
X61214001Y-112268147D01*
X61213999Y-112268147D01*
X60942909Y-112287536D01*
X60942902Y-112287537D01*
X60677345Y-112345305D01*
X60422693Y-112440285D01*
X60422689Y-112440287D01*
X60184164Y-112570532D01*
X60184156Y-112570537D01*
X60058875Y-112664321D01*
X60058874Y-112664322D01*
X60797173Y-113402621D01*
X60681350Y-113472311D01*
X60543175Y-113603196D01*
X60441138Y-113753690D01*
X59705322Y-113017874D01*
X59705321Y-113017875D01*
X59611537Y-113143156D01*
X59611532Y-113143164D01*
X59481287Y-113381689D01*
X59481285Y-113381693D01*
X59386305Y-113636345D01*
X59328537Y-113901902D01*
X59328536Y-113901909D01*
X59309147Y-114172998D01*
X59309147Y-114173001D01*
X55753500Y-114173001D01*
X55753500Y-104013001D01*
X59309147Y-104013001D01*
X59328536Y-104284090D01*
X59328537Y-104284097D01*
X59386305Y-104549654D01*
X59481285Y-104804306D01*
X59481287Y-104804310D01*
X59611532Y-105042835D01*
X59611537Y-105042843D01*
X59705321Y-105168123D01*
X59705322Y-105168124D01*
X60444274Y-104429172D01*
X60485501Y-104506934D01*
X60608714Y-104651992D01*
X60760230Y-104767171D01*
X60796568Y-104783983D01*
X60058874Y-105521676D01*
X60184163Y-105615466D01*
X60184164Y-105615467D01*
X60422689Y-105745712D01*
X60422693Y-105745714D01*
X60677345Y-105840694D01*
X60942902Y-105898462D01*
X60942909Y-105898463D01*
X61213999Y-105917853D01*
X61214001Y-105917853D01*
X61485090Y-105898463D01*
X61485097Y-105898462D01*
X61750654Y-105840694D01*
X62005306Y-105745714D01*
X62005310Y-105745712D01*
X62243844Y-105615462D01*
X62369123Y-105521677D01*
X62369124Y-105521676D01*
X61630826Y-104783378D01*
X61746650Y-104713689D01*
X61884825Y-104582804D01*
X61986861Y-104432309D01*
X62722676Y-105168124D01*
X62722677Y-105168123D01*
X62816462Y-105042844D01*
X62946712Y-104804310D01*
X62946714Y-104804306D01*
X63041694Y-104549654D01*
X63099462Y-104284097D01*
X63099463Y-104284090D01*
X63118853Y-104013001D01*
X63118853Y-104012998D01*
X63099463Y-103741909D01*
X63099462Y-103741902D01*
X63041694Y-103476345D01*
X62946714Y-103221693D01*
X62946712Y-103221689D01*
X62816467Y-102983164D01*
X62816466Y-102983163D01*
X62722676Y-102857874D01*
X61983724Y-103596826D01*
X61942499Y-103519066D01*
X61819286Y-103374008D01*
X61667770Y-103258829D01*
X61631430Y-103242016D01*
X62369124Y-102504322D01*
X62369123Y-102504321D01*
X62243843Y-102410537D01*
X62243835Y-102410532D01*
X62005310Y-102280287D01*
X62005306Y-102280285D01*
X61750654Y-102185305D01*
X61485097Y-102127537D01*
X61485090Y-102127536D01*
X61214001Y-102108147D01*
X61213999Y-102108147D01*
X60942909Y-102127536D01*
X60942902Y-102127537D01*
X60677345Y-102185305D01*
X60422693Y-102280285D01*
X60422689Y-102280287D01*
X60184164Y-102410532D01*
X60184156Y-102410537D01*
X60058875Y-102504321D01*
X60058874Y-102504322D01*
X60797173Y-103242621D01*
X60681350Y-103312311D01*
X60543175Y-103443196D01*
X60441138Y-103593690D01*
X59705322Y-102857874D01*
X59705321Y-102857875D01*
X59611537Y-102983156D01*
X59611532Y-102983164D01*
X59481287Y-103221689D01*
X59481285Y-103221693D01*
X59386305Y-103476345D01*
X59328537Y-103741902D01*
X59328536Y-103741909D01*
X59309147Y-104012998D01*
X59309147Y-104013001D01*
X55753500Y-104013001D01*
X55753500Y-93853001D01*
X59309147Y-93853001D01*
X59328536Y-94124090D01*
X59328537Y-94124097D01*
X59386305Y-94389654D01*
X59481285Y-94644306D01*
X59481287Y-94644310D01*
X59611532Y-94882835D01*
X59611537Y-94882843D01*
X59705321Y-95008123D01*
X59705322Y-95008124D01*
X60444274Y-94269172D01*
X60485501Y-94346934D01*
X60608714Y-94491992D01*
X60760230Y-94607171D01*
X60796568Y-94623983D01*
X60058874Y-95361676D01*
X60184163Y-95455466D01*
X60184164Y-95455467D01*
X60422689Y-95585712D01*
X60422693Y-95585714D01*
X60677345Y-95680694D01*
X60942902Y-95738462D01*
X60942909Y-95738463D01*
X61213999Y-95757853D01*
X61214001Y-95757853D01*
X61485090Y-95738463D01*
X61485097Y-95738462D01*
X61750654Y-95680694D01*
X62005306Y-95585714D01*
X62005310Y-95585712D01*
X62243844Y-95455462D01*
X62369123Y-95361677D01*
X62369124Y-95361676D01*
X61630826Y-94623378D01*
X61746650Y-94553689D01*
X61884825Y-94422804D01*
X61986861Y-94272309D01*
X62722676Y-95008124D01*
X62722677Y-95008123D01*
X62816462Y-94882844D01*
X62946712Y-94644310D01*
X62946714Y-94644306D01*
X63041694Y-94389654D01*
X63099462Y-94124097D01*
X63099463Y-94124090D01*
X63118853Y-93853001D01*
X63118853Y-93852998D01*
X63099463Y-93581909D01*
X63099462Y-93581902D01*
X63041694Y-93316345D01*
X62946714Y-93061693D01*
X62946712Y-93061689D01*
X62816467Y-92823164D01*
X62816466Y-92823163D01*
X62722676Y-92697874D01*
X61983724Y-93436826D01*
X61942499Y-93359066D01*
X61819286Y-93214008D01*
X61667770Y-93098829D01*
X61631430Y-93082016D01*
X62369124Y-92344322D01*
X62369123Y-92344321D01*
X62243843Y-92250537D01*
X62243835Y-92250532D01*
X62005310Y-92120287D01*
X62005306Y-92120285D01*
X61750654Y-92025305D01*
X61485097Y-91967537D01*
X61485090Y-91967536D01*
X61214001Y-91948147D01*
X61213999Y-91948147D01*
X60942909Y-91967536D01*
X60942902Y-91967537D01*
X60677345Y-92025305D01*
X60422693Y-92120285D01*
X60422689Y-92120287D01*
X60184164Y-92250532D01*
X60184156Y-92250537D01*
X60058875Y-92344321D01*
X60058874Y-92344322D01*
X60797173Y-93082621D01*
X60681350Y-93152311D01*
X60543175Y-93283196D01*
X60441138Y-93433690D01*
X59705322Y-92697874D01*
X59705321Y-92697875D01*
X59611537Y-92823156D01*
X59611532Y-92823164D01*
X59481287Y-93061689D01*
X59481285Y-93061693D01*
X59386305Y-93316345D01*
X59328537Y-93581902D01*
X59328536Y-93581909D01*
X59309147Y-93852998D01*
X59309147Y-93853001D01*
X55753500Y-93853001D01*
X55753500Y-72390001D01*
X59781532Y-72390001D01*
X59801364Y-72616686D01*
X59801366Y-72616697D01*
X59860258Y-72836488D01*
X59860261Y-72836497D01*
X59956431Y-73042732D01*
X59956432Y-73042734D01*
X60086954Y-73229141D01*
X60247858Y-73390045D01*
X60247861Y-73390047D01*
X60434266Y-73520568D01*
X60640504Y-73616739D01*
X60860308Y-73675635D01*
X61022230Y-73689801D01*
X61086998Y-73695468D01*
X61087000Y-73695468D01*
X61087002Y-73695468D01*
X61143807Y-73690498D01*
X61313692Y-73675635D01*
X61533496Y-73616739D01*
X61739734Y-73520568D01*
X61926139Y-73390047D01*
X62087047Y-73229139D01*
X62217568Y-73042734D01*
X62244618Y-72984724D01*
X62290790Y-72932285D01*
X62357983Y-72913133D01*
X62424865Y-72933348D01*
X62469382Y-72984725D01*
X62496429Y-73042728D01*
X62496432Y-73042734D01*
X62626954Y-73229141D01*
X62787858Y-73390045D01*
X62787861Y-73390047D01*
X62974266Y-73520568D01*
X63180504Y-73616739D01*
X63400308Y-73675635D01*
X63562230Y-73689801D01*
X63626998Y-73695468D01*
X63627000Y-73695468D01*
X63627002Y-73695468D01*
X63683807Y-73690498D01*
X63853692Y-73675635D01*
X64073496Y-73616739D01*
X64279734Y-73520568D01*
X64466139Y-73390047D01*
X64627047Y-73229139D01*
X64757568Y-73042734D01*
X64784618Y-72984724D01*
X64830790Y-72932285D01*
X64897983Y-72913133D01*
X64964865Y-72933348D01*
X65009382Y-72984725D01*
X65036429Y-73042728D01*
X65036432Y-73042734D01*
X65166954Y-73229141D01*
X65327858Y-73390045D01*
X65327861Y-73390047D01*
X65514266Y-73520568D01*
X65720504Y-73616739D01*
X65940308Y-73675635D01*
X66102230Y-73689801D01*
X66166998Y-73695468D01*
X66167000Y-73695468D01*
X66167002Y-73695468D01*
X66223807Y-73690498D01*
X66393692Y-73675635D01*
X66613496Y-73616739D01*
X66819734Y-73520568D01*
X67006139Y-73390047D01*
X67167047Y-73229139D01*
X67297568Y-73042734D01*
X67324618Y-72984724D01*
X67370790Y-72932285D01*
X67437983Y-72913133D01*
X67504865Y-72933348D01*
X67549382Y-72984725D01*
X67576429Y-73042728D01*
X67576432Y-73042734D01*
X67706954Y-73229141D01*
X67867858Y-73390045D01*
X67867861Y-73390047D01*
X68054266Y-73520568D01*
X68260504Y-73616739D01*
X68480308Y-73675635D01*
X68642230Y-73689801D01*
X68706998Y-73695468D01*
X68707000Y-73695468D01*
X68707002Y-73695468D01*
X68763807Y-73690498D01*
X68933692Y-73675635D01*
X69153496Y-73616739D01*
X69359734Y-73520568D01*
X69546139Y-73390047D01*
X69707047Y-73229139D01*
X69837568Y-73042734D01*
X69864618Y-72984724D01*
X69910790Y-72932285D01*
X69977983Y-72913133D01*
X70044865Y-72933348D01*
X70089382Y-72984725D01*
X70116429Y-73042728D01*
X70116432Y-73042734D01*
X70246954Y-73229141D01*
X70407858Y-73390045D01*
X70407861Y-73390047D01*
X70594266Y-73520568D01*
X70800504Y-73616739D01*
X71020308Y-73675635D01*
X71182230Y-73689801D01*
X71246998Y-73695468D01*
X71247000Y-73695468D01*
X71247002Y-73695468D01*
X71303807Y-73690498D01*
X71473692Y-73675635D01*
X71693496Y-73616739D01*
X71899734Y-73520568D01*
X72086139Y-73390047D01*
X72247047Y-73229139D01*
X72377568Y-73042734D01*
X72404618Y-72984724D01*
X72450790Y-72932285D01*
X72517983Y-72913133D01*
X72584865Y-72933348D01*
X72629382Y-72984725D01*
X72656429Y-73042728D01*
X72656432Y-73042734D01*
X72786954Y-73229141D01*
X72947858Y-73390045D01*
X72947861Y-73390047D01*
X73134266Y-73520568D01*
X73340504Y-73616739D01*
X73560308Y-73675635D01*
X73722230Y-73689801D01*
X73786998Y-73695468D01*
X73787000Y-73695468D01*
X73787002Y-73695468D01*
X73843807Y-73690498D01*
X74013692Y-73675635D01*
X74233496Y-73616739D01*
X74439734Y-73520568D01*
X74626139Y-73390047D01*
X74787047Y-73229139D01*
X74917568Y-73042734D01*
X75013739Y-72836496D01*
X75072635Y-72616692D01*
X75092468Y-72390000D01*
X75072635Y-72163308D01*
X75013739Y-71943504D01*
X74917568Y-71737266D01*
X74787047Y-71550861D01*
X74787045Y-71550858D01*
X74626141Y-71389954D01*
X74439734Y-71259432D01*
X74439732Y-71259431D01*
X74233497Y-71163261D01*
X74233488Y-71163258D01*
X74013697Y-71104366D01*
X74013693Y-71104365D01*
X74013692Y-71104365D01*
X74013691Y-71104364D01*
X74013686Y-71104364D01*
X73787002Y-71084532D01*
X73786998Y-71084532D01*
X73560313Y-71104364D01*
X73560302Y-71104366D01*
X73340511Y-71163258D01*
X73340502Y-71163261D01*
X73134267Y-71259431D01*
X73134265Y-71259432D01*
X72947858Y-71389954D01*
X72786954Y-71550858D01*
X72656432Y-71737265D01*
X72656431Y-71737267D01*
X72629382Y-71795275D01*
X72583209Y-71847714D01*
X72516016Y-71866866D01*
X72449135Y-71846650D01*
X72404618Y-71795275D01*
X72377686Y-71737520D01*
X72377568Y-71737266D01*
X72247047Y-71550861D01*
X72247045Y-71550858D01*
X72086141Y-71389954D01*
X71899734Y-71259432D01*
X71899732Y-71259431D01*
X71693497Y-71163261D01*
X71693488Y-71163258D01*
X71473697Y-71104366D01*
X71473693Y-71104365D01*
X71473692Y-71104365D01*
X71473691Y-71104364D01*
X71473686Y-71104364D01*
X71247002Y-71084532D01*
X71246998Y-71084532D01*
X71020313Y-71104364D01*
X71020302Y-71104366D01*
X70800511Y-71163258D01*
X70800502Y-71163261D01*
X70594267Y-71259431D01*
X70594265Y-71259432D01*
X70407858Y-71389954D01*
X70246954Y-71550858D01*
X70116432Y-71737265D01*
X70116431Y-71737267D01*
X70089382Y-71795275D01*
X70043209Y-71847714D01*
X69976016Y-71866866D01*
X69909135Y-71846650D01*
X69864618Y-71795275D01*
X69837686Y-71737520D01*
X69837568Y-71737266D01*
X69707047Y-71550861D01*
X69707045Y-71550858D01*
X69546141Y-71389954D01*
X69359734Y-71259432D01*
X69359732Y-71259431D01*
X69153497Y-71163261D01*
X69153488Y-71163258D01*
X68933697Y-71104366D01*
X68933693Y-71104365D01*
X68933692Y-71104365D01*
X68933691Y-71104364D01*
X68933686Y-71104364D01*
X68707002Y-71084532D01*
X68706998Y-71084532D01*
X68480313Y-71104364D01*
X68480302Y-71104366D01*
X68260511Y-71163258D01*
X68260502Y-71163261D01*
X68054267Y-71259431D01*
X68054265Y-71259432D01*
X67867858Y-71389954D01*
X67706954Y-71550858D01*
X67576432Y-71737265D01*
X67576431Y-71737267D01*
X67549382Y-71795275D01*
X67503209Y-71847714D01*
X67436016Y-71866866D01*
X67369135Y-71846650D01*
X67324618Y-71795275D01*
X67297686Y-71737520D01*
X67297568Y-71737266D01*
X67167047Y-71550861D01*
X67167045Y-71550858D01*
X67006141Y-71389954D01*
X66819734Y-71259432D01*
X66819732Y-71259431D01*
X66613497Y-71163261D01*
X66613488Y-71163258D01*
X66393697Y-71104366D01*
X66393693Y-71104365D01*
X66393692Y-71104365D01*
X66393691Y-71104364D01*
X66393686Y-71104364D01*
X66167002Y-71084532D01*
X66166998Y-71084532D01*
X65940313Y-71104364D01*
X65940302Y-71104366D01*
X65720511Y-71163258D01*
X65720502Y-71163261D01*
X65514267Y-71259431D01*
X65514265Y-71259432D01*
X65327858Y-71389954D01*
X65166954Y-71550858D01*
X65036432Y-71737265D01*
X65036431Y-71737267D01*
X65009382Y-71795275D01*
X64963209Y-71847714D01*
X64896016Y-71866866D01*
X64829135Y-71846650D01*
X64784618Y-71795275D01*
X64757686Y-71737520D01*
X64757568Y-71737266D01*
X64627047Y-71550861D01*
X64627045Y-71550858D01*
X64466141Y-71389954D01*
X64279734Y-71259432D01*
X64279732Y-71259431D01*
X64073497Y-71163261D01*
X64073488Y-71163258D01*
X63853697Y-71104366D01*
X63853693Y-71104365D01*
X63853692Y-71104365D01*
X63853691Y-71104364D01*
X63853686Y-71104364D01*
X63627002Y-71084532D01*
X63626998Y-71084532D01*
X63400313Y-71104364D01*
X63400302Y-71104366D01*
X63180511Y-71163258D01*
X63180502Y-71163261D01*
X62974267Y-71259431D01*
X62974265Y-71259432D01*
X62787858Y-71389954D01*
X62626954Y-71550858D01*
X62496432Y-71737265D01*
X62496431Y-71737267D01*
X62469382Y-71795275D01*
X62423209Y-71847714D01*
X62356016Y-71866866D01*
X62289135Y-71846650D01*
X62244618Y-71795275D01*
X62217686Y-71737520D01*
X62217568Y-71737266D01*
X62087047Y-71550861D01*
X62087045Y-71550858D01*
X61926141Y-71389954D01*
X61739734Y-71259432D01*
X61739732Y-71259431D01*
X61533497Y-71163261D01*
X61533488Y-71163258D01*
X61313697Y-71104366D01*
X61313693Y-71104365D01*
X61313692Y-71104365D01*
X61313691Y-71104364D01*
X61313686Y-71104364D01*
X61087002Y-71084532D01*
X61086998Y-71084532D01*
X60860313Y-71104364D01*
X60860302Y-71104366D01*
X60640511Y-71163258D01*
X60640502Y-71163261D01*
X60434267Y-71259431D01*
X60434265Y-71259432D01*
X60247858Y-71389954D01*
X60086954Y-71550858D01*
X59956432Y-71737265D01*
X59956431Y-71737267D01*
X59860261Y-71943502D01*
X59860258Y-71943511D01*
X59801366Y-72163302D01*
X59801364Y-72163313D01*
X59781532Y-72389998D01*
X59781532Y-72390001D01*
X55753500Y-72390001D01*
X55753500Y-69974500D01*
X55773185Y-69907461D01*
X55825989Y-69861706D01*
X55877500Y-69850500D01*
X124462500Y-69850500D01*
X124529539Y-69870185D01*
G37*
%TD.AperFunction*%
%TA.AperFunction,Conductor*%
G36*
X91496547Y-105693016D02*
G01*
X91626173Y-105733000D01*
X91727724Y-105733000D01*
X91828138Y-105717865D01*
X91944000Y-105662068D01*
X91944000Y-106683000D01*
X92641828Y-106683000D01*
X92641844Y-106682999D01*
X92701372Y-106676598D01*
X92701379Y-106676596D01*
X92836086Y-106626354D01*
X92836093Y-106626350D01*
X92951187Y-106540190D01*
X92951190Y-106540187D01*
X93037350Y-106425093D01*
X93037355Y-106425084D01*
X93066075Y-106348081D01*
X93107945Y-106292147D01*
X93173409Y-106267729D01*
X93241682Y-106282580D01*
X93273484Y-106307428D01*
X93282216Y-106316913D01*
X93282219Y-106316915D01*
X93282222Y-106316918D01*
X93465365Y-106459464D01*
X93465371Y-106459468D01*
X93465374Y-106459470D01*
X93669497Y-106569936D01*
X93783487Y-106609068D01*
X93889015Y-106645297D01*
X93889017Y-106645297D01*
X93889019Y-106645298D01*
X94117951Y-106683500D01*
X94117952Y-106683500D01*
X94350048Y-106683500D01*
X94350049Y-106683500D01*
X94578981Y-106645298D01*
X94798503Y-106569936D01*
X95002626Y-106459470D01*
X95185784Y-106316913D01*
X95342979Y-106146153D01*
X95348949Y-106137016D01*
X95392747Y-106069977D01*
X95445209Y-105989678D01*
X95498354Y-105944322D01*
X95549017Y-105933500D01*
X97833267Y-105933500D01*
X97900306Y-105953185D01*
X97946061Y-106005989D01*
X97950972Y-106018494D01*
X97962184Y-106052328D01*
X97962187Y-106052336D01*
X97970277Y-106065452D01*
X98054288Y-106201656D01*
X98178344Y-106325712D01*
X98327666Y-106417814D01*
X98494203Y-106472999D01*
X98596991Y-106483500D01*
X99222008Y-106483499D01*
X99222016Y-106483498D01*
X99222019Y-106483498D01*
X99278302Y-106477748D01*
X99324797Y-106472999D01*
X99491334Y-106417814D01*
X99640656Y-106325712D01*
X99734319Y-106232049D01*
X99795642Y-106198564D01*
X99865334Y-106203548D01*
X99909681Y-106232049D01*
X100003344Y-106325712D01*
X100152666Y-106417814D01*
X100319203Y-106472999D01*
X100421991Y-106483500D01*
X100999047Y-106483499D01*
X101066086Y-106503183D01*
X101086728Y-106519818D01*
X103605181Y-109038271D01*
X103638666Y-109099594D01*
X103641500Y-109125952D01*
X103641500Y-115029329D01*
X103621815Y-115096368D01*
X103596165Y-115125182D01*
X103456116Y-115240116D01*
X103331090Y-115392460D01*
X103331086Y-115392467D01*
X103238188Y-115566266D01*
X103180975Y-115754870D01*
X103161659Y-115951000D01*
X103180975Y-116147129D01*
X103189590Y-116175529D01*
X103213159Y-116253226D01*
X103238188Y-116335733D01*
X103331086Y-116509532D01*
X103331090Y-116509539D01*
X103411659Y-116607712D01*
X103438972Y-116672022D01*
X103427181Y-116740890D01*
X103411660Y-116765041D01*
X103298853Y-116902497D01*
X103298849Y-116902503D01*
X103205951Y-117076302D01*
X103148738Y-117264906D01*
X103129422Y-117461036D01*
X103148738Y-117657165D01*
X103148739Y-117657168D01*
X103189855Y-117792710D01*
X103205951Y-117845769D01*
X103298849Y-118019568D01*
X103298853Y-118019575D01*
X103423879Y-118171919D01*
X103576223Y-118296945D01*
X103576230Y-118296949D01*
X103659171Y-118341282D01*
X103709015Y-118390244D01*
X103724476Y-118458381D01*
X103719379Y-118486635D01*
X103661975Y-118675869D01*
X103642659Y-118872000D01*
X103661975Y-119068130D01*
X103711675Y-119231967D01*
X103712298Y-119301834D01*
X103675050Y-119360946D01*
X103611756Y-119390537D01*
X103560922Y-119387737D01*
X103473700Y-119364367D01*
X103473697Y-119364366D01*
X103473692Y-119364365D01*
X103473689Y-119364364D01*
X103473686Y-119364364D01*
X103247002Y-119344532D01*
X103246998Y-119344532D01*
X103020313Y-119364364D01*
X103020302Y-119364366D01*
X102800511Y-119423258D01*
X102800502Y-119423261D01*
X102594267Y-119519431D01*
X102594265Y-119519432D01*
X102407858Y-119649954D01*
X102246954Y-119810858D01*
X102116432Y-119997265D01*
X102116431Y-119997267D01*
X102089382Y-120055275D01*
X102043209Y-120107714D01*
X101976016Y-120126866D01*
X101909135Y-120106650D01*
X101864618Y-120055275D01*
X101837686Y-119997520D01*
X101837568Y-119997266D01*
X101707047Y-119810861D01*
X101707045Y-119810858D01*
X101546141Y-119649954D01*
X101359734Y-119519432D01*
X101359732Y-119519431D01*
X101153497Y-119423261D01*
X101153488Y-119423258D01*
X100933697Y-119364366D01*
X100933693Y-119364365D01*
X100933692Y-119364365D01*
X100933691Y-119364364D01*
X100933686Y-119364364D01*
X100707002Y-119344532D01*
X100706998Y-119344532D01*
X100480313Y-119364364D01*
X100480302Y-119364366D01*
X100260511Y-119423258D01*
X100260502Y-119423261D01*
X100054267Y-119519431D01*
X100054265Y-119519432D01*
X99867858Y-119649954D01*
X99706954Y-119810858D01*
X99576433Y-119997264D01*
X99576432Y-119997266D01*
X99576315Y-119997518D01*
X99549106Y-120055867D01*
X99502933Y-120108306D01*
X99435739Y-120127457D01*
X99368858Y-120107241D01*
X99324342Y-120055865D01*
X99297135Y-119997520D01*
X99297134Y-119997518D01*
X99166657Y-119811179D01*
X99005820Y-119650342D01*
X98819482Y-119519865D01*
X98613328Y-119423734D01*
X98417000Y-119371127D01*
X98417000Y-120214498D01*
X98309315Y-120165320D01*
X98202763Y-120150000D01*
X98131237Y-120150000D01*
X98024685Y-120165320D01*
X97917000Y-120214498D01*
X97917000Y-119371127D01*
X97720671Y-119423734D01*
X97514517Y-119519865D01*
X97328179Y-119650342D01*
X97167342Y-119811179D01*
X97036867Y-119997515D01*
X97009657Y-120055867D01*
X96963484Y-120108306D01*
X96896290Y-120127457D01*
X96829409Y-120107241D01*
X96784893Y-120055865D01*
X96757685Y-119997518D01*
X96757568Y-119997266D01*
X96627047Y-119810861D01*
X96627045Y-119810858D01*
X96466140Y-119649953D01*
X96305377Y-119537386D01*
X96261752Y-119482809D01*
X96252500Y-119435811D01*
X96252500Y-118297452D01*
X96272185Y-118230413D01*
X96288819Y-118209771D01*
X98816914Y-115681676D01*
X101348788Y-113149801D01*
X101361042Y-113139986D01*
X101360859Y-113139764D01*
X101366868Y-113134791D01*
X101366877Y-113134786D01*
X101412305Y-113086408D01*
X101472542Y-113051016D01*
X101490088Y-113047937D01*
X101567797Y-113039999D01*
X101734334Y-112984814D01*
X101883656Y-112892712D01*
X102007712Y-112768656D01*
X102099814Y-112619334D01*
X102154999Y-112452797D01*
X102165500Y-112350009D01*
X102165499Y-111724992D01*
X102154999Y-111622203D01*
X102099814Y-111455666D01*
X102007712Y-111306344D01*
X101914049Y-111212681D01*
X101880564Y-111151358D01*
X101885548Y-111081666D01*
X101914049Y-111037319D01*
X101953013Y-110998355D01*
X102007712Y-110943656D01*
X102099814Y-110794334D01*
X102154999Y-110627797D01*
X102165500Y-110525009D01*
X102165499Y-109899992D01*
X102163918Y-109884519D01*
X102154999Y-109797203D01*
X102154998Y-109797200D01*
X102116360Y-109680599D01*
X102099814Y-109630666D01*
X102007712Y-109481344D01*
X101883656Y-109357288D01*
X101734334Y-109265186D01*
X101567797Y-109210001D01*
X101567795Y-109210000D01*
X101465010Y-109199500D01*
X100464998Y-109199500D01*
X100464980Y-109199501D01*
X100362203Y-109210000D01*
X100362200Y-109210001D01*
X100195668Y-109265185D01*
X100195663Y-109265187D01*
X100046342Y-109357289D01*
X99922289Y-109481342D01*
X99893451Y-109528097D01*
X99841503Y-109574821D01*
X99787912Y-109587000D01*
X98543754Y-109587000D01*
X98476715Y-109567315D01*
X98438215Y-109528097D01*
X98409378Y-109481344D01*
X98285322Y-109357288D01*
X98136000Y-109265186D01*
X97969463Y-109210001D01*
X97969461Y-109210000D01*
X97866676Y-109199500D01*
X96866664Y-109199500D01*
X96866646Y-109199501D01*
X96763869Y-109210000D01*
X96763866Y-109210001D01*
X96597334Y-109265185D01*
X96597329Y-109265187D01*
X96448008Y-109357289D01*
X96323955Y-109481342D01*
X96295117Y-109528097D01*
X96243169Y-109574821D01*
X96189578Y-109587000D01*
X94945421Y-109587000D01*
X94878382Y-109567315D01*
X94839882Y-109528097D01*
X94811045Y-109481344D01*
X94686989Y-109357288D01*
X94537667Y-109265186D01*
X94371130Y-109210001D01*
X94371128Y-109210000D01*
X94268343Y-109199500D01*
X93268331Y-109199500D01*
X93268313Y-109199501D01*
X93165536Y-109210000D01*
X93165533Y-109210001D01*
X92999001Y-109265185D01*
X92998996Y-109265187D01*
X92849675Y-109357289D01*
X92725622Y-109481342D01*
X92696784Y-109528097D01*
X92644836Y-109574821D01*
X92591245Y-109587000D01*
X91347088Y-109587000D01*
X91280049Y-109567315D01*
X91241549Y-109528097D01*
X91212712Y-109481344D01*
X91088656Y-109357288D01*
X90939334Y-109265186D01*
X90939328Y-109265184D01*
X90905494Y-109253972D01*
X90848050Y-109214199D01*
X90821228Y-109149683D01*
X90820500Y-109136267D01*
X90820500Y-106807000D01*
X90840185Y-106739961D01*
X90892989Y-106694206D01*
X90944500Y-106683000D01*
X91444000Y-106683000D01*
X91444000Y-105657189D01*
X91496547Y-105693016D01*
G37*
%TD.AperFunction*%
%TA.AperFunction,Conductor*%
G36*
X92658284Y-110857685D02*
G01*
X92696782Y-110896901D01*
X92725621Y-110943656D01*
X92725622Y-110943657D01*
X92819284Y-111037319D01*
X92852769Y-111098642D01*
X92847785Y-111168334D01*
X92819284Y-111212681D01*
X92725622Y-111306342D01*
X92633520Y-111455663D01*
X92633519Y-111455666D01*
X92578334Y-111622203D01*
X92578334Y-111622204D01*
X92578333Y-111622204D01*
X92567833Y-111724983D01*
X92567833Y-112302046D01*
X92548148Y-112369085D01*
X92531514Y-112389727D01*
X90163208Y-114758032D01*
X90150951Y-114767853D01*
X90151134Y-114768074D01*
X90145122Y-114773047D01*
X90099098Y-114822056D01*
X90096391Y-114824849D01*
X90076889Y-114844350D01*
X90076875Y-114844367D01*
X90074407Y-114847548D01*
X90066843Y-114856403D01*
X90036937Y-114888251D01*
X90036936Y-114888253D01*
X90027284Y-114905809D01*
X90016610Y-114922059D01*
X90004329Y-114937894D01*
X90004324Y-114937901D01*
X89986975Y-114977991D01*
X89981838Y-114988477D01*
X89960803Y-115026739D01*
X89955822Y-115046140D01*
X89949521Y-115064543D01*
X89941562Y-115082935D01*
X89941561Y-115082938D01*
X89934728Y-115126076D01*
X89932360Y-115137507D01*
X89921501Y-115179804D01*
X89921500Y-115179815D01*
X89921500Y-115199849D01*
X89919973Y-115219248D01*
X89916840Y-115239027D01*
X89916840Y-115239028D01*
X89920950Y-115282507D01*
X89921500Y-115294176D01*
X89921500Y-119435811D01*
X89901815Y-119502850D01*
X89868623Y-119537386D01*
X89707859Y-119649953D01*
X89546954Y-119810858D01*
X89416432Y-119997265D01*
X89416431Y-119997267D01*
X89389382Y-120055275D01*
X89343209Y-120107714D01*
X89276016Y-120126866D01*
X89209135Y-120106650D01*
X89164618Y-120055275D01*
X89137686Y-119997520D01*
X89137568Y-119997266D01*
X89007047Y-119810861D01*
X89007045Y-119810858D01*
X88846140Y-119649953D01*
X88685377Y-119537386D01*
X88641752Y-119482809D01*
X88632500Y-119435811D01*
X88632500Y-114510952D01*
X88652185Y-114443913D01*
X88668819Y-114423271D01*
X90005272Y-113086818D01*
X90066595Y-113053333D01*
X90092953Y-113050499D01*
X90670002Y-113050499D01*
X90670008Y-113050499D01*
X90772797Y-113039999D01*
X90939334Y-112984814D01*
X91088656Y-112892712D01*
X91212712Y-112768656D01*
X91304814Y-112619334D01*
X91359999Y-112452797D01*
X91370500Y-112350009D01*
X91370499Y-111724992D01*
X91359999Y-111622203D01*
X91304814Y-111455666D01*
X91212712Y-111306344D01*
X91119049Y-111212681D01*
X91085564Y-111151358D01*
X91090548Y-111081666D01*
X91119049Y-111037319D01*
X91158013Y-110998355D01*
X91212712Y-110943656D01*
X91241549Y-110896902D01*
X91293497Y-110850179D01*
X91347088Y-110838000D01*
X92591245Y-110838000D01*
X92658284Y-110857685D01*
G37*
%TD.AperFunction*%
%TA.AperFunction,Conductor*%
G36*
X95021552Y-112697180D02*
G01*
X95037954Y-112713718D01*
X95047117Y-112724884D01*
X95199460Y-112849909D01*
X95199467Y-112849913D01*
X95373268Y-112942812D01*
X95373270Y-112942812D01*
X95373273Y-112942814D01*
X95540760Y-112993621D01*
X95599198Y-113031918D01*
X95627654Y-113095730D01*
X95617094Y-113164797D01*
X95592445Y-113199962D01*
X92703208Y-116089199D01*
X92690951Y-116099020D01*
X92691134Y-116099241D01*
X92685122Y-116104214D01*
X92639098Y-116153223D01*
X92636391Y-116156016D01*
X92616889Y-116175517D01*
X92616875Y-116175534D01*
X92614407Y-116178715D01*
X92606843Y-116187570D01*
X92576937Y-116219418D01*
X92576936Y-116219420D01*
X92567284Y-116236976D01*
X92556610Y-116253226D01*
X92544329Y-116269061D01*
X92544324Y-116269068D01*
X92526975Y-116309158D01*
X92521838Y-116319644D01*
X92500803Y-116357906D01*
X92495822Y-116377307D01*
X92489521Y-116395710D01*
X92481562Y-116414102D01*
X92481561Y-116414105D01*
X92474728Y-116457243D01*
X92472360Y-116468674D01*
X92461501Y-116510971D01*
X92461500Y-116510982D01*
X92461500Y-116531016D01*
X92459973Y-116550415D01*
X92456840Y-116570194D01*
X92456840Y-116570195D01*
X92460950Y-116613674D01*
X92461500Y-116625343D01*
X92461500Y-119435811D01*
X92441815Y-119502850D01*
X92408623Y-119537386D01*
X92247859Y-119649953D01*
X92086954Y-119810858D01*
X91956432Y-119997265D01*
X91956431Y-119997267D01*
X91929382Y-120055275D01*
X91883209Y-120107714D01*
X91816016Y-120126866D01*
X91749135Y-120106650D01*
X91704618Y-120055275D01*
X91677686Y-119997520D01*
X91677568Y-119997266D01*
X91547047Y-119810861D01*
X91547045Y-119810858D01*
X91386140Y-119649953D01*
X91225377Y-119537386D01*
X91181752Y-119482809D01*
X91172500Y-119435811D01*
X91172500Y-115569285D01*
X91192185Y-115502246D01*
X91208819Y-115481604D01*
X93603605Y-113086818D01*
X93664928Y-113053333D01*
X93691286Y-113050499D01*
X94268335Y-113050499D01*
X94268341Y-113050499D01*
X94371130Y-113039999D01*
X94537667Y-112984814D01*
X94686989Y-112892712D01*
X94811045Y-112768656D01*
X94836563Y-112727284D01*
X94888507Y-112680562D01*
X94957469Y-112669338D01*
X95021552Y-112697180D01*
G37*
%TD.AperFunction*%
%TA.AperFunction,Conductor*%
G36*
X98515048Y-112765500D02*
G01*
X98550379Y-112785829D01*
X98628460Y-112849909D01*
X98628467Y-112849913D01*
X98802266Y-112942811D01*
X98802269Y-112942811D01*
X98802273Y-112942814D01*
X98990868Y-113000024D01*
X99187000Y-113019341D01*
X99383132Y-113000024D01*
X99406435Y-112992954D01*
X99476298Y-112992330D01*
X99535412Y-113029576D01*
X99565005Y-113092870D01*
X99555681Y-113162115D01*
X99530111Y-113199296D01*
X95243208Y-117486199D01*
X95230951Y-117496020D01*
X95231134Y-117496241D01*
X95225122Y-117501214D01*
X95179098Y-117550223D01*
X95176391Y-117553016D01*
X95156889Y-117572517D01*
X95156875Y-117572534D01*
X95154407Y-117575715D01*
X95146843Y-117584570D01*
X95116937Y-117616418D01*
X95116936Y-117616420D01*
X95107284Y-117633976D01*
X95096610Y-117650226D01*
X95084329Y-117666061D01*
X95084324Y-117666068D01*
X95066975Y-117706158D01*
X95061838Y-117716644D01*
X95040803Y-117754906D01*
X95035822Y-117774307D01*
X95029521Y-117792710D01*
X95021562Y-117811102D01*
X95021561Y-117811105D01*
X95014728Y-117854243D01*
X95012360Y-117865674D01*
X95001501Y-117907971D01*
X95001500Y-117907982D01*
X95001500Y-117928016D01*
X94999973Y-117947415D01*
X94996840Y-117967194D01*
X94996840Y-117967195D01*
X95000950Y-118010674D01*
X95001500Y-118022343D01*
X95001500Y-119435811D01*
X94981815Y-119502850D01*
X94948623Y-119537386D01*
X94787859Y-119649953D01*
X94626954Y-119810858D01*
X94496432Y-119997265D01*
X94496431Y-119997267D01*
X94469382Y-120055275D01*
X94423209Y-120107714D01*
X94356016Y-120126866D01*
X94289135Y-120106650D01*
X94244618Y-120055275D01*
X94217686Y-119997520D01*
X94217568Y-119997266D01*
X94087047Y-119810861D01*
X94087045Y-119810858D01*
X93926140Y-119649953D01*
X93765377Y-119537386D01*
X93721752Y-119482809D01*
X93712500Y-119435811D01*
X93712500Y-116900451D01*
X93732185Y-116833412D01*
X93748814Y-116812775D01*
X97474771Y-113086817D01*
X97536094Y-113053333D01*
X97562452Y-113050499D01*
X97866668Y-113050499D01*
X97866674Y-113050499D01*
X97969463Y-113039999D01*
X98136000Y-112984814D01*
X98285322Y-112892712D01*
X98384033Y-112794001D01*
X98445356Y-112760516D01*
X98515048Y-112765500D01*
G37*
%TD.AperFunction*%
%TA.AperFunction,Conductor*%
G36*
X83487507Y-72180156D02*
G01*
X83447000Y-72318111D01*
X83447000Y-72461889D01*
X83487507Y-72599844D01*
X83513314Y-72640000D01*
X81840686Y-72640000D01*
X81866493Y-72599844D01*
X81907000Y-72461889D01*
X81907000Y-72318111D01*
X81866493Y-72180156D01*
X81840686Y-72140000D01*
X83513314Y-72140000D01*
X83487507Y-72180156D01*
G37*
%TD.AperFunction*%
%TD*%
M02*
